<?xml version="1.0" standalone="no"?>
<!DOCTYPE svg PUBLIC "-//W3C//DTD SVG 1.1//EN" "http://www.w3.org/Graphics/SVG/1.1/DTD/svg11.dtd" >
<svg xmlns="http://www.w3.org/2000/svg" xmlns:xlink="http://www.w3.org/1999/xlink" version="1.1">
<metadata>
Created by FontForge 20201107 at Wed Dec 18 15:38:59 2019
 By www-data
(c) Copyright YouShe Network Technology Co., Ltd
</metadata>
<defs>
<font id="YouSheBiaoTiHei" horiz-adv-x="920" >
  <font-face 
    font-family="YouSheBiaoTiHei"
    font-weight="400"
    font-stretch="normal"
    units-per-em="1000"
    panose-1="0 0 5 0 0 0 0 0 0 0"
    ascent="850"
    descent="-150"
    x-height="482"
    cap-height="626"
    bbox="-504 -267 999 965"
    underline-thickness="50"
    underline-position="-100"
    unicode-range="U+0002-FFE5"
  />
<missing-glyph horiz-adv-x="500" 
 />
    <glyph glyph-name=".notdef" horiz-adv-x="500" 
 />
    <glyph glyph-name="space" unicode=" " horiz-adv-x="600" 
 />
    <glyph glyph-name="A" unicode="A" horiz-adv-x="748" 
d="M629 626l76 -566h-172l-20 154h-240l-67 -154h-163l221 538l-29 28h394zM408 530l-96 -220h192l-29 220h-67z" />
    <glyph glyph-name="B" unicode="B" horiz-adv-x="772" 
d="M727 626l-29 -230l-58 -38l48 -39l-29 -192q-7 -29 -27 -48t-49 -19h-538l67 528l-29 38h644zM295 530l-10 -124h221l19 124h-230zM266 310l-19 -154h230l19 154h-230z" />
    <glyph glyph-name="C" unicode="C" horiz-adv-x="759" 
d="M104 60q-14 0 -26 5t-20.5 14t-11.5 21.5t1 26.5l67 499h605l-10 -96h-422l-48 -374h374l48 38l-19 -134h-538v0z" />
    <glyph glyph-name="D" unicode="D" horiz-adv-x="772" 
d="M727 626l-68 -499q0 -29 -23.5 -48t-52.5 -19h-538l67 528l-29 38h644zM304 530l-57 -374h230l58 374h-231z" />
    <glyph glyph-name="E" unicode="E" horiz-adv-x="680" 
d="M640 626l-9 -96h-317l-19 -124h297l-9 -96h-308l-19 -154h336l-9 -96h-538l77 528l-29 38h547z" />
    <glyph glyph-name="F" unicode="F" horiz-adv-x="699" 
d="M659 626l-9 -96h-346l-19 -163h317l-10 -96h-326l-29 -211h-192l77 528l-29 38h566z" />
    <glyph glyph-name="G" unicode="G" horiz-adv-x="764" 
d="M700 463h-192l9 67h-230l-48 -374h230l10 115l-58 96h259l-38 -307h-538q-14 0 -26 5t-20.5 14t-11.5 21.5t1 26.5l67 499h605z" />
    <glyph glyph-name="H" unicode="H" horiz-adv-x="772" 
d="M314 626l-29 -220h223l27 182l-29 38h221l-77 -566h-192l38 250h-224l-35 -250h-192l77 538l-39 28h231z" />
    <glyph glyph-name="I" unicode="I" horiz-adv-x="369" 
d="M319 626l-87 -566h-182l67 528l-29 38h231z" />
    <glyph glyph-name="J" unicode="J" horiz-adv-x="536" 
d="M241 156l58 432l-29 38h221l-67 -499q-8 -29 -28 -48t-49 -19h-317l19 134l39 -38h153z" />
    <glyph glyph-name="K" unicode="K" horiz-adv-x="752" 
d="M314 626l-29 -172l202 172h220l-326 -288l288 -278h-230l-183 192l-29 -192h-182l67 528l-29 38h231z" />
    <glyph glyph-name="L" unicode="L" horiz-adv-x="641" 
d="M304 626l-67 -470h374l-9 -96h-499q-29 0 -43.5 19t-14.5 48l58 461l-29 38h230z" />
    <glyph glyph-name="M" unicode="M" horiz-adv-x="887" 
d="M333 626l106 -355l201 355h202l-77 -566h-173l48 298l-153 -260h-154l-77 250l-38 -288h-173l77 528l-39 38h250z" />
    <glyph glyph-name="N" unicode="N" horiz-adv-x="772" 
d="M314 626l201 -355l48 355h164l-77 -566h-192l-192 346l-48 -346h-173l77 528l-39 38h231z" />
    <glyph glyph-name="O" unicode="O" horiz-adv-x="756" 
d="M652 626q14 0 26 -5t20.5 -14t11.5 -21t-1 -27l-67 -499h-538q-14 0 -26 5t-20.5 14t-11.5 21.5t1 26.5l67 499h538zM287 530l-48 -374h221l57 374h-230z" />
    <glyph glyph-name="P" unicode="P" horiz-adv-x="747" 
d="M707 626l-38 -307q-8 -29 -31.5 -48t-45.5 -19h-336l-29 -192h-182l67 538l-29 28h624zM295 530l-20 -182h202l29 182h-211z" />
    <glyph glyph-name="Q" unicode="Q" horiz-adv-x="720" 
d="M613 626q29 0 47 -19t11 -48l-48 -336l57 -19l-19 -115l-77 29l-9 -58h-471q-14 0 -26 5t-20.5 14t-11.5 21.5t1 26.5l67 499h499zM354 204l19 115l77 -29l29 240h-192l-48 -374h192v19z" />
    <glyph glyph-name="R" unicode="R" horiz-adv-x="752" 
d="M707 626l-38 -288q0 -14 -6.5 -26.5t-17.5 -21.5t-24.5 -14t-28.5 -5h-125l202 -211h-211l-192 211l-29 -211h-192l67 528l-29 38h624zM295 530l-20 -163h212l19 163h-211z" />
    <glyph glyph-name="S" unicode="S" horiz-adv-x="733" 
d="M439 175l19 115h-384l48 336h566l-19 -163h-192l10 67h-183l-29 -144h384l-38 -259q0 -14 -6.5 -26.5t-17.5 -21.5t-24.5 -14t-28.5 -5h-499l19 154l29 -39h346z" />
    <glyph glyph-name="T" unicode="T" horiz-adv-x="714" 
d="M189 60l67 470h-211l10 96h614l-19 -96h-202l-67 -470h-192z" />
    <glyph glyph-name="U" unicode="U" horiz-adv-x="772" 
d="M304 626l-67 -470h230l68 442l-39 28h231l-77 -566h-547q-29 0 -43.5 19t-14.5 48l67 471l-29 28h221z" />
    <glyph glyph-name="V" unicode="V" horiz-adv-x="742" 
d="M165 60l-106 538l-19 28h202l76 -393l192 393h192l-268 -566h-269z" />
    <glyph glyph-name="W" unicode="W" horiz-adv-x="896" 
d="M376 607h154l28 -326l135 345h163l-230 -566h-173l-39 278l-115 -278h-173l-67 547l-19 19h182l29 -345z" />
    <glyph glyph-name="X" unicode="X" horiz-adv-x="751" 
d="M107 626h201l87 -163l115 144l-19 19h230l-249 -278l172 -288h-192l-86 173l-144 -173h-192l250 288l-144 250z" />
    <glyph glyph-name="Y" unicode="Y" horiz-adv-x="722" 
d="M481 607l-19 19h230l-278 -336l-29 -230h-192l29 230l-163 308l-29 28h202l105 -211z" />
    <glyph glyph-name="Z" unicode="Z" horiz-adv-x="751" 
d="M97 530l19 96h605l-19 -96l-422 -374h374l-10 -96h-614l19 96l432 374h-384z" />
    <glyph glyph-name="a" unicode="a" horiz-adv-x="603" 
d="M372 386h-102l-9 -38h-192l29 134h470l-58 -374l39 -48h-451q-29 0 -43.5 19t-14.5 48l29 183h288zM242 214l-10 -58h96l10 58h-96z" />
    <glyph glyph-name="b" unicode="b" horiz-adv-x="637" 
d="M318 684l-28 -202h307l-48 -355q-8 -29 -28 -48t-49 -19h-432l86 595l-19 29h211zM280 386l-33 -230h114l34 230h-115z" />
    <glyph glyph-name="c" unicode="c" horiz-adv-x="637" 
d="M587 386h-307l-38 -230h268l48 38l-19 -134h-499l67 422h490z" />
    <glyph glyph-name="d" unicode="d" horiz-adv-x="650" 
d="M424 684h192l-86 -624h-432q-29 0 -43.5 19t-14.5 48l48 355h307zM265 386l-37 -230h122l36 230h-121z" />
    <glyph glyph-name="e" unicode="e" horiz-adv-x="627" 
d="M549 233h-307l-10 -77h269l48 38l-29 -134h-422q-29 0 -43.5 19t-14.5 48l48 355h499zM270 386l-9 -57h115l10 57h-116z" />
    <glyph glyph-name="f" unicode="f" horiz-adv-x="403" 
d="M155 684h248l-17 -96h-48l-20 -106h77l-19 -96h-67l-48 -326h-192l48 326h-77l10 96h76z" />
    <glyph glyph-name="g" unicode="g" horiz-adv-x="666" 
d="M357 -54l19 114h-307l57 422h500l-77 -565q-4 -29 -26 -48t-51 -19h-432l19 134l39 -38h259zM309 386l-36 -229h113l38 229h-115z" />
    <glyph glyph-name="h" unicode="h" horiz-adv-x="637" 
d="M318 684l-28 -202h307l-58 -422h-192l48 326h-115l-48 -326h-192l86 595l-19 29h211z" />
    <glyph glyph-name="i" unicode="i" horiz-adv-x="349" 
d="M290 511h-183l10 115h192zM290 482l-58 -422h-192l58 394l-29 28h221z" />
    <glyph glyph-name="j" unicode="j" horiz-adv-x="374" 
d="M315 520h-182l19 106h182zM94 482h221l-77 -565q-4 -29 -25.5 -48t-50.5 -19h-202l86 96l77 507z" />
    <glyph glyph-name="k" unicode="k" horiz-adv-x="606" 
d="M318 684l-38 -278l125 86h211l-269 -182l211 -250h-211l-96 125l-19 -125h-192l86 595l-28 29h220z" />
    <glyph glyph-name="l" unicode="l" horiz-adv-x="349" 
d="M309 684l-77 -528l67 -96h-201q-29 0 -43.5 19t-14.5 48l77 528l-29 29h221z" />
    <glyph glyph-name="m" unicode="m" horiz-adv-x="790" 
d="M750 482l-57 -422h-173l48 326h-77l-48 -326h-153l49 326h-76l-50 -326h-173l58 394l-20 28h672z" />
    <glyph glyph-name="n" unicode="n" horiz-adv-x="637" 
d="M597 482l-58 -422h-192l48 326h-115l-48 -326h-192l58 394l-29 28h528z" />
    <glyph glyph-name="o" unicode="o" horiz-adv-x="618" 
d="M520 482q29 0 43.5 -23.5t14.5 -52.5l-48 -346h-432q-29 0 -43.5 19t-14.5 48l48 355h432zM270 386l-38 -230h115l39 230h-116z" />
    <glyph glyph-name="p" unicode="p" horiz-adv-x="669" 
d="M629 482l-48 -355q-2 -15 -10 -27t-19.5 -21t-24 -14t-23.5 -5h-239l-33 -210h-192l89 603l-28 29h528zM312 386l-36 -239h116l35 239h-115z" />
    <glyph glyph-name="q" unicode="q" horiz-adv-x="627" 
d="M501 -150h-192l33 210h-244q-11 0 -22 5t-19.5 14t-13.5 21.5t-3 26.5l48 355h499zM270 386l-36 -230h119l33 230h-116z" />
    <glyph glyph-name="r" unicode="r" horiz-adv-x="563" 
d="M270 482l-19 -134l135 134h192l-327 -288l-19 -134h-192l56 394l-20 28h194z" />
    <glyph glyph-name="s" unicode="s" horiz-adv-x="598" 
d="M338 156l9 67h-288l39 259h460l-19 -124h-166l3 28h-115l-10 -67h279l-20 -192q-7 -29 -32 -48t-54 -19h-384l19 134l29 -38h250z" />
    <glyph glyph-name="t" unicode="t" horiz-adv-x="454" 
d="M136 540l-19 29h211l-13 -87h119l-20 -96h-111l-33 -230h96l-19 -96h-211q-29 0 -47 19t-11 48l39 259h-77l10 96h78z" />
    <glyph glyph-name="u" unicode="u" horiz-adv-x="637" 
d="M290 482l-44 -300l120 12l39 260l-29 28h221l-58 -422h-192l6 38l-313 -38l58 394l-29 28h221z" />
    <glyph glyph-name="v" unicode="v" horiz-adv-x="597" 
d="M394 482h183l-231 -422h-192l-105 384l-29 38h202l57 -240z" />
    <glyph glyph-name="w" unicode="w" horiz-adv-x="664" 
d="M279 482h115l20 -211l76 211h154l-154 -422h-153l-29 211l-86 -211h-154l-29 394l-19 28h163l19 -211z" />
    <glyph glyph-name="x" unicode="x" horiz-adv-x="587" 
d="M68 482h202l42 -89l54 70l-10 19h211l-176 -211l119 -211h-192l-42 79l-74 -79h-182l176 211l-99 173z" />
    <glyph glyph-name="y" unicode="y" horiz-adv-x="607" 
d="M59 453l-28 29h211l52 -212l92 193l-19 19h220l-322 -594q-8 -14 -26.5 -26t-40.5 -12h-178l77 77l75 142z" />
    <glyph glyph-name="z" unicode="z" horiz-adv-x="549" 
d="M58 386l20 96h451l-10 -96l-269 -230h240l-19 -96h-451l10 96l278 230h-250z" />
    <glyph glyph-name="ordfeminine" unicode="&#xaa;" horiz-adv-x="603" 
d="M372 386h-102l-9 -38h-192l29 134h470l-58 -374l39 -48h-451q-29 0 -43.5 19t-14.5 48l29 183h288zM242 214l-10 -58h96l10 58h-96z" />
    <glyph glyph-name="ordmasculine" unicode="&#xba;" horiz-adv-x="618" 
d="M520 482q29 0 43.5 -23.5t14.5 -52.5l-48 -346h-432q-29 0 -43.5 19t-14.5 48l48 355h432zM270 386l-38 -230h115l39 230h-116z" />
    <glyph glyph-name="zero" unicode="0" horiz-adv-x="739" 
d="M115 561q4 29 26.5 48.5t51.5 19.5h501l-70 -501q-5 -29 -27 -48.5t-51 -19.5h-501zM302 535l-54 -380h189l54 380h-189z" />
    <glyph glyph-name="one" unicode="1" horiz-adv-x="386" 
d="M255 60h-190l63 448l-78 -11l15 104l271 38z" />
    <glyph glyph-name="two" unicode="2" horiz-adv-x="731" 
d="M483 535h-191l-9 -76h-190l24 171h569l-48 -342h-399l-18 -133h361l43 38l-19 -133h-501q-29 0 -46 19.5t-13 48.5l36 255h379z" />
    <glyph glyph-name="three" unicode="3" horiz-adv-x="705" 
d="M425 307h-342l13 95h342l19 133h-380l13 94h570l-71 -501q-4 -29 -26.5 -48.5t-50.5 -19.5h-502l14 95h379z" />
    <glyph glyph-name="four" unicode="4" horiz-adv-x="690" 
d="M127 629h218l-104 -360h148l46 323l-33 37h228l-51 -360h76l-13 -95h-76l-16 -114h-190l16 114h-341l13 95l101 336z" />
    <glyph glyph-name="five" unicode="5" horiz-adv-x="739" 
d="M437 155l25 171h-380l38 267l-33 34h607l-13 -92h-379l-17 -114h380l-37 -266l-4 -27q-5 -29 -27 -48.5t-51 -19.5h-501l18 133l33 -38h341z" />
    <glyph glyph-name="six" unicode="6" horiz-adv-x="731" 
d="M673 535h-379l-15 -105h379l-51 -370h-502q-29 0 -46 19.5t-13 48.5l71 501h569zM266 335l-26 -180h190l25 180h-189z" />
    <glyph glyph-name="seven" unicode="7" horiz-adv-x="628" 
d="M605 535l-276 -475h-189l272 475h-377l14 95h569z" />
    <glyph glyph-name="eight" unicode="8" horiz-adv-x="740" 
d="M115 561q5 29 27.5 49t50.5 20h502l-71 -502q-4 -29 -26.5 -48.5t-51.5 -19.5h-501zM302 535l-19 -133h190l19 133h-190zM270 307l-22 -152h190l22 152h-190z" />
    <glyph glyph-name="nine" unicode="9" horiz-adv-x="735" 
d="M449 269h-379l50 360h570l-71 -501q-4 -29 -26.5 -48.5t-50.5 -19.5h-502l15 95h378zM297 535l-25 -171h191l24 171h-190z" />
    <glyph glyph-name="period" unicode="." horiz-adv-x="248" 
d="M56 175h152l-16 -114h-152z" />
    <glyph glyph-name="comma" unicode="," horiz-adv-x="283" 
d="M154 -35h-114l70 210h133z" />
    <glyph glyph-name="colon" unicode=":" horiz-adv-x="280" 
d="M88 482h152l-16 -114h-152zM53 175h152l-16 -114h-152z" />
    <glyph glyph-name="semicolon" unicode=";" horiz-adv-x="318" 
d="M262 368h-142l16 114h142zM133 -53h-123l70 228h142z" />
    <glyph glyph-name="ellipsis" unicode="&#x2026;" horiz-adv-x="1000" 
d="M217 356h152l-16 -114h-152zM433 356h152l-16 -114h-152zM647 356h152l-16 -114h-152z" />
    <glyph glyph-name="exclam" unicode="!" horiz-adv-x="322" 
d="M215 200h-152l62 426h152zM197 60h-152l13 95h152z" />
    <glyph glyph-name="exclamdown" unicode="&#xa1;" horiz-adv-x="322" 
d="M125 482h152l-13 -95h-152zM107 342h152l-62 -426h-152z" />
    <glyph glyph-name="question" unicode="?" horiz-adv-x="440" 
d="M379 401l-145 -107l-11 -76h-143l18 131l144 97l8 55h-220l17 125h363zM74 175h146l-16 -114h-146z" />
    <glyph glyph-name="questiondown" unicode="&#xbf;" horiz-adv-x="440" 
d="M366 368h-146l16 114h146zM30 -83h363l17 125h-220l8 55l144 97l18 131h-143l-11 -76l-145 -107z" />
    <glyph glyph-name="asterisk" unicode="*" horiz-adv-x="502" 
d="M94 563l116 -56l-14 119h134l-31 -121l124 57l34 -115l-136 -18l92 -85l-113 -70l-55 110l-69 -110l-104 71l105 85l-132 19z" />
    <glyph glyph-name="numbersign" unicode="#" horiz-adv-x="692" 
d="M638 262l-12 -81h-80l-17 -121h-162l17 121h-121l-17 -121h-162l17 121h-81l12 81h81l23 162h-82l12 81h81l13 91l-26 30h191l-17 -121h122l13 90l-27 31h192l-17 -121h81l-12 -81h-80l-23 -162h81zM274 262h122l23 162h-122z" />
    <glyph glyph-name="slash" unicode="/" horiz-adv-x="388" 
d="M343 685l-164 -624h-134l164 624h134z" />
    <glyph glyph-name="backslash" unicode="\" horiz-adv-x="434" 
d="M389 -150h-126l-218 776h126z" />
    <glyph glyph-name="twodotenleader" unicode="&#x2025;" horiz-adv-x="1000" 
d="M324 356h152l-16 -114h-152zM540 356h152l-16 -114h-152z" />
    <glyph glyph-name="parenleft" unicode="(" horiz-adv-x="299" 
d="M60 282q2 67 12 125t25 108t34 92t39 78h143q-23 -49 -43 -95t-34.5 -94t-24 -100.5t-11.5 -113.5q-2 -63 2 -120t14.5 -109.5t27.5 -102.5t40 -100h-144q-42 91 -63.5 195.5t-16.5 236.5z" />
    <glyph glyph-name="parenright" unicode=")" horiz-adv-x="299" 
d="M269 282q-5 -132 -32 -236.5t-75 -195.5h-147q27 50 47 100t34.5 102.5t22.5 109.5t10 120q2 61 -3.5 113.5t-16.5 100.5t-28 94t-37 95h143q18 -36 34 -78t27.5 -92t17 -108t3.5 -125z" />
    <glyph glyph-name="braceleft" unicode="{" horiz-adv-x="362" 
d="M280 563q-12 0 -20 -10.5t-10 -27.5l-24 -175q-5 -28 -18 -51.5t-39 -37.5q11 -7 18 -18.5t10 -25.5t3.5 -29t-1.5 -30l-21 -148q-6 -38 20 -38h35l-17 -122h-55q-23 0 -42 6t-32 20t-18.5 36.5t-0.5 54.5l26 187q2 15 -0.5 25.5t-7.5 16.5t-11.5 8.5t-12.5 3.5l-12 1
l14 105l11 2q16 3 30 11.5t19 37.5l28 206q8 56 39.5 85t85.5 29h55l-17 -122h-35v0z" />
    <glyph glyph-name="braceright" unicode="}" horiz-adv-x="362" 
d="M82 -28q12 0 20 10.5t10 27.5l24 175q5 28 18 51.5t39 37.5q-11 7 -18 18.5t-10 25.5t-3.5 29t1.5 30l21 148q6 38 -20 38h-35l17 122h55q46 0 74 -26.5t19 -90.5l-26 -187q-2 -15 0.5 -25.5t7.5 -16.5t11.5 -8.5t12.5 -3.5l12 -1l-14 -105l-11 -2q-16 -3 -30 -11.5
t-19 -37.5l-28 -206q-8 -56 -39.5 -85t-85.5 -29h-55l17 122h35v0z" />
    <glyph glyph-name="bracketleft" unicode="[" horiz-adv-x="403" 
d="M357 576h-86l-86 -617h86l-15 -109h-206l117 835h206z" />
    <glyph glyph-name="bracketright" unicode="]" horiz-adv-x="403" 
d="M218 576h-86l15 109h206l-117 -835h-206l16 109h86z" />
    <glyph glyph-name="hyphen" unicode="-" horiz-adv-x="445" 
d="M383 242h-341l16 102h342z" />
    <glyph glyph-name="endash" unicode="&#x2013;" horiz-adv-x="1000" 
d="M711 254h-439l16 102h440z" />
    <glyph glyph-name="emdash" unicode="&#x2014;" horiz-adv-x="1000" 
d="M982 254h-981l16 102h982z" />
    <glyph glyph-name="underscore" unicode="_" horiz-adv-x="546" 
d="M484 -42h-439l16 102h440z" />
    <glyph glyph-name="quotesinglbase" unicode="&#x201a;" horiz-adv-x="1000" 
d="M264 -35h-114l70 210h133z" />
    <glyph glyph-name="quotedblbase" unicode="&#x201e;" horiz-adv-x="1000" 
d="M264 -35h-114l70 210h133zM445 -35h-114l70 210h133z" />
    <glyph glyph-name="quotedblleft" unicode="&#x201c;" horiz-adv-x="1000" 
d="M598 457h-132l88 228h114zM780 457h-132l88 228h114z" />
    <glyph glyph-name="quotedblright" unicode="&#x201d;" horiz-adv-x="1000" 
d="M220 685h132l-88 -228h-114zM402 685h132l-88 -228h-114z" />
    <glyph glyph-name="quoteleft" unicode="&#x2018;" horiz-adv-x="1000" 
d="M780 457h-132l88 228h114z" />
    <glyph glyph-name="quoteright" unicode="&#x2019;" horiz-adv-x="1000" 
d="M220 685h132l-88 -228h-114z" />
    <glyph glyph-name="guilsinglleft" unicode="&#x2039;" horiz-adv-x="261" 
d="M130 61l-85 210l85 211h101l-65 -211l65 -210h-101z" />
    <glyph glyph-name="guilsinglright" unicode="&#x203a;" horiz-adv-x="261" 
d="M131 482l85 -211l-85 -210h-101l65 210l-65 211h101z" />
    <glyph glyph-name="quotedbl" unicode="&#x22;" horiz-adv-x="386" 
d="M144 398h-104l10 228h123zM317 398h-104l10 228h123z" />
    <glyph glyph-name="quotesingle" unicode="'" horiz-adv-x="213" 
d="M144 398h-104l10 228h123z" />
    <glyph glyph-name="dollar" unicode="$" horiz-adv-x="679" 
d="M437 516l-16 -114h208l-30 -217q-4 -29 -26.5 -48.5t-51.5 -19.5h-140l-8 -57h-152l8 57h-209l19 133l32 -38h171l14 95h-209l42 304h209l4 28l-24 28h180l-8 -56h209l-19 -133h-152l5 38h-56zM211 402h58l16 114h-57zM451 212l13 95h-56l-14 -95h57z" />
    <glyph glyph-name="yen" unicode="&#xa5;" horiz-adv-x="650" 
d="M426 602l-20 24h199l-227 -285h139l-13 -95h-152l-26 -186h-152l26 186h-151l13 95h139l-134 259l-22 26h171l87 -193z" />
    <glyph glyph-name="plus" unicode="+" horiz-adv-x="597" 
d="M341 60h-152l27 190h-171l13 95h171l24 171h152l-24 -171h171l-14 -95h-170z" />
    <glyph glyph-name="multiply" unicode="&#xd7;" horiz-adv-x="517" 
d="M364 63l-110 124l-140 -124l-81 91l141 122l-108 121l91 78l110 -117l135 117l83 -83l-136 -121l111 -117z" />
    <glyph glyph-name="divide" unicode="&#xf7;" horiz-adv-x="535" 
d="M237 482h142l-18 -108h-142zM490 325h-432l-13 -94h431zM183 168h142l-19 -108h-142z" />
    <glyph glyph-name="equal" unicode="=" horiz-adv-x="537" 
d="M478 353h-401l13 93h402zM446 190h-401l13 93h402z" />
    <glyph glyph-name="greater" unicode="&#x3e;" horiz-adv-x="557" 
d="M54 87l20 157l261 103l-231 103l20 148l377 -191l-18 -129z" />
    <glyph glyph-name="less" unicode="&#x3c;" horiz-adv-x="558" 
d="M454 235l-22 -148l-376 191l18 129l430 191l-22 -157l-260 -103z" />
    <glyph glyph-name="asciitilde" unicode="~" horiz-adv-x="621" 
d="M428 293l158 48l-17 -124l-158 -45l-213 72l-163 -46l17 124l159 47z" />
    <glyph glyph-name="asciicircum" unicode="^" horiz-adv-x="600" 
d="M456 460h-119l-49 84l-62 -84h-117l132 166h105z" />
    <glyph glyph-name="percent" unicode="%" horiz-adv-x="740" 
d="M636 77h-265l30 215l-204 -234h-152l282 323h-255l32 228h265l-30 -215l185 212l-19 22h190l-282 -323h255zM196 457h38l10 76h-38zM544 229h-38l-11 -76h38z" />
    <glyph glyph-name="perthousand" unicode="&#x2030;" horiz-adv-x="1014" 
d="M636 77h-265l30 215l-204 -234h-152l282 323h-255l32 228h265l-30 -215l185 212l-19 22h190l-282 -323h253zM196 457h38l10 76h-38zM674 77l32 228h263l-30 -228h-265zM544 229h-38l-11 -76h38zM798 153h38l11 76h-38z" />
    <glyph glyph-name="at" unicode="@" horiz-adv-x="755" 
d="M651 592q28 0 45 -20t13 -49l-44 -311h-437l32 228h266l-21 -152h38l30 209h-342l-49 -342h475l-12 -95h-541q-28 0 -45 19.5t-13 48.5l65 464h540zM363 364l-10 -76h38l10 76h-38z" />
    <glyph glyph-name="ampersand" unicode="&#x26;" horiz-adv-x="625" 
d="M102 422l26 140q6 35 27 49.5t53 14.5h299l-37 -204l-108 -74l61 -51l57 75l100 -10l-88 -124l90 -78l-90 -79l-68 61l-58 -82h-262q-37 0 -49.5 17.5t-7.5 47.5l26 139l117 81zM374 534h-134l-13 -72l60 -51l74 51zM265 281l-82 -57l-13 -72h143l40 53z" />
    <glyph glyph-name="minute" unicode="&#x2032;" horiz-adv-x="1000" 
d="M139 482h-94l70 203h113z" />
    <glyph glyph-name="second" unicode="&#x2033;" horiz-adv-x="600" 
d="M45 482l70 203h113l-89 -203h-94z" />
    <glyph glyph-name="bar" unicode="|" horiz-adv-x="339" 
d="M289 685l-114 -835h-125l114 835h125z" />
    <glyph glyph-name="uniE796" unicode="&#xe796;" horiz-adv-x="1000" 
d="M825 626l-21 -152h-154l21 152h154zM795 414l-21 -152h-154l21 152h154zM765 196l-21 -152h-154l21 152h154z" />
    <glyph glyph-name="Aacute" unicode="&#xc1;" horiz-adv-x="764" 
d="M321 795l120 170l66 -58l-160 -134zM754 -20h-222v20l56 30l-67 175h-324l-67 -175l57 -30v-20h-167v20l65 30l262 673l70 12l269 -685l68 -30v-20zM360 628l-151 -393h301z" />
    <glyph glyph-name="Acircumflex" unicode="&#xc2;" horiz-adv-x="764" 
d="M242 795l120 170h26l120 -170l-26 -22l-107 100l-107 -100zM754 -20h-222v20l56 30l-67 175h-324l-67 -175l57 -30v-20h-167v20l65 30l262 673l70 12l269 -685l68 -30v-20zM360 628l-151 -393h301z" />
    <glyph glyph-name="Agrave" unicode="&#xc0;" horiz-adv-x="764" 
d="M247 907l66 58l120 -170l-26 -22zM754 -20h-222v20l56 30l-67 175h-324l-67 -175l57 -30v-20h-167v20l65 30l262 673l70 12l269 -685l68 -30v-20zM360 628l-151 -393h301z" />
    <glyph glyph-name="Atilde" unicode="&#xc3;" horiz-adv-x="764" 
d="M315 876q-32 0 -49.5 -24.5t-21.5 -60.5h-28q1 69 27.5 111t83.5 42q26 0 44 -14.5t32.5 -32.5t28.5 -32.5t33 -14.5q33 0 50.5 25t20.5 60h28q0 -69 -27 -110.5t-84 -41.5q-27 0 -44.5 14.5t-32 32t-28.5 32t-33 14.5zM754 -20h-222v20l56 30l-67 175h-324l-67 -175
l57 -30v-20h-167v20l65 30l262 673l70 12l269 -685l68 -30v-20zM360 628l-151 -393h301z" />
    <glyph glyph-name="Ccedilla" unicode="&#xc7;" horiz-adv-x="709" 
d="M657 68q-14 -17 -36 -33.5t-50 -30t-59.5 -22.5t-65.5 -12l-14 -41q38 -1 64 -21t26 -50q0 -27 -13 -48.5t-35.5 -37t-51.5 -25.5t-62 -14l-11 24q48 16 69.5 38t21.5 55q0 22 -18.5 35t-47.5 13l23 70q-80 3 -143.5 33t-107.5 80t-67.5 118t-23.5 147q0 78 26 145.5
t74 117t116 78t151 28.5q57 0 112 -9.5t121 -26.5l-6 -145h-25l-39 94q-16 12 -37 21.5t-44.5 16.5t-47 10.5t-44.5 3.5q-70 0 -119 -32.5t-80.5 -82.5t-46 -110t-14.5 -116q0 -62 18.5 -117.5t54.5 -97.5t88.5 -66.5t120.5 -24.5q60 0 114 16.5t97 47.5l12 -29v0z" />
    <glyph glyph-name="Eacute" unicode="&#xc9;" horiz-adv-x="575" 
d="M271 795l120 170l66 -58l-160 -134zM115 30v623l-74 30v20h483l-6 -129h-25l-40 99h-247v-300h203l30 65h25v-160h-25l-30 65h-203v-333h269l39 120h25l6 -150h-504v20z" />
    <glyph glyph-name="Ecircumflex" unicode="&#xca;" horiz-adv-x="575" 
d="M413 773l-107 100l-107 -100l-26 22l120 170h26l120 -170zM115 30v623l-74 30v20h483l-6 -129h-25l-40 99h-247v-300h203l30 65h25v-160h-25l-30 65h-203v-333h269l39 120h25l6 -150h-504v20z" />
    <glyph glyph-name="Edieresis" unicode="&#xcb;" horiz-adv-x="575" 
d="M146 868q0 24 17.5 41.5t41.5 17.5q23 0 40.5 -17.5t17.5 -41.5q0 -23 -17.5 -40.5t-40.5 -17.5q-24 0 -41.5 17.5t-17.5 40.5zM346 868q0 24 17.5 41.5t41.5 17.5q23 0 40.5 -17.5t17.5 -41.5q0 -23 -17.5 -40.5t-40.5 -17.5q-24 0 -41.5 17.5t-17.5 40.5zM115 30v623
l-74 30v20h483l-6 -129h-25l-40 99h-247v-300h203l30 65h25v-160h-25l-30 65h-203v-333h269l39 120h25l6 -150h-504v20z" />
    <glyph glyph-name="Egrave" unicode="&#xc8;" horiz-adv-x="575" 
d="M337 773l-160 134l66 58l120 -170zM115 30v623l-74 30v20h483l-6 -129h-25l-40 99h-247v-300h203l30 65h25v-160h-25l-30 65h-203v-333h269l39 120h25l6 -150h-504v20z" />
    <glyph glyph-name="Iacute" unicode="&#xcd;" horiz-adv-x="326" 
d="M110 795l120 170l66 -58l-160 -134zM282 -20h-239v20l74 30v623l-74 30v20h239v-20l-74 -30v-623l74 -30v-20z" />
    <glyph glyph-name="Icircumflex" unicode="&#xce;" horiz-adv-x="326" 
d="M270 773l-107 100l-107 -100l-26 22l120 170h26l120 -170zM282 -20h-239v20l74 30v623l-74 30v20h239v-20l-74 -30v-623l74 -30v-20z" />
    <glyph glyph-name="Idieresis" unicode="&#xcf;" horiz-adv-x="326" 
d="M4 868q0 24 17.5 41.5t41.5 17.5q23 0 40.5 -17.5t17.5 -41.5q0 -23 -17.5 -40.5t-40.5 -17.5q-24 0 -41.5 17.5t-17.5 40.5zM204 868q0 24 17.5 41.5t41.5 17.5q23 0 40.5 -17.5t17.5 -41.5q0 -23 -17.5 -40.5t-40.5 -17.5q-24 0 -41.5 17.5t-17.5 40.5zM282 -20h-239
v20l74 30v623l-74 30v20h239v-20l-74 -30v-623l74 -30v-20z" />
    <glyph glyph-name="Igrave" unicode="&#xcc;" horiz-adv-x="326" 
d="M190 773l-160 134l66 58l120 -170zM282 -20h-239v20l74 30v623l-74 30v20h239v-20l-74 -30v-623l74 -30v-20z" />
    <glyph glyph-name="Oacute" unicode="&#xd3;" horiz-adv-x="829" 
d="M363 795l120 170l66 -58l-160 -134zM415 -32q-82 0 -148.5 30t-113.5 81t-72.5 119t-25.5 144t25.5 144t72.5 119t113.5 80.5t148.5 29.5t148.5 -29.5t113.5 -80.5t72 -119t25 -144t-25.5 -144t-72 -119t-113 -81t-148.5 -30zM415 1q67 0 116 30t81.5 78t48.5 109t16 124
t-16 124t-48.5 109t-81.5 77.5t-116 29.5t-116.5 -29.5t-82 -77.5t-48.5 -109t-16 -124t16 -124t48.5 -109t82 -78t116.5 -30z" />
    <glyph glyph-name="Ocircumflex" unicode="&#xd4;" horiz-adv-x="829" 
d="M522 773l-107 100l-107 -100l-26 22l120 170h26l120 -170zM415 -32q-82 0 -148.5 30t-113.5 81t-72.5 119t-25.5 144t25.5 144t72.5 119t113.5 80.5t148.5 29.5t148.5 -29.5t113.5 -80.5t72 -119t25 -144t-25.5 -144t-72 -119t-113 -81t-148.5 -30zM415 1q67 0 116 30
t81.5 78t48.5 109t16 124t-16 124t-48.5 109t-81.5 77.5t-116 29.5t-116.5 -29.5t-82 -77.5t-48.5 -109t-16 -124t16 -124t48.5 -109t82 -78t116.5 -30z" />
    <glyph glyph-name="Odieresis" unicode="&#xd6;" horiz-adv-x="829" 
d="M256 868q0 24 17.5 41.5t41.5 17.5q23 0 40.5 -17.5t17.5 -41.5q0 -23 -17.5 -40.5t-40.5 -17.5q-24 0 -41.5 17.5t-17.5 40.5zM456 868q0 24 17.5 41.5t41.5 17.5q23 0 40.5 -17.5t17.5 -41.5q0 -23 -17.5 -40.5t-40.5 -17.5q-24 0 -41.5 17.5t-17.5 40.5zM415 -32
q-82 0 -148.5 30t-113.5 81t-72.5 119t-25.5 144t25.5 144t72.5 119t113.5 80.5t148.5 29.5t148.5 -29.5t113.5 -80.5t72 -119t25 -144t-25.5 -144t-72 -119t-113 -81t-148.5 -30zM415 1q67 0 116 30t81.5 78t48.5 109t16 124t-16 124t-48.5 109t-81.5 77.5t-116 29.5
t-116.5 -29.5t-82 -77.5t-48.5 -109t-16 -124t16 -124t48.5 -109t82 -78t116.5 -30z" />
    <glyph glyph-name="Ograve" unicode="&#xd2;" horiz-adv-x="829" 
d="M445 773l-160 134l66 58l120 -170zM415 -32q-82 0 -148.5 30t-113.5 81t-72.5 119t-25.5 144t25.5 144t72.5 119t113.5 80.5t148.5 29.5t148.5 -29.5t113.5 -80.5t72 -119t25 -144t-25.5 -144t-72 -119t-113 -81t-148.5 -30zM415 1q67 0 116 30t81.5 78t48.5 109t16 124
t-16 124t-48.5 109t-81.5 77.5t-116 29.5t-116.5 -29.5t-82 -77.5t-48.5 -109t-16 -124t16 -124t48.5 -109t82 -78t116.5 -30z" />
    <glyph glyph-name="Otilde" unicode="&#xd5;" horiz-adv-x="829" 
d="M357 944q26 0 44 -14.5t32.5 -32.5t28.5 -32.5t33 -14.5q33 0 50.5 25t20.5 60h28q0 -69 -27 -110.5t-84 -41.5q-27 0 -44.5 14.5t-32 32t-28.5 32t-33 14.5q-32 0 -49.5 -24.5t-21.5 -60.5h-28q1 69 27.5 111t83.5 42zM415 -32q-82 0 -148.5 30t-113.5 81t-72.5 119
t-25.5 144t25.5 144t72.5 119t113.5 80.5t148.5 29.5t148.5 -29.5t113.5 -80.5t72 -119t25 -144t-25.5 -144t-72 -119t-113 -81t-148.5 -30zM415 1q67 0 116 30t81.5 78t48.5 109t16 124t-16 124t-48.5 109t-81.5 77.5t-116 29.5t-116.5 -29.5t-82 -77.5t-48.5 -109
t-16 -124t16 -124t48.5 -109t82 -78t116.5 -30z" />
    <glyph glyph-name="Scaron" unicode="&#x160;" horiz-adv-x="551" 
d="M176 965l107 -100l107 100l26 -22l-120 -170h-26l-120 170zM133 49q31 -20 60 -35.5t67 -15.5q34 0 63 9t50 26.5t32.5 44t11.5 61.5q0 34 -13.5 60t-35 46.5t-48 36.5t-52.5 31q-33 18 -67 37.5t-62 43.5t-46 55t-18 74t17.5 78.5t46 60.5t66 39t78.5 14q47 0 93 -8
t91 -22l-6 -112h-25l-39 73q-29 17 -55.5 28t-59.5 11q-29 0 -51.5 -11.5t-38.5 -30.5t-24.5 -44t-8.5 -53q0 -30 12.5 -51.5t32.5 -38.5t43.5 -30.5t46.5 -26.5q36 -21 73 -43t67.5 -49t49.5 -62t19 -82q0 -49 -19.5 -85.5t-52 -61t-75 -36.5t-88.5 -12q-52 0 -103.5 9.5
t-101.5 23.5l6 141h25z" />
    <glyph glyph-name="Uacute" unicode="&#xda;" horiz-adv-x="741" 
d="M319 795l120 170l66 -58l-160 -134zM35 703h239v-20l-74 -30v-392q0 -47 9.5 -94t32 -84.5t60 -61t93.5 -23.5q58 0 95.5 21t59.5 56t30.5 80.5t8.5 95.5v402l-74 30v20h206v-20l-74 -30v-376q0 -66 -12.5 -122.5t-42.5 -98t-80.5 -65t-126.5 -23.5q-71 0 -123 21
t-86 59.5t-50.5 92.5t-16.5 120v392l-74 30v20z" />
    <glyph glyph-name="Ucircumflex" unicode="&#xdb;" horiz-adv-x="741" 
d="M503 773l-107 100l-107 -100l-26 22l120 170h26l120 -170zM35 703h239v-20l-74 -30v-392q0 -47 9.5 -94t32 -84.5t60 -61t93.5 -23.5q58 0 95.5 21t59.5 56t30.5 80.5t8.5 95.5v402l-74 30v20h206v-20l-74 -30v-376q0 -66 -12.5 -122.5t-42.5 -98t-80.5 -65t-126.5 -23.5
q-71 0 -123 21t-86 59.5t-50.5 92.5t-16.5 120v392l-74 30v20z" />
    <glyph glyph-name="Udieresis" unicode="&#xdc;" horiz-adv-x="741" 
d="M236 868q0 24 17.5 41.5t41.5 17.5q23 0 40.5 -17.5t17.5 -41.5q0 -23 -17.5 -40.5t-40.5 -17.5q-24 0 -41.5 17.5t-17.5 40.5zM436 868q0 24 17.5 41.5t41.5 17.5q23 0 40.5 -17.5t17.5 -41.5q0 -23 -17.5 -40.5t-40.5 -17.5q-24 0 -41.5 17.5t-17.5 40.5zM35 703h239
v-20l-74 -30v-392q0 -47 9.5 -94t32 -84.5t60 -61t93.5 -23.5q58 0 95.5 21t59.5 56t30.5 80.5t8.5 95.5v402l-74 30v20h206v-20l-74 -30v-376q0 -66 -12.5 -122.5t-42.5 -98t-80.5 -65t-126.5 -23.5q-71 0 -123 21t-86 59.5t-50.5 92.5t-16.5 120v392l-74 30v20z" />
    <glyph glyph-name="Ugrave" unicode="&#xd9;" horiz-adv-x="741" 
d="M434 773l-160 134l66 58l120 -170zM35 703h239v-20l-74 -30v-392q0 -47 9.5 -94t32 -84.5t60 -61t93.5 -23.5q58 0 95.5 21t59.5 56t30.5 80.5t8.5 95.5v402l-74 30v20h206v-20l-74 -30v-376q0 -66 -12.5 -122.5t-42.5 -98t-80.5 -65t-126.5 -23.5q-71 0 -123 21
t-86 59.5t-50.5 92.5t-16.5 120v392l-74 30v20z" />
    <glyph glyph-name="Yacute" unicode="&#xdd;" horiz-adv-x="670" 
d="M291 795l120 170l66 -58l-160 -134zM6 703h228v-20l-51 -30l180 -304l180 304l-56 30v20h172v-20l-68 -30l-211 -352v-271l74 -30v-20h-239v20l74 30v271l-215 352l-68 30v20z" />
    <glyph glyph-name="Yacute" unicode="&#xfd;" horiz-adv-x="670" 
d="M291 795l120 170l66 -58l-160 -134zM6 703h228v-20l-51 -30l180 -304l180 304l-56 30v20h172v-20l-68 -30l-211 -352v-271l74 -30v-20h-239v20l74 30v271l-215 352l-68 30v20z" />
    <glyph glyph-name="Ydieresis" unicode="&#xff;" horiz-adv-x="670" 
d="M179 848q0 24 17.5 41.5t41.5 17.5q23 0 40.5 -17.5t17.5 -41.5q0 -23 -17.5 -40.5t-40.5 -17.5q-24 0 -41.5 17.5t-17.5 40.5zM379 848q0 24 17.5 41.5t41.5 17.5q23 0 40.5 -17.5t17.5 -41.5q0 -23 -17.5 -40.5t-40.5 -17.5q-24 0 -41.5 17.5t-17.5 40.5zM6 703h233
v-20l-56 -30l180 -304l180 304l-61 30v20h182v-20l-73 -30l-211 -352v-271l84 -30v-20h-254v20l84 30v271l-215 352l-73 30v20z" />
    <glyph glyph-name="Ydieresis" unicode="&#x178;" horiz-adv-x="670" 
d="M179 848q0 24 17.5 41.5t41.5 17.5q23 0 40.5 -17.5t17.5 -41.5q0 -23 -17.5 -40.5t-40.5 -17.5q-24 0 -41.5 17.5t-17.5 40.5zM379 848q0 24 17.5 41.5t41.5 17.5q23 0 40.5 -17.5t17.5 -41.5q0 -23 -17.5 -40.5t-40.5 -17.5q-24 0 -41.5 17.5t-17.5 40.5zM6 703h233
v-20l-56 -30l180 -304l180 304l-61 30v20h182v-20l-73 -30l-211 -352v-271l84 -30v-20h-254v20l84 30v271l-215 352l-73 30v20z" />
    <glyph glyph-name="Zcaron" unicode="&#x17d;" horiz-adv-x="584" 
d="M200 965l107 -100l107 100l26 -22l-120 -170h-26l-120 170zM118 670l-39 -99h-25l-6 132h505v-48l-424 -642h360l39 120h25l6 -153h-529v48l426 642h-338z" />
    <glyph glyph-name="aacute" unicode="&#xe1;" horiz-adv-x="561" 
d="M200 572l120 170l66 -58l-160 -134zM360 296q0 28 -4.5 57.5t-16.5 53.5t-33.5 39.5t-55.5 15.5q-27 0 -51 -18.5t-38 -39.5l-45 -66h-25l-6 109q46 21 92.5 33t97.5 12q86 0 128.5 -45t42.5 -126v-285l79 -6v-20l-115 -42q-29 0 -39.5 23.5t-10.5 71.5q-32 -37 -71 -66
t-90 -29q-32 0 -60 8.5t-49 25t-33 41.5t-12 57q0 53 27 87.5t70 54.5t97.5 28t108.5 8h12v18zM346 248q-33 0 -70 -8t-68 -24.5t-51 -42t-20 -59.5q0 -41 25.5 -62t61.5 -21q17 0 36 5.5t37 14.5t34.5 20t28.5 22v155h-14z" />
    <glyph glyph-name="acircumflex" unicode="&#xe2;" horiz-adv-x="561" 
d="M367 550l-107 100l-107 -100l-26 22l120 170h26l120 -170zM360 296q0 28 -4.5 57.5t-16.5 53.5t-33.5 39.5t-55.5 15.5q-27 0 -51 -18.5t-38 -39.5l-45 -66h-25l-6 109q46 21 92.5 33t97.5 12q86 0 128.5 -45t42.5 -126v-285l79 -6v-20l-115 -42q-29 0 -39.5 23.5
t-10.5 71.5q-32 -37 -71 -66t-90 -29q-32 0 -60 8.5t-49 25t-33 41.5t-12 57q0 53 27 87.5t70 54.5t97.5 28t108.5 8h12v18zM346 248q-33 0 -70 -8t-68 -24.5t-51 -42t-20 -59.5q0 -41 25.5 -62t61.5 -21q17 0 36 5.5t37 14.5t34.5 20t28.5 22v155h-14z" />
    <glyph glyph-name="adieresis" unicode="&#xe4;" horiz-adv-x="561" 
d="M104 638q0 24 17.5 41.5t41.5 17.5q23 0 40.5 -17.5t17.5 -41.5q0 -23 -17.5 -40.5t-40.5 -17.5q-24 0 -41.5 17.5t-17.5 40.5zM304 638q0 24 17.5 41.5t41.5 17.5q23 0 40.5 -17.5t17.5 -41.5q0 -23 -17.5 -40.5t-40.5 -17.5q-24 0 -41.5 17.5t-17.5 40.5zM360 296
q0 28 -4.5 57.5t-16.5 53.5t-33.5 39.5t-55.5 15.5q-27 0 -51 -18.5t-38 -39.5l-45 -66h-25l-6 109q46 21 92.5 33t97.5 12q86 0 128.5 -45t42.5 -126v-285l79 -6v-20l-115 -42q-29 0 -39.5 23.5t-10.5 71.5q-32 -37 -71 -66t-90 -29q-32 0 -60 8.5t-49 25t-33 41.5t-12 57
q0 53 27 87.5t70 54.5t97.5 28t108.5 8h12v18zM346 248q-33 0 -70 -8t-68 -24.5t-51 -42t-20 -59.5q0 -41 25.5 -62t61.5 -21q17 0 36 5.5t37 14.5t34.5 20t28.5 22v155h-14z" />
    <glyph glyph-name="agrave" unicode="&#xe0;" horiz-adv-x="561" 
d="M298 550l-160 134l66 58l120 -170zM360 296q0 28 -4.5 57.5t-16.5 53.5t-33.5 39.5t-55.5 15.5q-27 0 -51 -18.5t-38 -39.5l-45 -66h-25l-6 109q46 21 92.5 33t97.5 12q86 0 128.5 -45t42.5 -126v-285l79 -6v-20l-115 -42q-29 0 -39.5 23.5t-10.5 71.5q-32 -37 -71 -66
t-90 -29q-32 0 -60 8.5t-49 25t-33 41.5t-12 57q0 53 27 87.5t70 54.5t97.5 28t108.5 8h12v18zM346 248q-33 0 -70 -8t-68 -24.5t-51 -42t-20 -59.5q0 -41 25.5 -62t61.5 -21q17 0 36 5.5t37 14.5t34.5 20t28.5 22v155h-14z" />
    <glyph glyph-name="amacron" unicode="&#x101;" horiz-adv-x="561" 
d="M378 614h-243v54h243v-54zM360 296q0 28 -4.5 57.5t-16.5 53.5t-33.5 39.5t-55.5 15.5q-27 0 -51 -18.5t-38 -39.5l-45 -66h-25l-6 109q46 21 92.5 33t97.5 12q86 0 128.5 -45t42.5 -126v-285l79 -6v-20l-115 -42q-29 0 -39.5 23.5t-10.5 71.5q-32 -37 -71 -66t-90 -29
q-32 0 -60 8.5t-49 25t-33 41.5t-12 57q0 53 27 87.5t70 54.5t97.5 28t108.5 8h12v18zM346 248q-33 0 -70 -8t-68 -24.5t-51 -42t-20 -59.5q0 -41 25.5 -62t61.5 -21q17 0 36 5.5t37 14.5t34.5 20t28.5 22v155h-14z" />
    <glyph glyph-name="atilde" unicode="&#xe3;" horiz-adv-x="561" 
d="M205 721q26 0 44 -15.5t32.5 -34t28.5 -34t33 -15.5q33 0 50.5 27.5t20.5 62.5h28q0 -69 -27 -110.5t-84 -41.5q-27 0 -44.5 15.5t-32 33.5t-28.5 33.5t-33 15.5q-32 0 -49.5 -27t-21.5 -63h-28q1 69 27.5 111t83.5 42zM360 296q0 28 -4.5 57.5t-16.5 53.5t-33.5 39.5
t-55.5 15.5q-27 0 -51 -18.5t-38 -39.5l-45 -66h-25l-6 109q46 21 92.5 33t97.5 12q86 0 128.5 -45t42.5 -126v-285l79 -6v-20l-115 -42q-29 0 -39.5 23.5t-10.5 71.5q-32 -37 -71 -66t-90 -29q-32 0 -60 8.5t-49 25t-33 41.5t-12 57q0 53 27 87.5t70 54.5t97.5 28t108.5 8
h12v18zM346 248q-33 0 -70 -8t-68 -24.5t-51 -42t-20 -59.5q0 -41 25.5 -62t61.5 -21q17 0 36 5.5t37 14.5t34.5 20t28.5 22v155h-14z" />
    <glyph glyph-name="ccedilla" unicode="&#xe7;" horiz-adv-x="522" 
d="M474 48q-8 -14 -22.5 -26.5t-33 -23t-40.5 -18t-44 -10.5l-14 -41q38 -1 64 -21t26 -50q0 -27 -13 -48.5t-35.5 -37t-51.5 -25.5t-62 -14l-11 24q48 16 69.5 40t21.5 53q0 22 -18.5 35t-47.5 13l23 71q-53 4 -95.5 23t-71.5 51.5t-44.5 77.5t-15.5 99q0 57 16.5 107
t48 86.5t78 57.5t107.5 21q41 0 80.5 -6.5t79.5 -17.5l-6 -113h-25l-39 66q-5 7 -14 14t-20 12.5t-22.5 8.5t-21.5 3q-44 0 -76 -20.5t-53 -53t-31 -71t-10 -74.5q0 -42 11 -80t34 -67.5t57.5 -47t81.5 -17.5q33 0 67 10.5t63 36.5l10 -27v0z" />
    <glyph glyph-name="eacute" unicode="&#xe9;" horiz-adv-x="547" 
d="M208 572l120 170l66 -58l-160 -134zM150 252q-4 -45 6.5 -85t34 -70t58 -47.5t77.5 -17.5q40 0 75.5 15t67.5 44l16 -22q-9 -17 -26 -35t-39.5 -32.5t-50 -24t-57.5 -9.5q-62 0 -109.5 19.5t-79.5 54t-48.5 81.5t-16.5 103q0 53 15 101.5t45 85t74 58t101 21.5
q54 0 91.5 -18.5t61 -50t33.5 -73t10 -87.5v-11h-339zM397 282q0 30 -4.5 61.5t-17.5 58t-35 43.5t-56 17q-32 0 -55.5 -18.5t-39.5 -45.5t-24 -58.5t-9 -57.5h241z" />
    <glyph glyph-name="ecaron" unicode="&#x11b;" horiz-adv-x="547" 
d="M177 742l107 -100l107 100l26 -22l-120 -170h-26l-120 170zM150 252q-4 -45 6.5 -85t34 -70t58 -47.5t77.5 -17.5q40 0 75.5 15t67.5 44l16 -22q-9 -17 -26 -35t-39.5 -32.5t-50 -24t-57.5 -9.5q-62 0 -109.5 19.5t-79.5 54t-48.5 81.5t-16.5 103q0 53 15 101.5t45 85
t74 58t101 21.5q54 0 91.5 -18.5t61 -50t33.5 -73t10 -87.5v-11h-339zM397 282q0 30 -4.5 61.5t-17.5 58t-35 43.5t-56 17q-32 0 -55.5 -18.5t-39.5 -45.5t-24 -58.5t-9 -57.5h241z" />
    <glyph glyph-name="ecircumflex" unicode="&#xea;" horiz-adv-x="547" 
d="M391 550l-107 100l-107 -100l-26 22l120 170h26l120 -170zM150 252q-4 -45 6.5 -85t34 -70t58 -47.5t77.5 -17.5q40 0 75.5 15t67.5 44l16 -22q-9 -17 -26 -35t-39.5 -32.5t-50 -24t-57.5 -9.5q-62 0 -109.5 19.5t-79.5 54t-48.5 81.5t-16.5 103q0 53 15 101.5t45 85
t74 58t101 21.5q54 0 91.5 -18.5t61 -50t33.5 -73t10 -87.5v-11h-339zM397 282q0 30 -4.5 61.5t-17.5 58t-35 43.5t-56 17q-32 0 -55.5 -18.5t-39.5 -45.5t-24 -58.5t-9 -57.5h241z" />
    <glyph glyph-name="edieresis" unicode="&#xeb;" horiz-adv-x="549" 
d="M120 638q0 24 17.5 41.5t41.5 17.5q23 0 40.5 -17.5t17.5 -41.5q0 -23 -17.5 -40.5t-40.5 -17.5q-24 0 -41.5 17.5t-17.5 40.5zM320 638q0 24 17.5 41.5t41.5 17.5q23 0 40.5 -17.5t17.5 -41.5q0 -23 -17.5 -40.5t-40.5 -17.5q-24 0 -41.5 17.5t-17.5 40.5zM150 252
q-4 -45 6.5 -85t34 -70t58 -47.5t77.5 -17.5q40 0 75.5 15t67.5 44l16 -22q-9 -17 -26 -35t-39.5 -32.5t-50 -24t-57.5 -9.5q-62 0 -109.5 19.5t-79.5 54t-48.5 81.5t-16.5 103q0 53 15 101.5t45 85t74 58t101 21.5q54 0 91.5 -18.5t61 -50t33.5 -73t10 -87.5v-11h-339z
M397 282q0 30 -4.5 61.5t-17.5 58t-35 43.5t-56 17q-32 0 -55.5 -18.5t-39.5 -45.5t-24 -58.5t-9 -57.5h241z" />
    <glyph glyph-name="egrave" unicode="&#xe8;" horiz-adv-x="547" 
d="M326 550l-160 134l66 58l120 -170zM150 252q-4 -45 6.5 -85t34 -70t58 -47.5t77.5 -17.5q40 0 75.5 15t67.5 44l16 -22q-9 -17 -26 -35t-39.5 -32.5t-50 -24t-57.5 -9.5q-62 0 -109.5 19.5t-79.5 54t-48.5 81.5t-16.5 103q0 53 15 101.5t45 85t74 58t101 21.5
q54 0 91.5 -18.5t61 -50t33.5 -73t10 -87.5v-11h-339zM397 282q0 30 -4.5 61.5t-17.5 58t-35 43.5t-56 17q-32 0 -55.5 -18.5t-39.5 -45.5t-24 -58.5t-9 -57.5h241z" />
    <glyph glyph-name="emacron" unicode="&#x113;" horiz-adv-x="547" 
d="M406 614h-243v54h243v-54zM150 252q-4 -45 6.5 -85t34 -70t58 -47.5t77.5 -17.5q40 0 75.5 15t67.5 44l16 -22q-9 -17 -26 -35t-39.5 -32.5t-50 -24t-57.5 -9.5q-62 0 -109.5 19.5t-79.5 54t-48.5 81.5t-16.5 103q0 53 15 101.5t45 85t74 58t101 21.5q54 0 91.5 -18.5
t61 -50t33.5 -73t10 -87.5v-11h-339zM397 282q0 30 -4.5 61.5t-17.5 58t-35 43.5t-56 17q-32 0 -55.5 -18.5t-39.5 -45.5t-24 -58.5t-9 -57.5h241z" />
    <glyph glyph-name="iacute" unicode="&#xed;" horiz-adv-x="326" 
d="M120 572l120 170l66 -58l-160 -134zM280 -20h-234v20l74 30v400l-54 30v20l140 10v-460l74 -30v-20z" />
    <glyph glyph-name="icircumflex" unicode="&#xee;" horiz-adv-x="326" 
d="M265 550l-107 100l-107 -100l-26 22l120 170h26l120 -170zM280 -20h-234v20l74 30v400l-54 30v20l140 10v-460l74 -30v-20z" />
    <glyph glyph-name="idieresis" unicode="&#xef;" horiz-adv-x="326" 
d="M4 638q0 24 17.5 41.5t41.5 17.5q23 0 40.5 -17.5t17.5 -41.5q0 -23 -17.5 -40.5t-40.5 -17.5q-24 0 -41.5 17.5t-17.5 40.5zM204 638q0 24 17.5 41.5t41.5 17.5q23 0 40.5 -17.5t17.5 -41.5q0 -23 -17.5 -40.5t-40.5 -17.5q-24 0 -41.5 17.5t-17.5 40.5zM280 -20h-234
v20l74 30v400l-54 30v20l140 10v-460l74 -30v-20z" />
    <glyph glyph-name="igrave" unicode="&#xec;" horiz-adv-x="326" 
d="M180 550l-160 134l66 58l120 -170zM280 -20h-234v20l74 30v400l-54 30v20l140 10v-460l74 -30v-20z" />
    <glyph glyph-name="imacron" unicode="&#x12b;" horiz-adv-x="326" 
d="M272 614h-243v54h243v-54zM290 -20h-254v20l84 30v400l-64 30v20l150 10v-460l84 -30v-20z" />
    <glyph glyph-name="nacute" unicode="&#x144;" horiz-adv-x="674" 
d="M287 572l120 170l66 -58l-160 -134zM56 480l150 10v-124q14 23 35.5 45.5t47 40.5t53 29t54.5 11q40 0 70 -15t49.5 -40t29 -57.5t9.5 -68.5v-281l84 -30v-20h-254v20l84 30v266q0 25 -3 51t-13 47t-29 34.5t-50 13.5q-49 0 -91 -31.5t-76 -74.5v-306l84 -30v-20h-254v20
l84 30v400l-64 30v20z" />
    <glyph glyph-name="ncaron" unicode="&#x148;" horiz-adv-x="674" 
d="M235 742l107 -100l107 100l26 -22l-120 -170h-26l-120 170zM56 480l150 10v-124q14 23 35.5 45.5t47 40.5t53 29t54.5 11q40 0 70 -15t49.5 -40t29 -57.5t9.5 -68.5v-281l84 -30v-20h-254v20l84 30v266q0 25 -3 51t-13 47t-29 34.5t-50 13.5q-49 0 -91 -31.5t-76 -74.5
v-306l84 -30v-20h-254v20l84 30v400l-64 30v20z" />
    <glyph glyph-name="oacute" unicode="&#xf3;" horiz-adv-x="622" 
d="M251 572l120 170l66 -58l-160 -134zM312 492q61 0 108 -20t79 -55t48.5 -83t16.5 -104t-16.5 -104t-48.5 -83t-79 -55t-108 -20t-108 20t-79.5 55t-49.5 83t-17 104t17 104t49.5 83t79.5 55t108 20zM312 462q-42 0 -72.5 -22t-50.5 -56t-29.5 -75t-9.5 -79t9.5 -79
t29.5 -75t50.5 -56t72.5 -22t72 22t49.5 56t29 75t9.5 79t-9.5 79t-29 75t-49.5 56t-72 22z" />
    <glyph glyph-name="ocircumflex" unicode="&#xf4;" horiz-adv-x="622" 
d="M419 550l-107 90l-107 -90l-26 22l120 160h26l120 -160zM312 492q61 0 108 -20t79 -55t48.5 -83t16.5 -104t-16.5 -104t-48.5 -83t-79 -55t-108 -20t-108 20t-79.5 55t-49.5 83t-17 104t17 104t49.5 83t79.5 55t108 20zM312 462q-42 0 -72.5 -22t-50.5 -56t-29.5 -75
t-9.5 -79t9.5 -79t29.5 -75t50.5 -56t72.5 -22t72 22t49.5 56t29 75t9.5 79t-9.5 79t-29 75t-49.5 56t-72 22z" />
    <glyph glyph-name="odieresis" unicode="&#xf6;" horiz-adv-x="622" 
d="M153 638q0 24 17.5 41.5t41.5 17.5q23 0 40.5 -17.5t17.5 -41.5q0 -23 -17.5 -40.5t-40.5 -17.5q-24 0 -41.5 17.5t-17.5 40.5zM353 638q0 24 17.5 41.5t41.5 17.5q23 0 40.5 -17.5t17.5 -41.5q0 -23 -17.5 -40.5t-40.5 -17.5q-24 0 -41.5 17.5t-17.5 40.5zM312 492
q61 0 108 -20t79 -55t48.5 -83t16.5 -104t-16.5 -104t-48.5 -83t-79 -55t-108 -20t-108 20t-79.5 55t-49.5 83t-17 104t17 104t49.5 83t79.5 55t108 20zM312 462q-42 0 -72.5 -22t-50.5 -56t-29.5 -75t-9.5 -79t9.5 -79t29.5 -75t50.5 -56t72.5 -22t72 22t49.5 56t29 75
t9.5 79t-9.5 79t-29 75t-49.5 56t-72 22z" />
    <glyph glyph-name="ograve" unicode="&#xf2;" horiz-adv-x="622" 
d="M347 550l-160 134l66 58l120 -170zM312 492q61 0 108 -20t79 -55t48.5 -83t16.5 -104t-16.5 -104t-48.5 -83t-79 -55t-108 -20t-108 20t-79.5 55t-49.5 83t-17 104t17 104t49.5 83t79.5 55t108 20zM312 462q-42 0 -72.5 -22t-50.5 -56t-29.5 -75t-9.5 -79t9.5 -79
t29.5 -75t50.5 -56t72.5 -22t72 22t49.5 56t29 75t9.5 79t-9.5 79t-29 75t-49.5 56t-72 22z" />
    <glyph glyph-name="omacron" unicode="&#x14d;" horiz-adv-x="622" 
d="M433 614h-243v54h243v-54zM312 492q63 0 110 -18.5t78.5 -53t47.5 -82.5t16 -108t-16 -108t-47.5 -82.5t-78.5 -53t-110 -18.5t-110.5 18.5t-79.5 53t-48 82.5t-16 108t16 108t48 82.5t79.5 53t110.5 18.5zM312 462q-42 0 -72.5 -22t-50.5 -56t-29.5 -75t-9.5 -79
t9.5 -79t29.5 -75t50.5 -56t72.5 -22t72 22t49.5 56t29 75t9.5 79t-9.5 79t-29 75t-49.5 56t-72 22z" />
    <glyph glyph-name="otilde" unicode="&#xf5;" horiz-adv-x="622" 
d="M251 721q26 0 44 -14.5t32.5 -32.5t28.5 -32.5t33 -14.5q33 0 50.5 25t20.5 60h28q0 -69 -27 -110.5t-84 -41.5q-27 0 -44.5 14.5t-32 32t-28.5 32t-33 14.5q-32 0 -49.5 -24.5t-21.5 -60.5h-28q1 69 27.5 111t83.5 42zM312 492q61 0 108 -20t79 -55t48.5 -83t16.5 -104
t-16.5 -104t-48.5 -83t-79 -55t-108 -20t-108 20t-79.5 55t-49.5 83t-17 104t17 104t49.5 83t79.5 55t108 20zM312 462q-42 0 -72.5 -22t-50.5 -56t-29.5 -75t-9.5 -79t9.5 -79t29.5 -75t50.5 -56t72.5 -22t72 22t49.5 56t29 75t9.5 79t-9.5 79t-29 75t-49.5 56t-72 22z" />
    <glyph glyph-name="scaron" unicode="&#x161;" horiz-adv-x="456" 
d="M111 742l107 -100l107 100l26 -22l-120 -170h-26l-120 170zM106 44q28 -21 53.5 -33.5t60.5 -12.5q23 0 44 5.5t36.5 16.5t24.5 29t9 43q0 24 -11.5 39.5t-29.5 27t-39 19t-40 14.5q-32 12 -63 23t-56 26.5t-40.5 40t-15.5 65.5q0 35 16 62t42 45.5t57.5 28t63.5 9.5
q86 0 164 -30l-6 -122h-28l-36 88q-23 16 -44 25t-49 9q-41 0 -70.5 -26.5t-29.5 -70.5q0 -25 15.5 -41t38 -26.5t47.5 -18t45 -15.5q28 -12 56 -22.5t50 -26t35.5 -38.5t13.5 -59q0 -42 -18 -70.5t-47.5 -46.5t-66 -25.5t-72.5 -7.5q-42 0 -92 10t-88 29l6 126h28z" />
    <glyph glyph-name="uacute" unicode="&#xfa;" horiz-adv-x="649" 
d="M272 572l120 170l66 -58l-160 -134zM498 -32q-24 0 -36.5 24.5t-13.5 86.5q-32 -48 -83.5 -79.5t-116.5 -31.5q-40 0 -68 15t-46 40t-26 57.5t-8 68.5v281l-54 30v20l140 10v-326q0 -25 3 -51t13 -47t29 -34.5t50 -13.5q23 0 46.5 7.5t46 20t41.5 29t33 34.5v321l-54 30
v20l140 10v-454l79 -6v-20z" />
    <glyph glyph-name="ucircumflex" unicode="&#xfb;" horiz-adv-x="649" 
d="M416 550l-107 100l-107 -100l-26 22l120 170h26l120 -170zM498 -32q-24 0 -36.5 24.5t-13.5 86.5q-32 -48 -83.5 -79.5t-116.5 -31.5q-40 0 -68 15t-46 40t-26 57.5t-8 68.5v281l-54 30v20l140 10v-326q0 -25 3 -51t13 -47t29 -34.5t50 -13.5q23 0 46.5 7.5t46 20
t41.5 29t33 34.5v321l-54 30v20l140 10v-454l79 -6v-20z" />
    <glyph glyph-name="udieresis" unicode="&#xfc;" horiz-adv-x="649" 
d="M163 638q0 24 17.5 41.5t41.5 17.5q23 0 40.5 -17.5t17.5 -41.5q0 -23 -17.5 -40.5t-40.5 -17.5q-24 0 -41.5 17.5t-17.5 40.5zM363 638q0 24 17.5 41.5t41.5 17.5q23 0 40.5 -17.5t17.5 -41.5q0 -23 -17.5 -40.5t-40.5 -17.5q-24 0 -41.5 17.5t-17.5 40.5zM498 -32
q-24 0 -36.5 24.5t-13.5 86.5q-32 -48 -83.5 -79.5t-116.5 -31.5q-40 0 -68 15t-46 40t-26 57.5t-8 68.5v281l-54 30v20l140 10v-326q0 -25 3 -51t13 -47t29 -34.5t50 -13.5q23 0 46.5 7.5t46 20t41.5 29t33 34.5v321l-54 30v20l140 10v-454l79 -6v-20z" />
    <glyph glyph-name="ugrave" unicode="&#xf9;" horiz-adv-x="649" 
d="M336 550l-160 134l66 58l120 -170zM498 -32q-24 0 -36.5 24.5t-13.5 86.5q-32 -48 -83.5 -79.5t-116.5 -31.5q-40 0 -68 15t-46 40t-26 57.5t-8 68.5v281l-54 30v20l140 10v-326q0 -25 3 -51t13 -47t29 -34.5t50 -13.5q23 0 46.5 7.5t46 20t41.5 29t33 34.5v321l-54 30
v20l140 10v-454l79 -6v-20z" />
    <glyph glyph-name="umacron" unicode="&#x16b;" horiz-adv-x="649" 
d="M439 614h-243v54h243v-54zM498 -32q-24 0 -36.5 24.5t-13.5 86.5q-32 -48 -83.5 -79.5t-116.5 -31.5q-40 0 -68 15t-46 40t-26 57.5t-8 68.5v281l-64 30v20l150 10v-326q0 -25 3 -51t13 -47t29 -34.5t50 -13.5q23 0 46.5 7.5t46 20t41.5 29t33 34.5v321l-64 30v20l150 10
v-454l79 -6v-20z" />
    <glyph glyph-name="zcaron" unicode="&#x17e;" horiz-adv-x="518" 
d="M158 742l107 -100l107 100l26 -22l-120 -170h-26l-120 170zM112 450l-39 -94h-25l-6 124h435v-28l-345 -442h290l36 100h25l5 -130h-458v28l347 442h-265z" />
    <glyph glyph-name="onehalf.001" horiz-adv-x="1031" 
d="M365 254h-213v14l78 19v389l-77 6v14l135 27v-436l77 -19v-14zM294 -20h-50l475 743h50zM648 -1q13 43 38.5 89.5t79.5 83.5q38 26 63 63t25 88q0 44 -19.5 75t-60.5 31q-19 0 -35.5 -10.5t-30.5 -27.5l-24 -45h-20l-4 71q31 14 58 22.5t61 8.5q29 0 55 -7.5t45.5 -23
t31 -38.5t11.5 -54q0 -26 -7 -46.5t-19.5 -37t-29 -31t-35.5 -28.5q-49 -35 -81 -80.5t-33 -90.5h159l24 76h18l4 -107h-274v19z" />
    <glyph glyph-name="onequarter.001" horiz-adv-x="899" 
d="M365 254h-213v14l78 19v389l-77 6v14l135 27v-436l77 -19v-14zM294 -20h-50l475 743h50zM728 449h30v-316h58l20 48h14v-110h-14l-20 34h-58v-92l57 -19v-14h-170v14l58 19v92h-219v19zM523 133h180v241z" />
    <glyph glyph-name="threequarters.001" horiz-adv-x="885" 
d="M280 -20h-50l475 743h50zM172 515q21 0 43 2.5t40 12t29 29t11 52.5q0 40 -23.5 66t-62.5 26q-23 0 -36 -8t-21 -22l-24 -46h-19l-5 74q26 11 56.5 16t57.5 5q23 0 47.5 -5.5t44.5 -18t32.5 -32t12.5 -46.5q0 -45 -28 -73.5t-69 -40.5v-2q50 -10 80 -39.5t30 -82.5
q0 -33 -11.5 -58t-32 -41t-47 -24t-56.5 -8q-29 0 -61.5 4t-60.5 12l4 81h21l23 -47q15 -31 69 -31q42 0 66 33t24 78q0 30 -11.5 50.5t-30 33t-43 17.5t-49.5 5l-21 -3v34zM714 449h30v-316h58l20 48h14v-110h-14l-20 34h-58v-92l57 -19v-14h-170v14l58 19v92h-219v19z
M509 133h180v241z" />
    <glyph glyph-name="onehalf.002" horiz-adv-x="1031" 
d="M365 254h-213v14l78 19v389l-77 6v14l135 27v-436l77 -19v-14zM294 -20h-50l475 743h50zM648 -1q13 43 38.5 89.5t79.5 83.5q38 26 63 63t25 88q0 44 -19.5 75t-60.5 31q-19 0 -35.5 -10.5t-30.5 -27.5l-24 -45h-20l-4 71q31 14 58 22.5t61 8.5q29 0 55 -7.5t45.5 -23
t31 -38.5t11.5 -54q0 -26 -7 -46.5t-19.5 -37t-29 -31t-35.5 -28.5q-49 -35 -81 -80.5t-33 -90.5h159l24 76h18l4 -107h-274v19z" />
    <glyph glyph-name="onequarter.002" horiz-adv-x="899" 
d="M365 254h-213v14l78 19v389l-77 6v14l135 27v-436l77 -19v-14zM294 -20h-50l475 743h50zM728 449h30v-316h58l20 48h14v-110h-14l-20 34h-58v-92l57 -19v-14h-170v14l58 19v92h-219v19zM523 133h180v241z" />
    <glyph glyph-name="threequarters.002" horiz-adv-x="885" 
d="M280 -20h-50l475 743h50zM172 515q21 0 43 2.5t40 12t29 29t11 52.5q0 40 -23.5 66t-62.5 26q-23 0 -36 -8t-21 -22l-24 -46h-19l-5 74q26 11 56.5 16t57.5 5q23 0 47.5 -5.5t44.5 -18t32.5 -32t12.5 -46.5q0 -45 -28 -73.5t-69 -40.5v-2q50 -10 80 -39.5t30 -82.5
q0 -33 -11.5 -58t-32 -41t-47 -24t-56.5 -8q-29 0 -61.5 4t-60.5 12l4 81h21l23 -47q15 -31 69 -31q42 0 66 33t24 78q0 30 -11.5 50.5t-30 33t-43 17.5t-49.5 5l-21 -3v34zM714 449h30v-316h58l20 48h14v-110h-14l-20 34h-58v-92l57 -19v-14h-170v14l58 19v92h-219v19z
M509 133h180v241z" />
    <glyph glyph-name="onehalf.003" horiz-adv-x="1031" 
d="M365 254h-213v14l78 19v389l-77 6v14l135 27v-436l77 -19v-14zM294 -20h-50l475 743h50zM648 -1q13 43 38.5 89.5t79.5 83.5q38 26 63 63t25 88q0 44 -19.5 75t-60.5 31q-19 0 -35.5 -10.5t-30.5 -27.5l-24 -45h-20l-4 71q31 14 58 22.5t61 8.5q29 0 55 -7.5t45.5 -23
t31 -38.5t11.5 -54q0 -26 -7 -46.5t-19.5 -37t-29 -31t-35.5 -28.5q-49 -35 -81 -80.5t-33 -90.5h159l24 76h18l4 -107h-274v19z" />
    <glyph glyph-name="onequarter.003" horiz-adv-x="899" 
d="M365 254h-213v14l78 19v389l-77 6v14l135 27v-436l77 -19v-14zM294 -20h-50l475 743h50zM728 449h30v-316h58l20 48h14v-110h-14l-20 34h-58v-92l57 -19v-14h-170v14l58 19v92h-219v19zM523 133h180v241z" />
    <glyph glyph-name="threequarters.003" horiz-adv-x="885" 
d="M280 -20h-50l475 743h50zM172 515q21 0 43 2.5t40 12t29 29t11 52.5q0 40 -23.5 66t-62.5 26q-23 0 -36 -8t-21 -22l-24 -46h-19l-5 74q26 11 56.5 16t57.5 5q23 0 47.5 -5.5t44.5 -18t32.5 -32t12.5 -46.5q0 -45 -28 -73.5t-69 -40.5v-2q50 -10 80 -39.5t30 -82.5
q0 -33 -11.5 -58t-32 -41t-47 -24t-56.5 -8q-29 0 -61.5 4t-60.5 12l4 81h21l23 -47q15 -31 69 -31q42 0 66 33t24 78q0 30 -11.5 50.5t-30 33t-43 17.5t-49.5 5l-21 -3v34zM714 449h30v-316h58l20 48h14v-110h-14l-20 34h-58v-92l57 -19v-14h-170v14l58 19v92h-219v19z
M509 133h180v241z" />
    <glyph glyph-name="onehalf.004" horiz-adv-x="1031" 
d="M365 254h-213v14l78 19v389l-77 6v14l135 27v-436l77 -19v-14zM294 -20h-50l475 743h50zM648 -1q13 43 38.5 89.5t79.5 83.5q38 26 63 63t25 88q0 44 -19.5 75t-60.5 31q-19 0 -35.5 -10.5t-30.5 -27.5l-24 -45h-20l-4 71q31 14 58 22.5t61 8.5q29 0 55 -7.5t45.5 -23
t31 -38.5t11.5 -54q0 -26 -7 -46.5t-19.5 -37t-29 -31t-35.5 -28.5q-49 -35 -81 -80.5t-33 -90.5h159l24 76h18l4 -107h-274v19z" />
    <glyph glyph-name="onequarter.004" horiz-adv-x="899" 
d="M365 254h-213v14l78 19v389l-77 6v14l135 27v-436l77 -19v-14zM294 -20h-50l475 743h50zM728 449h30v-316h58l20 48h14v-110h-14l-20 34h-58v-92l57 -19v-14h-170v14l58 19v92h-219v19zM523 133h180v241z" />
    <glyph glyph-name="threequarters.004" horiz-adv-x="885" 
d="M280 -20h-50l475 743h50zM172 515q21 0 43 2.5t40 12t29 29t11 52.5q0 40 -23.5 66t-62.5 26q-23 0 -36 -8t-21 -22l-24 -46h-19l-5 74q26 11 56.5 16t57.5 5q23 0 47.5 -5.5t44.5 -18t32.5 -32t12.5 -46.5q0 -45 -28 -73.5t-69 -40.5v-2q50 -10 80 -39.5t30 -82.5
q0 -33 -11.5 -58t-32 -41t-47 -24t-56.5 -8q-29 0 -61.5 4t-60.5 12l4 81h21l23 -47q15 -31 69 -31q42 0 66 33t24 78q0 30 -11.5 50.5t-30 33t-43 17.5t-49.5 5l-21 -3v34zM714 449h30v-316h58l20 48h14v-110h-14l-20 34h-58v-92l57 -19v-14h-170v14l58 19v92h-219v19z
M509 133h180v241z" />
    <glyph glyph-name="onehalf" unicode="&#xbd;" horiz-adv-x="1031" 
d="M365 254h-213v14l78 19v389l-77 6v14l135 27v-436l77 -19v-14zM294 -20h-50l475 743h50zM648 -1q13 43 38.5 89.5t79.5 83.5q38 26 63 63t25 88q0 44 -19.5 75t-60.5 31q-19 0 -35.5 -10.5t-30.5 -27.5l-24 -45h-20l-4 71q31 14 58 22.5t61 8.5q29 0 55 -7.5t45.5 -23
t31 -38.5t11.5 -54q0 -26 -7 -46.5t-19.5 -37t-29 -31t-35.5 -28.5q-49 -35 -81 -80.5t-33 -90.5h159l24 76h18l4 -107h-274v19z" />
    <glyph glyph-name="onequarter" unicode="&#xbc;" horiz-adv-x="899" 
d="M365 254h-213v14l78 19v389l-77 6v14l135 27v-436l77 -19v-14zM294 -20h-50l475 743h50zM728 449h30v-316h58l20 48h14v-110h-14l-20 34h-58v-92l57 -19v-14h-170v14l58 19v92h-219v19zM523 133h180v241z" />
    <glyph glyph-name="threequarters" unicode="&#xbe;" horiz-adv-x="885" 
d="M280 -20h-50l475 743h50zM172 515q21 0 43 2.5t40 12t29 29t11 52.5q0 40 -23.5 66t-62.5 26q-23 0 -36 -8t-21 -22l-24 -46h-19l-5 74q26 11 56.5 16t57.5 5q23 0 47.5 -5.5t44.5 -18t32.5 -32t12.5 -46.5q0 -45 -28 -73.5t-69 -40.5v-2q50 -10 80 -39.5t30 -82.5
q0 -33 -11.5 -58t-32 -41t-47 -24t-56.5 -8q-29 0 -61.5 4t-60.5 12l4 81h21l23 -47q15 -31 69 -31q42 0 66 33t24 78q0 30 -11.5 50.5t-30 33t-43 17.5t-49.5 5l-21 -3v34zM714 449h30v-316h58l20 48h14v-110h-14l-20 34h-58v-92l57 -19v-14h-170v14l58 19v92h-219v19z
M509 133h180v241z" />
    <glyph glyph-name="periodcentered" unicode="&#xb7;" horiz-adv-x="1000" 
d="M422 350q0 32 23 55t55 23t55 -23t23 -55t-23 -54.5t-55 -22.5t-55 22.5t-23 54.5z" />
    <glyph glyph-name="bullet" unicode="&#x2022;" horiz-adv-x="1000" 
d="M407 350q0 38 26.5 64t64.5 26t64 -26t26 -64t-26 -64.5t-64 -26.5t-64.5 26.5t-26.5 64.5z" />
    <glyph glyph-name="cent" unicode="&#xa2;" horiz-adv-x="633" 
d="M529 48q-9 -15 -26 -29.5t-39.5 -26t-48 -18t-50.5 -6.5q-28 0 -53 4t-48 12l-59 -144h-51l67 164q-52 32 -80 87t-28 129q0 57 16.5 107t48 86.5t78 57.5t107.5 21q28 0 55 -3l54 131h51l-57 -139q14 -3 28.5 -6t28.5 -7l-6 -113h-25l-39 66q-2 3 -8 9l-153 -376
q20 -12 44 -19t53 -7q33 0 67 10.5t63 36.5zM205 240q0 -44 12 -84t38 -69l149 367q-17 5 -29 5q-44 0 -76 -20.5t-53 -53t-31 -71t-10 -74.5z" />
    <glyph glyph-name="currency" unicode="&#xa4;" horiz-adv-x="633" 
d="M452 69q-13 -13 -29.5 -23.5t-34.5 -17.5t-35.5 -10.5t-32.5 -3.5q-31 0 -69.5 14.5t-66.5 37.5l-68 -96l-48 49l83 79q-26 32 -39 70t-13 79q0 20 4.5 41.5t12.5 42.5t19 39.5t24 33.5l-91 71l48 48l77 -90q29 23 62.5 34.5t64.5 11.5q32 0 67.5 -13t70.5 -43l65 100
l49 -48l-83 -80q25 -29 38.5 -68t13.5 -80t-13.5 -79.5t-39.5 -68.5l84 -80l-49 -49zM320 430q-32 0 -59 -14t-46.5 -39t-31 -58t-11.5 -72t11.5 -72.5t31.5 -58.5t47 -39t59 -14q31 0 58.5 14t47 39t31 58.5t11.5 72.5t-11.5 72t-31.5 58t-47.5 39t-58.5 14z" />
    <glyph glyph-name="florin" unicode="&#x192;" horiz-adv-x="455" 
d="M79 470l99 20v30q0 41 7.5 81.5t27 72.5t53 51.5t85.5 19.5q33 0 63.5 -8.5t52.5 -21.5l-6 -86h-25l-31 51q-10 16 -23 25.5t-30 9.5q-27 0 -44.5 -19.5t-27 -46.5t-13 -56.5t-3.5 -49.5v-63h122v-30h-122v-435q0 -41 -9.5 -80t-29.5 -69t-51.5 -48t-76.5 -18
q-33 0 -60 8.5t-49 21.5l6 86h25l25 -51q10 -16 22.5 -25.5t29.5 -9.5q24 0 39.5 18t25 43.5t13.5 53t4 47.5v458h-99v20z" />
    <glyph glyph-name="sterling" unicode="&#xa3;" horiz-adv-x="633" 
d="M110 10q16 16 33.5 39.5t32 51t23.5 57t9 58.5q0 28 -6.5 56.5t-15.5 57.5h-113v30h103q-14 39 -25 79.5t-11 82.5q0 49 15 85.5t42.5 60.5t65.5 35.5t84 11.5q54 0 100 -13.5t95 -34.5l-6 -113h-25l-39 72q-22 26 -49 42.5t-69 16.5q-33 0 -56 -14.5t-37.5 -38
t-21.5 -53.5t-7 -60q0 -45 8 -83t17 -76h219v-30h-212q5 -22 8 -44t4 -46q1 -29 -10 -59.5t-27.5 -59t-35.5 -52.5t-35 -39h316l39 120h25l6 -170h-444v30v0z" />
    <glyph glyph-name="plusminus" unicode="&#xb1;" horiz-adv-x="633" 
d="M32 359h253v199h62v-199h253v-62h-253v-199h-62v199h-253v62zM600 42v-62h-568v62h568z" />
    <glyph glyph-name="logicalnot" unicode="&#xac;" horiz-adv-x="633" 
d="M512 173h-62v145h-329v62h391v-207z" />
    <glyph glyph-name="section" unicode="&#xa7;" horiz-adv-x="732" 
d="M636 215q0 -37 -15 -64.5t-40 -47.5t-56 -33.5t-62 -22.5q20 -15 39 -31t34 -35t24 -41t9 -47q0 -43 -18 -73t-47.5 -49t-68 -27.5t-78.5 -8.5q-47 0 -101 13t-99 27l6 120h25l39 -78q26 -20 59.5 -33.5t66.5 -13.5q28 0 52.5 7.5t42 21t27.5 32t10 39.5q0 42 -29 73.5
t-72.5 57.5t-93.5 49.5t-93.5 50t-72 58t-28.5 73.5q0 37 15 66.5t39 52t54.5 38.5t61.5 25q-21 14 -39 28t-31 30t-20.5 35.5t-7.5 45.5q0 37 17.5 67t46 51t66 32.5t78.5 11.5q47 0 93 -8t91 -22l-6 -112h-25l-39 73q-29 17 -52.5 28t-56.5 11q-26 0 -49 -7.5t-41 -22
t-28.5 -35.5t-10.5 -49q0 -34 28.5 -60t71 -48.5t92.5 -45.5t92.5 -51t71 -64.5t28.5 -86.5zM307 389q-23 -6 -45.5 -17t-40 -27.5t-28.5 -38.5t-11 -50t21 -51t55.5 -44.5t77 -43t86.5 -46.5q23 6 46 15t41 23t29.5 34t11.5 48q0 34 -21 61.5t-55.5 51.5t-78 44.5
t-88.5 40.5z" />
    <glyph glyph-name="copyright" unicode="&#xa9;" horiz-adv-x="936" 
d="M60 338q0 86 32 160.5t87.5 129.5t129.5 86.5t159 31.5t159.5 -31.5t129.5 -86.5t87 -129.5t32 -160.5t-32 -160.5t-87 -129.5t-129.5 -86.5t-159.5 -31.5t-159 31.5t-129.5 86.5t-87.5 129.5t-32 160.5zM116 338q0 -74 27.5 -139t75 -113.5t111.5 -76.5t138 -28
q73 0 137.5 28t112 77t75 113.5t27.5 138.5q0 73 -27.5 138t-75 114t-112 77t-137.5 28q-74 0 -138 -27.5t-111.5 -75.5t-75 -113.5t-27.5 -140.5zM581 530q-22 16 -46 24.5t-52 8.5q-47 0 -80 -21t-54 -54t-31 -73t-10 -77q0 -41 12 -78.5t36 -65.5t59 -44.5t80 -16.5
q39 0 75.5 13t65.5 33v-20q-11 -13 -28 -25.5t-37.5 -22t-43.5 -15t-45 -5.5q-56 0 -101 19t-77 52.5t-49.5 80t-17.5 100.5q0 52 17.5 97t49.5 78t77.5 51.5t101.5 18.5q38 0 74 -6.5t80 -17.5l-3 -93h-17z" />
    <glyph glyph-name="registered" unicode="&#xae;" horiz-adv-x="936" 
d="M60 338q0 85 32 159t87.5 129.5t129.5 87.5t159 32t159.5 -32t129.5 -87.5t87 -129.5t32 -159t-32 -159t-87 -129.5t-129.5 -87.5t-159.5 -32t-159 32t-129.5 87.5t-87.5 129.5t-32 159zM116 338q0 -74 27.5 -138.5t75 -113.5t111.5 -77t138 -28q73 0 137.5 28t112 77
t75 113.5t27.5 138.5q0 73 -27.5 138t-75 114t-112 77t-137.5 28q-74 0 -138 -28t-111.5 -77t-75 -114t-27.5 -138zM459 89h-188v14l59 21v437l-59 21v14h215q30 0 59.5 -8t53 -24.5t37.5 -41.5t14 -59q0 -51 -33.5 -85.5t-81.5 -50.5l132 -203l39 -21v-14h-106l-135 224
h-65v-189l59 -21v-14zM414 339q31 0 60.5 5t52 18t36 36.5t13.5 61.5q0 110 -137 110h-39v-231h14z" />
    <glyph glyph-name="trademark" unicode="&#x2122;" horiz-adv-x="969" 
d="M83 654h-12l-3 69h308l-3 -69h-13l-20 49h-92v-316l42 -15v-10h-137v10l42 15v316h-92zM509 362h-113v9l42 16v311l-32 15v10h89l129 -284l122 284h87v-10l-32 -15v-311l42 -16v-9h-137v9l42 16v277l-127 -290h-24l-130 280v-267l42 -16v-9z" />
    <glyph glyph-name="degree" unicode="&#xb0;" horiz-adv-x="381" 
d="M61 650q0 23 9 43.5t24 36t35.5 24.5t43.5 9t43.5 -9t35.5 -24.5t24 -36t9 -43.5t-9 -43.5t-24 -35.5t-35.5 -24t-43.5 -9t-43.5 9t-35.5 24t-24 35.5t-9 43.5zM97 650q0 -32 22 -54t54 -22q31 0 53.5 22t22.5 54t-22.5 54.5t-53.5 22.5q-32 0 -54 -22.5t-22 -54.5z" />
    <glyph glyph-name="brokenbar" unicode="&#xa6;" horiz-adv-x="264" 
d="M168 297h-72v426h72v-426zM168 -253h-72v426h72v-426z" />
    <glyph glyph-name="dagger" unicode="&#x2020;" horiz-adv-x="582" 
d="M311 380l16 -593h-72l16 593l-208 -16v72l208 -15l-16 282h72l-16 -282l208 15v-72z" />
    <glyph glyph-name="daggerdbl" unicode="&#x2021;" horiz-adv-x="582" 
d="M312 409l15 -164l-15 -164l207 15v-72l-208 15l16 -252h-72l16 252l-208 -15v72l207 -15l-15 164l15 164l-207 -15v72l208 -15l-16 252h72l-16 -252l208 15v-72z" />
    <glyph glyph-name="gravecomb" unicode="&#x300;" horiz-adv-x="0" 
d="M-246 549l-178 174h112l135 -174h-69z" />
    <glyph glyph-name="acutecomb" unicode="&#x301;" horiz-adv-x="0" 
d="M-504 572l120 170l66 -58l-160 -134z" />
    <glyph glyph-name="tildecomb" unicode="&#x303;" horiz-adv-x="0" 
d="M-351 721q26 0 44 -15.5t32.5 -34t28.5 -34t33 -15.5q33 0 50.5 27.5t20.5 62.5h28q0 -69 -27 -110.5t-84 -41.5q-27 0 -44.5 15.5t-32 33.5t-28.5 33.5t-33 15.5q-32 0 -49.5 -27t-21.5 -63h-28q1 69 27.5 111t83.5 42z" />
    <glyph glyph-name="acute" unicode="&#xb4;" horiz-adv-x="378" 
d="M96 572l120 170l66 -58l-160 -134z" />
    <glyph glyph-name="caron" unicode="&#x2c7;" horiz-adv-x="624" 
d="M205 742l107 -100l107 100l26 -22l-120 -170h-26l-120 170z" />
    <glyph glyph-name="cedilla" unicode="&#xb8;" horiz-adv-x="465" 
d="M232 -71q38 -1 64 -21t26 -50q0 -27 -13 -48.5t-35.5 -37t-51.5 -25.5t-62 -14l-11 24q48 16 69.5 38t21.5 55q0 22 -18.5 35t-47.5 13l28 85h49l-19 -54v0z" />
    <glyph glyph-name="circumflex" unicode="&#x2c6;" horiz-adv-x="624" 
d="M419 550l-107 100l-107 -100l-26 22l120 170h26l120 -170z" />
    <glyph glyph-name="dieresis" unicode="&#xa8;" horiz-adv-x="654" 
d="M154 638q0 24 17.5 41.5t41.5 17.5q23 0 40.5 -17.5t17.5 -41.5q0 -23 -17.5 -40.5t-40.5 -17.5q-24 0 -41.5 17.5t-17.5 40.5zM354 638q0 24 17.5 41.5t41.5 17.5q23 0 40.5 -17.5t17.5 -41.5q0 -23 -17.5 -40.5t-40.5 -17.5q-24 0 -41.5 17.5t-17.5 40.5z" />
    <glyph glyph-name="dotaccent" unicode="&#x2d9;" horiz-adv-x="624" 
d="M247 638q0 26 19.5 45.5t45.5 19.5t45.5 -19.5t19.5 -45.5t-19.5 -45t-45.5 -19t-45.5 19t-19.5 45z" />
    <glyph glyph-name="grave" unicode="`" horiz-adv-x="627" 
d="M354 549l-178 174h112l135 -174h-69z" />
    <glyph glyph-name="macron" unicode="&#xaf;" horiz-adv-x="435" 
d="M339 614h-243v54h243v-54z" />
    <glyph glyph-name="tilde" unicode="&#x2dc;" horiz-adv-x="624" 
d="M249 721q26 0 44 -15.5t32.5 -34t28.5 -34t33 -15.5q33 0 50.5 27.5t20.5 62.5h28q0 -69 -27 -110.5t-84 -41.5q-27 0 -44.5 15.5t-32 33.5t-28.5 33.5t-33 15.5q-32 0 -49.5 -27t-21.5 -63h-28q1 69 27.5 111t83.5 42z" />
    <glyph glyph-name="uniFF21" unicode="&#xff21;" horiz-adv-x="1000" 
d="M734 626l76 -566h-172l-20 154h-240l-67 -154h-163l221 538l-29 28h394zM513 530l-96 -220h192l-29 220h-67z" />
    <glyph glyph-name="uniFF22" unicode="&#xff22;" horiz-adv-x="1000" 
d="M845 626l-29 -230l-58 -38l48 -39l-29 -192q-7 -29 -27 -48t-49 -19h-538l67 528l-29 38h644zM413 530l-10 -124h221l19 124h-230zM384 310l-19 -154h230l19 154h-230z" />
    <glyph glyph-name="uniFF23" unicode="&#xff23;" horiz-adv-x="1000" 
d="M203 60q-14 0 -26 5t-20.5 14t-11.5 21.5t1 26.5l67 499h605l-10 -96h-422l-48 -374h374l48 38l-19 -134h-538v0z" />
    <glyph glyph-name="uniFF24" unicode="&#xff24;" horiz-adv-x="1000" 
d="M815 626l-68 -499q-4 -29 -25.5 -48t-50.5 -19h-538l67 528l-29 38h644zM392 530l-57 -374h230l58 374h-231z" />
    <glyph glyph-name="uniFF25" unicode="&#xff25;" horiz-adv-x="1000" 
d="M790 626l-9 -96h-317l-19 -124h297l-9 -96h-308l-19 -154h336l-9 -96h-538l77 528l-29 38h547z" />
    <glyph glyph-name="uniFF26" unicode="&#xff26;" horiz-adv-x="1000" 
d="M809 626l-9 -96h-346l-19 -163h317l-10 -96h-326l-29 -211h-192l77 528l-29 38h566z" />
    <glyph glyph-name="uniFF27" unicode="&#xff27;" horiz-adv-x="1000" 
d="M826 463h-192l9 67h-230l-48 -374h230l10 115l-58 96h259l-38 -307h-538q-14 0 -26 5t-20.5 14t-11.5 21.5t1 26.5l67 499h605z" />
    <glyph glyph-name="uniFF28" unicode="&#xff28;" horiz-adv-x="1000" 
d="M424 626l-29 -220h223l27 182l-29 38h221l-77 -566h-192l38 250h-224l-35 -250h-192l77 538l-39 28h231z" />
    <glyph glyph-name="uniFF29" unicode="&#xff29;" horiz-adv-x="1000" 
d="M624 626l-87 -566h-182l67 528l-29 38h231z" />
    <glyph glyph-name="uniFF2A" unicode="&#xff2a;" horiz-adv-x="1000" 
d="M427 156l58 432l-29 38h221l-67 -499q-8 -29 -28 -48t-49 -19h-317l19 134l39 -38h153z" />
    <glyph glyph-name="uniFF2B" unicode="&#xff2b;" horiz-adv-x="1000" 
d="M464 626l-29 -172l202 172h220l-326 -288l288 -278h-230l-183 192l-29 -192h-182l67 528l-29 38h231z" />
    <glyph glyph-name="uniFF2C" unicode="&#xff2c;" horiz-adv-x="1000" 
d="M513 626l-67 -470h374l-9 -96h-499q-29 0 -43.5 19t-14.5 48l58 461l-29 38h230z" />
    <glyph glyph-name="uniFF2D" unicode="&#xff2d;" horiz-adv-x="1000" 
d="M388 626l106 -355l201 355h202l-77 -566h-173l48 298l-153 -260h-154l-77 250l-38 -288h-173l77 528l-39 38h250z" />
    <glyph glyph-name="uniFF2E" unicode="&#xff2e;" horiz-adv-x="1000" 
d="M422 626l201 -355l48 355h164l-77 -566h-192l-192 346l-48 -346h-173l77 528l-39 38h231z" />
    <glyph glyph-name="uniFF2F" unicode="&#xff2f;" horiz-adv-x="1000" 
d="M764 626q14 0 26 -5t20.5 -14t11.5 -21t-1 -27l-67 -499h-538q-14 0 -26 5t-20.5 14t-11.5 21.5t1 26.5l67 499h538zM399 530l-48 -374h221l57 374h-230z" />
    <glyph glyph-name="uniFF30" unicode="&#xff30;" horiz-adv-x="1000" 
d="M828 626l-38 -307q-8 -29 -31.5 -48t-45.5 -19h-336l-29 -192h-182l67 538l-29 28h624zM416 530l-20 -182h202l29 182h-211z" />
    <glyph glyph-name="uniFF31" unicode="&#xff31;" horiz-adv-x="1000" 
d="M742 626q29 0 47 -19t11 -48l-48 -336l57 -19l-19 -115l-77 29l-9 -58h-471q-14 0 -26 5t-20.5 14t-11.5 21.5t1 26.5l67 499h499zM483 204l19 115l77 -29l29 240h-192l-48 -374h192v19z" />
    <glyph glyph-name="uniFF32" unicode="&#xff32;" horiz-adv-x="1000" 
d="M825 626l-38 -288q0 -14 -6.5 -26.5t-17.5 -21.5t-24.5 -14t-28.5 -5h-125l202 -211h-211l-192 211l-29 -211h-192l67 528l-29 38h624zM413 530l-20 -163h212l19 163h-211z" />
    <glyph glyph-name="uniFF33" unicode="&#xff33;" horiz-adv-x="1000" 
d="M551 175l19 115h-384l48 336h566l-19 -163h-192l10 67h-183l-29 -144h384l-38 -259q0 -14 -6.5 -26.5t-17.5 -21.5t-24.5 -14t-28.5 -5h-499l19 154l29 -39h346z" />
    <glyph glyph-name="uniFF34" unicode="&#xff34;" horiz-adv-x="1000" 
d="M335 60l67 470h-211l10 96h614l-19 -96h-202l-67 -470h-192z" />
    <glyph glyph-name="uniFF35" unicode="&#xff35;" horiz-adv-x="1000" 
d="M408 626l-67 -470h230l68 442l-39 28h231l-77 -566h-547q-29 0 -43.5 19t-14.5 48l67 471l-29 28h221z" />
    <glyph glyph-name="uniFF36" unicode="&#xff36;" horiz-adv-x="1000" 
d="M305 60l-106 538l-19 28h202l76 -393l192 393h192l-268 -566h-269z" />
    <glyph glyph-name="uniFF37" unicode="&#xff37;" horiz-adv-x="1000" 
d="M433 607h154l28 -326l135 345h163l-230 -566h-173l-39 278l-115 -278h-173l-67 547l-19 19h182l29 -345z" />
    <glyph glyph-name="uniFF38" unicode="&#xff38;" horiz-adv-x="1000" 
d="M225 626h201l87 -163l115 144l-19 19h230l-249 -278l172 -288h-192l-86 173l-144 -173h-192l250 288l-144 250z" />
    <glyph glyph-name="uniFF39" unicode="&#xff39;" horiz-adv-x="1000" 
d="M618 607l-19 19h230l-278 -336l-29 -230h-192l29 230l-163 308l-29 28h202l105 -211z" />
    <glyph glyph-name="uniFF3A" unicode="&#xff3a;" horiz-adv-x="1000" 
d="M208 530l19 96h605l-19 -96l-422 -374h374l-10 -96h-614l19 96l432 374h-384z" />
    <glyph glyph-name="uni01CE" unicode="&#x1ce;" horiz-adv-x="561" 
d="M153 742l107 -100l107 100l26 -22l-120 -170h-26l-120 170zM360 296q0 28 -4.5 57.5t-16.5 53.5t-33.5 39.5t-55.5 15.5q-27 0 -51 -18.5t-38 -39.5l-45 -66h-25l-6 109q46 21 92.5 33t97.5 12q86 0 128.5 -45t42.5 -126v-285l79 -6v-20l-115 -42q-29 0 -39.5 23.5
t-10.5 71.5q-32 -37 -71 -66t-90 -29q-32 0 -60 8.5t-49 25t-33 41.5t-12 57q0 53 27 87.5t70 54.5t97.5 28t108.5 8h12v18zM346 248q-33 0 -70 -8t-68 -24.5t-51 -42t-20 -59.5q0 -41 25.5 -62t61.5 -21q17 0 36 5.5t37 14.5t34.5 20t28.5 22v155h-14z" />
    <glyph glyph-name="uni01D0" unicode="&#x1d0;" horiz-adv-x="326" 
d="M51 742l107 -100l107 100l26 -22l-120 -170h-26l-120 170zM280 -20h-234v20l74 30v400l-54 30v20l140 10v-460l74 -30v-20z" />
    <glyph glyph-name="uni01F9" unicode="&#x1f9;" horiz-adv-x="674" 
d="M358 550l-160 134l66 58l120 -170zM66 480l140 10v-124q14 23 35.5 45.5t47 40.5t53 29t54.5 11q40 0 70 -15t49.5 -40t29 -57.5t9.5 -68.5v-281l74 -30v-20h-234v20l74 30v266q0 25 -3 51t-13 47t-29 34.5t-50 13.5q-49 0 -91 -31.5t-76 -74.5v-306l74 -30v-20h-234v20
l74 30v400l-54 30v20z" />
    <glyph glyph-name="uni01D2" unicode="&#x1d2;" horiz-adv-x="622" 
d="M205 732l107 -90l107 90l26 -22l-120 -160h-26l-120 160zM312 492q61 0 108 -20t79 -55t48.5 -83t16.5 -104t-16.5 -104t-48.5 -83t-79 -55t-108 -20t-108 20t-79.5 55t-49.5 83t-17 104t17 104t49.5 83t79.5 55t108 20zM312 462q-42 0 -72.5 -22t-50.5 -56t-29.5 -75
t-9.5 -79t9.5 -79t29.5 -75t50.5 -56t72.5 -22t72 22t49.5 56t29 75t9.5 79t-9.5 79t-29 75t-49.5 56t-72 22z" />
    <glyph glyph-name="uni01D4" unicode="&#x1d4;" horiz-adv-x="649" 
d="M202 742l107 -100l107 100l26 -22l-120 -170h-26l-120 170zM498 -32q-24 0 -36.5 24.5t-13.5 86.5q-32 -48 -83.5 -79.5t-116.5 -31.5q-40 0 -68 15t-46 40t-26 57.5t-8 68.5v281l-54 30v20l140 10v-326q0 -25 3 -51t13 -47t29 -34.5t50 -13.5q23 0 46.5 7.5t46 20
t41.5 29t33 34.5v321l-54 30v20l140 10v-454l79 -6v-20z" />
    <glyph glyph-name="uni01D8" unicode="&#x1d8;" horiz-adv-x="649" 
d="M285 752l120 170l66 -58l-160 -134zM163 638q0 24 17.5 41.5t41.5 17.5q23 0 40.5 -17.5t17.5 -41.5q0 -23 -17.5 -40.5t-40.5 -17.5q-24 0 -41.5 17.5t-17.5 40.5zM363 638q0 24 17.5 41.5t41.5 17.5q23 0 40.5 -17.5t17.5 -41.5q0 -23 -17.5 -40.5t-40.5 -17.5
q-24 0 -41.5 17.5t-17.5 40.5zM498 -32q-24 0 -36.5 24.5t-13.5 86.5q-32 -48 -83.5 -79.5t-116.5 -31.5q-40 0 -68 15t-46 40t-26 57.5t-8 68.5v281l-54 30v20l140 10v-326q0 -25 3 -51t13 -47t29 -34.5t50 -13.5q23 0 46.5 7.5t46 20t41.5 29t33 34.5v321l-54 30v20
l140 10v-454l79 -6v-20z" />
    <glyph glyph-name="uni01DA" unicode="&#x1da;" horiz-adv-x="649" 
d="M216 922l107 -100l107 100l26 -22l-120 -170h-26l-120 170zM163 638q0 24 17.5 41.5t41.5 17.5q23 0 40.5 -17.5t17.5 -41.5q0 -23 -17.5 -40.5t-40.5 -17.5q-24 0 -41.5 17.5t-17.5 40.5zM363 638q0 24 17.5 41.5t41.5 17.5q23 0 40.5 -17.5t17.5 -41.5
q0 -23 -17.5 -40.5t-40.5 -17.5q-24 0 -41.5 17.5t-17.5 40.5zM498 -32q-24 0 -36.5 24.5t-13.5 86.5q-32 -48 -83.5 -79.5t-116.5 -31.5q-40 0 -68 15t-46 40t-26 57.5t-8 68.5v281l-54 30v20l140 10v-326q0 -25 3 -51t13 -47t29 -34.5t50 -13.5q23 0 46.5 7.5t46 20
t41.5 29t33 34.5v321l-54 30v20l140 10v-454l79 -6v-20z" />
    <glyph glyph-name="uni01DC" unicode="&#x1dc;" horiz-adv-x="649" 
d="M332 730l-160 134l66 58l120 -170zM163 638q0 24 17.5 41.5t41.5 17.5q23 0 40.5 -17.5t17.5 -41.5q0 -23 -17.5 -40.5t-40.5 -17.5q-24 0 -41.5 17.5t-17.5 40.5zM363 638q0 24 17.5 41.5t41.5 17.5q23 0 40.5 -17.5t17.5 -41.5q0 -23 -17.5 -40.5t-40.5 -17.5
q-24 0 -41.5 17.5t-17.5 40.5zM498 -32q-24 0 -36.5 24.5t-13.5 86.5q-32 -48 -83.5 -79.5t-116.5 -31.5q-40 0 -68 15t-46 40t-26 57.5t-8 68.5v281l-54 30v20l140 10v-326q0 -25 3 -51t13 -47t29 -34.5t50 -13.5q23 0 46.5 7.5t46 20t41.5 29t33 34.5v321l-54 30v20
l140 10v-454l79 -6v-20z" />
    <glyph glyph-name="uni01D6" unicode="&#x1d6;" horiz-adv-x="649" 
d="M440 774h-243v54h243v-54zM163 638q0 24 17.5 41.5t41.5 17.5q23 0 40.5 -17.5t17.5 -41.5q0 -23 -17.5 -40.5t-40.5 -17.5q-24 0 -41.5 17.5t-17.5 40.5zM363 638q0 24 17.5 41.5t41.5 17.5q23 0 40.5 -17.5t17.5 -41.5q0 -23 -17.5 -40.5t-40.5 -17.5q-24 0 -41.5 17.5
t-17.5 40.5zM498 -32q-24 0 -36.5 24.5t-13.5 86.5q-32 -48 -83.5 -79.5t-116.5 -31.5q-40 0 -68 15t-46 40t-26 57.5t-8 68.5v281l-54 30v20l140 10v-326q0 -25 3 -51t13 -47t29 -34.5t50 -13.5q23 0 46.5 7.5t46 20t41.5 29t33 34.5v321l-54 30v20l140 10v-454l79 -6v-20z
" />
    <glyph glyph-name="uniFF41" unicode="&#xff41;" horiz-adv-x="1000" 
d="M552 386h-102l-9 -38h-192l29 134h470l-58 -374l39 -48h-451q-29 0 -43.5 19t-14.5 48l29 183h288zM422 214l-10 -58h96l10 58h-96z" />
    <glyph glyph-name="uniFF42" unicode="&#xff42;" horiz-adv-x="1000" 
d="M500 684l-28 -202h307l-48 -355q-8 -29 -28 -48t-49 -19h-432l86 595l-19 29h211zM462 386l-33 -230h114l34 230h-115z" />
    <glyph glyph-name="uniFF43" unicode="&#xff43;" horiz-adv-x="1000" 
d="M771 386h-307l-38 -230h268l48 38l-19 -134h-499l67 422h490z" />
    <glyph glyph-name="uniFF44" unicode="&#xff44;" horiz-adv-x="1000" 
d="M585 684h192l-86 -624h-432q-29 0 -43.5 19t-14.5 48l48 355h307zM426 386l-37 -230h122l36 230h-121z" />
    <glyph glyph-name="uniFF45" unicode="&#xff45;" horiz-adv-x="1000" 
d="M730 233h-307l-10 -77h269l48 38l-29 -134h-422q-29 0 -43.5 19t-14.5 48l48 355h499zM451 386l-9 -57h115l10 57h-116z" />
    <glyph glyph-name="uniFF46" unicode="&#xff46;" horiz-adv-x="1000" 
d="M438 684h248l-17 -96h-48l-20 -106h77l-19 -96h-67l-48 -326h-192l48 326h-77l10 96h76z" />
    <glyph glyph-name="uniFF47" unicode="&#xff47;" horiz-adv-x="1000" 
d="M509 -54l19 114h-307l57 422h500l-77 -565q-4 -29 -26 -48t-51 -19h-432l19 134l39 -38h259zM461 386l-36 -229h113l38 229h-115z" />
    <glyph glyph-name="uniFF48" unicode="&#xff48;" horiz-adv-x="1000" 
d="M500 684l-28 -202h307l-58 -422h-192l48 326h-115l-48 -326h-192l86 595l-19 29h211z" />
    <glyph glyph-name="uniFF49" unicode="&#xff49;" horiz-adv-x="1000" 
d="M610 511h-183l10 115h192zM610 482l-58 -422h-192l58 394l-29 28h221z" />
    <glyph glyph-name="uniFF4A" unicode="&#xff4a;" horiz-adv-x="1000" 
d="M620 520h-182l19 106h182zM399 482h221l-77 -565q-4 -29 -25.5 -48t-50.5 -19h-202l86 96l77 507z" />
    <glyph glyph-name="uniFF4B" unicode="&#xff4b;" horiz-adv-x="1000" 
d="M534 684l-38 -278l125 86h211l-269 -182l211 -250h-211l-96 125l-19 -125h-192l86 595l-28 29h220z" />
    <glyph glyph-name="uniFF4C" unicode="&#xff4c;" horiz-adv-x="1000" 
d="M609 684l-77 -528l67 -96h-201q-29 0 -43.5 19t-14.5 48l77 528l-29 29h221z" />
    <glyph glyph-name="uniFF4D" unicode="&#xff4d;" horiz-adv-x="1000" 
d="M849 482l-57 -422h-173l48 326h-77l-48 -326h-153l49 326h-76l-50 -326h-173l58 394l-20 28h672z" />
    <glyph glyph-name="uniFF4E" unicode="&#xff4e;" horiz-adv-x="1000" 
d="M758 482l-58 -422h-192l48 326h-115l-48 -326h-192l58 394l-29 28h528z" />
    <glyph glyph-name="uniFF4F" unicode="&#xff4f;" horiz-adv-x="1000" 
d="M697 482q29 0 43.5 -23.5t14.5 -52.5l-48 -346h-432q-29 0 -43.5 19t-14.5 48l48 355h432zM447 386l-38 -230h115l39 230h-116z" />
    <glyph glyph-name="uniFF50" unicode="&#xff50;" horiz-adv-x="1000" 
d="M792 482l-48 -355q-2 -15 -10 -27t-19.5 -21t-24 -14t-23.5 -5h-239l-33 -210h-192l89 603l-28 29h528zM475 386l-36 -239h116l35 239h-115z" />
    <glyph glyph-name="uniFF51" unicode="&#xff51;" horiz-adv-x="1000" 
d="M643 -150h-192l33 210h-244q-11 0 -22 5t-19.5 14t-13.5 21.5t-3 26.5l48 355h499zM412 386l-36 -230h119l33 230h-116z" />
    <glyph glyph-name="uniFF52" unicode="&#xff52;" horiz-adv-x="1000" 
d="M467 482l-19 -134l135 134h192l-327 -288l-19 -134h-192l56 394l-20 28h194z" />
    <glyph glyph-name="uniFF53" unicode="&#xff53;" horiz-adv-x="1000" 
d="M533 156l9 67h-288l39 259h460l-19 -124h-166l3 28h-115l-10 -67h279l-20 -192q-7 -29 -32 -48t-54 -19h-384l19 134l29 -38h250z" />
    <glyph glyph-name="uniFF54" unicode="&#xff54;" horiz-adv-x="1000" 
d="M403 540l-19 29h211l-13 -87h119l-20 -96h-111l-33 -230h96l-19 -96h-211q-29 0 -47 19t-11 48l39 259h-77l10 96h78z" />
    <glyph glyph-name="uniFF55" unicode="&#xff55;" horiz-adv-x="1000" 
d="M459 482l-44 -300l120 12l39 260l-29 28h221l-58 -422h-192l6 38l-313 -38l58 394l-29 28h221z" />
    <glyph glyph-name="uniFF56" unicode="&#xff56;" horiz-adv-x="1000" 
d="M609 482h183l-231 -422h-192l-105 384l-29 38h202l57 -240z" />
    <glyph glyph-name="uniFF57" unicode="&#xff57;" horiz-adv-x="1000" 
d="M442 482h115l20 -211l76 211h154l-154 -422h-153l-29 211l-86 -211h-154l-29 394l-19 28h163l19 -211z" />
    <glyph glyph-name="uniFF58" unicode="&#xff58;" horiz-adv-x="1000" 
d="M244 482h202l42 -89l54 70l-10 19h211l-176 -211l119 -211h-192l-42 79l-74 -79h-182l176 211l-99 173z" />
    <glyph glyph-name="uniFF59" unicode="&#xff59;" horiz-adv-x="1000" 
d="M264 453l-28 29h211l52 -212l92 193l-19 19h220l-322 -594q-8 -14 -26.5 -26t-40.5 -12h-178l77 77l75 142z" />
    <glyph glyph-name="uniFF5A" unicode="&#xff5a;" horiz-adv-x="1000" 
d="M267 386l20 96h451l-10 -96l-269 -230h240l-19 -96h-451l10 96l278 230h-250z" />
    <glyph glyph-name="uni3005" unicode="&#x3005;" horiz-adv-x="1000" 
d="M549 111q50 -28 77.5 -62t24.5 -76l-42 -29q-59 63 -135 123.5t-150 107.5l7 17q54 -14 102 -30.5t88 -35.5l193 322h-344q-42 -54 -92 -101.5t-113 -88.5l-12 12q50 55 86 103t63.5 93.5t49 91t43.5 95.5l-14 32l9 23l114 -24q-22 -54 -50.5 -107t-65.5 -104h322l56 51
q9 -7 20 -17.5t22.5 -22.5t22 -23.5t16.5 -20.5l-50 -27z" />
    <glyph glyph-name="uniFF10" unicode="&#xff10;" horiz-adv-x="1000" 
d="M245 561q4 29 26.5 48.5t51.5 19.5h501l-70 -501q-4 -29 -26.5 -48.5t-51.5 -19.5h-501zM432 535l-54 -380h189l54 380h-189z" />
    <glyph glyph-name="uniFF11" unicode="&#xff11;" horiz-adv-x="1000" 
d="M538 60h-190l63 448l-78 -11l15 104l271 38z" />
    <glyph glyph-name="uniFF12" unicode="&#xff12;" horiz-adv-x="1000" 
d="M602 535h-191l-9 -76h-190l24 171h569l-48 -342h-399l-18 -133h361l43 38l-19 -133h-501q-29 0 -46 19.5t-13 48.5l36 255h379z" />
    <glyph glyph-name="uniFF13" unicode="&#xff13;" horiz-adv-x="1000" 
d="M587 307h-342l13 95h342l19 133h-380l13 94h570l-71 -501q-4 -29 -26.5 -48.5t-50.5 -19.5h-502l14 95h379z" />
    <glyph glyph-name="uniFF14" unicode="&#xff14;" horiz-adv-x="1000" 
d="M277 629h218l-104 -360h148l46 323l-33 37h228l-51 -360h76l-13 -95h-76l-16 -114h-190l16 114h-341l13 95l101 336z" />
    <glyph glyph-name="uniFF15" unicode="&#xff15;" horiz-adv-x="1000" 
d="M563 155l25 171h-380l38 267l-33 34h607l-13 -92h-379l-17 -114h380l-37 -266l-4 -27q-5 -29 -27 -48.5t-51 -19.5h-501l18 133l33 -38h341z" />
    <glyph glyph-name="uniFF16" unicode="&#xff16;" horiz-adv-x="1000" 
d="M806 535h-379l-15 -105h379l-51 -370h-502q-29 0 -46 19.5t-13 48.5l71 501h569zM399 335l-26 -180h190l25 180h-189z" />
    <glyph glyph-name="uniFF17" unicode="&#xff17;" horiz-adv-x="1000" 
d="M779 535l-276 -475h-189l272 475h-377l14 95h569z" />
    <glyph glyph-name="uniFF18" unicode="&#xff18;" horiz-adv-x="1000" 
d="M243 561q5 29 27.5 49t50.5 20h502l-71 -502q-4 -29 -26.5 -48.5t-51.5 -19.5h-501zM430 535l-19 -133h190l19 133h-190zM398 307l-22 -152h190l22 152h-190z" />
    <glyph glyph-name="uniFF19" unicode="&#xff19;" horiz-adv-x="1000" 
d="M584 269h-379l50 360h570l-71 -501q-4 -29 -26.5 -48.5t-50.5 -19.5h-502l15 95h378zM432 535l-25 -171h191l24 171h-190z" />
    <glyph glyph-name="uni00B9" unicode="&#xb9;" horiz-adv-x="365" 
d="M269 368h-173v13l63 20v293l-62 6v13l109 22v-334l63 -20v-13z" />
    <glyph glyph-name="uni00B2" unicode="&#xb2;" horiz-adv-x="464" 
d="M120 384q11 35 33.5 72.5t65.5 66.5q30 20 53 47t23 67q0 31 -18.5 54.5t-50.5 23.5q-21 0 -37.5 -10.5t-27.5 -23.5l-20 -36h-12l-3 66q24 11 50.5 17.5t52.5 6.5q23 0 44.5 -6t38 -18t26 -30t9.5 -42q0 -20 -7 -36.5t-18 -31t-25.5 -26.5t-29.5 -23q-39 -29 -64 -61
t-26 -67h135l19 60h13l3 -86h-227v16v0z" />
    <glyph glyph-name="uni00B3" unicode="&#xb3;" horiz-adv-x="469" 
d="M197 571q17 0 35 2t32.5 9.5t24 23t9.5 41.5q0 32 -20.5 50t-51.5 18q-36 0 -48 -23l-19 -37h-13l-3 64q20 9 44 12.5t46 3.5q18 0 39 -4.5t38.5 -14.5t29 -25t11.5 -37q0 -18 -7.5 -32.5t-19.5 -25.5t-27.5 -19t-31.5 -13v-1q39 -8 68 -32t29 -66q0 -27 -10.5 -46
t-28.5 -32t-40.5 -19t-46.5 -6q-23 0 -49 2.5t-48 10.5l3 69h14l16 -38q6 -13 22 -18.5t37 -5.5q34 0 54.5 23.5t20.5 58.5q0 24 -9.5 41t-25 27t-35 14.5t-39.5 4.5l-17 -3v25z" />
    <glyph glyph-name="uni3007" unicode="&#x3007;" horiz-adv-x="1000" 
d="M75 323q0 84 33.5 161t91 135t135 92.5t165.5 34.5t165 -34.5t135 -93t91.5 -135t33.5 -161.5q0 -84 -33.5 -160.5t-91.5 -134.5t-135 -92.5t-165 -34.5t-165.5 34.5t-135 92.5t-91 135t-33.5 161zM125 322q0 -74 29.5 -142t80 -120t119 -82.5t146.5 -30.5t146.5 30.5
t119 82.5t80 120t29.5 142q0 75 -29.5 143.5t-80 120t-119 82.5t-146.5 31t-146.5 -31t-119 -82.5t-80 -120t-29.5 -143.5z" />
    <glyph glyph-name="uniFE60" unicode="&#xfe60;" horiz-adv-x="1000" 
d="M292 422l26 140q6 35 27 49.5t53 14.5h299l-37 -204l-108 -74l61 -51l57 75l100 -10l-88 -124l90 -78l-90 -79l-68 61l-58 -82h-262q-37 0 -49.5 17.5t-7.5 47.5l26 139l117 81zM564 534h-134l-13 -72l60 -51l74 51zM455 281l-82 -57l-13 -72h143l40 53z" />
    <glyph glyph-name="uniFE61" unicode="&#xfe61;" horiz-adv-x="1000" 
d="M327 563l116 -56l-14 119h134l-31 -121l124 57l34 -115l-136 -18l92 -85l-113 -70l-55 110l-69 -110l-104 71l105 85l-132 19z" />
    <glyph glyph-name="uniFE6B" unicode="&#xfe6b;" horiz-adv-x="1000" 
d="M777 592q28 0 45 -20t13 -49l-44 -311h-437l32 228h266l-21 -152h38l30 209h-342l-49 -342h475l-12 -95h-541q-28 0 -45 19.5t-13 48.5l65 464h540zM489 364l-10 -76h38l10 76h-38z" />
    <glyph glyph-name="uniFE55" unicode="&#xfe55;" horiz-adv-x="1000" 
d="M206 482h152l-16 -114h-152zM171 175h152l-16 -114h-152z" />
    <glyph glyph-name="uniFE50" unicode="&#xfe50;" horiz-adv-x="1000" 
d="M276 -35h-114l70 210h133z" />
    <glyph glyph-name="uni2016" unicode="&#x2016;" horiz-adv-x="1000" 
d="M456 -253h-72v976h72v-976zM616 -253h-72v976h72v-976z" />
    <glyph glyph-name="uniFE57" unicode="&#xfe57;" horiz-adv-x="1000" 
d="M325 200h-152l62 426h152zM307 60h-152l13 95h152z" />
    <glyph glyph-name="uniFE5F" unicode="&#xfe5f;" horiz-adv-x="1000" 
d="M770 262l-12 -81h-80l-17 -121h-162l17 121h-121l-17 -121h-162l17 121h-81l12 81h81l23 162h-82l12 81h81l13 91l-26 30h191l-17 -121h122l13 90l-27 31h192l-17 -121h81l-12 -81h-80l-23 -162h81zM406 262h122l23 162h-122z" />
    <glyph glyph-name="uniFE6A" unicode="&#xfe6a;" horiz-adv-x="1000" 
d="M756 77h-265l30 215l-204 -234h-152l282 323h-255l32 228h265l-30 -215l185 212l-19 22h190l-282 -323h255zM316 457h38l10 76h-38zM664 229h-38l-11 -76h38z" />
    <glyph glyph-name="uniFE52" unicode="&#xfe52;" horiz-adv-x="1000" 
d="M174 175h152l-16 -114h-152z" />
    <glyph glyph-name="uniFE56" unicode="&#xfe56;" horiz-adv-x="1000" 
d="M505 401l-145 -107l-11 -76h-143l18 131l144 97l8 55h-220l17 125h363zM200 175h146l-16 -114h-146z" />
    <glyph glyph-name="uni203B" unicode="&#x203b;" horiz-adv-x="808" 
d="M497 512h-139l15 114h140zM49 140l280 202l-223 203l85 60l222 -202l278 202l68 -60l-280 -203l223 -202l-85 -60l-221 201l-279 -201zM185 288h-140l16 114h140zM747 288h-138l16 114h138zM434 60h-140l16 113h140z" />
    <glyph glyph-name="uniFE68" unicode="&#xfe68;" horiz-adv-x="1000" 
d="M680 -150h-126l-218 776h126z" />
    <glyph glyph-name="uniFE54" unicode="&#xfe54;" horiz-adv-x="1000" 
d="M408 368h-142l16 114h142zM279 -53h-123l70 228h142z" />
    <glyph glyph-name="uniFF06" unicode="&#xff06;" horiz-adv-x="1000" 
d="M288 422l26 140q6 35 27 49.5t53 14.5h299l-37 -204l-108 -74l61 -51l57 75l100 -10l-88 -124l90 -78l-90 -79l-68 61l-58 -82h-262q-37 0 -49.5 17.5t-7.5 47.5l26 139l117 81zM560 534h-134l-13 -72l60 -51l74 51zM451 281l-82 -57l-13 -72h143l40 53z" />
    <glyph glyph-name="uniFF0A" unicode="&#xff0a;" horiz-adv-x="1000" 
d="M342 563l116 -56l-14 119h134l-31 -121l124 57l34 -115l-136 -18l92 -85l-113 -70l-55 110l-69 -110l-104 71l105 85l-132 19z" />
    <glyph glyph-name="uniFF20" unicode="&#xff20;" horiz-adv-x="1000" 
d="M783 592q28 0 45 -20t13 -49l-44 -311h-437l32 228h266l-21 -152h38l30 209h-342l-49 -342h475l-12 -95h-541q-28 0 -45 19.5t-13 48.5l65 464h540zM495 364l-10 -76h38l10 76h-38z" />
    <glyph glyph-name="uniFF3C" unicode="&#xff3c;" horiz-adv-x="1000" 
d="M678 -150h-126l-218 776h126z" />
    <glyph glyph-name="uniFF1A" unicode="&#xff1a;" horiz-adv-x="1000" 
d="M206 482h152l-16 -114h-152zM171 175h152l-16 -114h-152z" />
    <glyph glyph-name="uniFE13" unicode="&#xfe13;" horiz-adv-x="1000" 
d="M693 626h152l-16 -114h-152zM658 319h152l-16 -114h-152z" />
    <glyph glyph-name="uniFF0C" unicode="&#xff0c;" horiz-adv-x="1000" 
d="M269 -35h-114l70 210h133z" />
    <glyph glyph-name="uniFE10" unicode="&#xfe10;" horiz-adv-x="1000" 
d="M871 416h-114l70 210h133z" />
    <glyph glyph-name="uniFF01" unicode="&#xff01;" horiz-adv-x="1000" 
d="M325 200h-152l62 426h152zM307 60h-152l13 95h152z" />
    <glyph glyph-name="uniFE15" unicode="&#xfe15;" horiz-adv-x="1000" 
d="M773 200h-152l62 426h152zM755 60h-152l13 95h152z" />
    <glyph glyph-name="uniFF03" unicode="&#xff03;" horiz-adv-x="1000" 
d="M792 262l-12 -81h-80l-17 -121h-162l17 121h-121l-17 -121h-162l17 121h-81l12 81h81l23 162h-82l12 81h81l13 91l-26 30h191l-17 -121h122l13 90l-27 31h192l-17 -121h81l-12 -81h-80l-23 -162h81zM428 262h122l23 162h-122z" />
    <glyph glyph-name="uniFF05" unicode="&#xff05;" horiz-adv-x="1000" 
d="M766 77h-265l30 215l-204 -234h-152l282 323h-255l32 228h265l-30 -215l185 212l-19 22h190l-282 -323h255zM326 457h38l10 76h-38zM674 229h-38l-11 -76h38z" />
    <glyph glyph-name="uniFF0E" unicode="&#xff0e;" horiz-adv-x="1000" 
d="M171 175h152l-16 -114h-152z" />
    <glyph glyph-name="uniFF1F" unicode="&#xff1f;" horiz-adv-x="1000" 
d="M504 401l-145 -107l-11 -76h-143l18 131l144 97l8 55h-220l17 125h363zM199 175h146l-16 -114h-146z" />
    <glyph glyph-name="uniFE16" unicode="&#xfe16;" horiz-adv-x="1000" 
d="M794 401l-145 -107l-11 -76h-143l18 131l144 97l8 55h-220l17 125h363zM489 175h146l-16 -114h-146z" />
    <glyph glyph-name="uniFF02" unicode="&#xff02;" horiz-adv-x="1000" 
d="M453 398h-104l10 228h123zM626 398h-104l10 228h123z" />
    <glyph glyph-name="uniFF07" unicode="&#xff07;" horiz-adv-x="1000" 
d="M537 398h-104l10 228h123z" />
    <glyph glyph-name="uniFF1B" unicode="&#xff1b;" horiz-adv-x="1000" 
d="M407 368h-142l16 114h142zM278 -53h-123l70 228h142z" />
    <glyph glyph-name="uniFE14" unicode="&#xfe14;" horiz-adv-x="1000" 
d="M829 512h-142l16 114h142zM700 91h-123l70 228h142z" />
    <glyph glyph-name="uniFF0F" unicode="&#xff0f;" horiz-adv-x="1000" 
d="M646 685l-164 -624h-134l164 624h134z" />
    <glyph glyph-name="uniFE30" unicode="&#xfe30;" horiz-adv-x="1000" 
d="M825 544l-21 -152h-154l21 152h154zM785 225l-21 -152h-154l21 152h154z" />
    <glyph glyph-name="uniFF3F" unicode="&#xff3f;" horiz-adv-x="1000" 
d="M706 -42h-439l16 102h440z" />
    <glyph glyph-name="uniFE33" unicode="&#xfe33;" horiz-adv-x="600" 
d="M706 -42h-439l16 102h440z" />
    <glyph glyph-name="uniFE34" unicode="&#xfe34;" horiz-adv-x="600" 
d="M484 -42h-439l16 102h440z" />
    <glyph glyph-name="uni3008" unicode="&#x3008;" horiz-adv-x="1000" 
d="M845 685l-133 -346l67 -346h-149l-64 346l130 346h149z" />
    <glyph glyph-name="uni3009" unicode="&#x3009;" horiz-adv-x="1000" 
d="M370 685l64 -347l-130 -345h-149l133 345l-67 347h149z" />
    <glyph glyph-name="uni3010" unicode="&#x3010;" horiz-adv-x="1000" 
d="M849 783q-53 -94 -82.5 -196.5t-29.5 -228.5q0 -132 28.5 -243t84.5 -198h-206v866h205v0z" />
    <glyph glyph-name="uni3011" unicode="&#x3011;" horiz-adv-x="1000" 
d="M150 -83q56 87 84.5 198t28.5 243q0 126 -29.5 228.5t-82.5 196.5h205v-866h-206z" />
    <glyph glyph-name="uniFF5B" unicode="&#xff5b;" horiz-adv-x="1000" 
d="M788 563q-12 0 -20 -10.5t-10 -27.5l-24 -175q-5 -28 -18 -51.5t-39 -37.5q11 -7 18 -18.5t10 -25.5t3.5 -29t-1.5 -30l-21 -148q-6 -38 20 -38h35l-17 -122h-55q-23 0 -42 6t-32 20t-18.5 36.5t-0.5 54.5l26 187q2 15 -0.5 25.5t-7.5 16.5t-11.5 8.5t-12.5 3.5l-12 1
l14 105l11 2q16 3 30 11.5t19 37.5l28 206q8 56 39.5 85t85.5 29h55l-17 -122h-35v0z" />
    <glyph glyph-name="uniFE5B" unicode="&#xfe5b;" horiz-adv-x="1000" 
d="M791 563q-12 0 -20 -10.5t-10 -27.5l-24 -175q-5 -28 -18 -51.5t-39 -37.5q11 -7 18 -18.5t10 -25.5t3.5 -29t-1.5 -30l-21 -148q-6 -38 20 -38h35l-17 -122h-55q-23 0 -42 6t-32 20t-18.5 36.5t-0.5 54.5l26 187q2 15 -0.5 25.5t-7.5 16.5t-11.5 8.5t-12.5 3.5l-12 1
l14 105l11 2q16 3 30 11.5t19 37.5l28 206q8 56 39.5 85t85.5 29h55l-17 -122h-35v0z" />
    <glyph glyph-name="uniFF5D" unicode="&#xff5d;" horiz-adv-x="1000" 
d="M212 -28q12 0 20 10.5t10 27.5l24 175q5 28 18 51.5t39 37.5q-11 7 -18 18.5t-10 25.5t-3.5 29t1.5 30l21 148q6 38 -20 38h-35l17 122h55q46 0 74 -26.5t19 -90.5l-26 -187q-2 -15 0.5 -25.5t7.5 -16.5t11.5 -8.5t12.5 -3.5l12 -1l-14 -105l-11 -2q-16 -3 -30 -11.5
t-19 -37.5l-28 -206q-8 -56 -39.5 -85t-85.5 -29h-55l17 122h35v0z" />
    <glyph glyph-name="uniFE5C" unicode="&#xfe5c;" horiz-adv-x="1000" 
d="M210 -28q12 0 20 10.5t10 27.5l24 175q5 28 18 51.5t39 37.5q-11 7 -18 18.5t-10 25.5t-3.5 29t1.5 30l21 148q6 38 -20 38h-35l17 122h55q46 0 74 -26.5t19 -90.5l-26 -187q-2 -15 0.5 -25.5t7.5 -16.5t11.5 -8.5t12.5 -3.5l12 -1l-14 -105l-11 -2q-16 -3 -30 -11.5
t-19 -37.5l-28 -206q-8 -56 -39.5 -85t-85.5 -29h-55l17 122h35v0z" />
    <glyph glyph-name="uni300C" unicode="&#x300c;" horiz-adv-x="1000" 
d="M629 605q6 43 30.5 61.5t62.5 18.5h159l-20 -137h-106l-52 -373h-134l60 430v0z" />
    <glyph glyph-name="uni300D" unicode="&#x300d;" horiz-adv-x="1000" 
d="M407 73q-6 -43 -30.5 -61.5t-62.5 -18.5h-159l20 135h106l52 375h134l-60 -430v0z" />
    <glyph glyph-name="uni300A" unicode="&#x300a;" horiz-adv-x="1000" 
d="M368 340l130 345h138l-133 -345l67 -347h-138zM577 340l130 345h138l-133 -345l67 -347h-138z" />
    <glyph glyph-name="uni300B" unicode="&#x300b;" horiz-adv-x="1000" 
d="M359 685l64 -347l-130 -345h-138l133 345l-67 347h138zM568 685l64 -347l-130 -345h-138l133 345l-67 347h138z" />
    <glyph glyph-name="uniFE59" unicode="&#xfe59;" horiz-adv-x="1000" 
d="M590 282q2 67 12 125t25 108t34 92t39 78h143q-23 -49 -43 -95t-34.5 -94t-24 -100.5t-11.5 -113.5q-2 -63 2 -120t14.5 -109.5t27.5 -102.5t40 -100h-144q-42 91 -63.5 195.5t-16.5 236.5z" />
    <glyph glyph-name="uniFE5A" unicode="&#xfe5a;" horiz-adv-x="1000" 
d="M411 282q-5 -132 -32 -236.5t-75 -195.5h-147q27 50 47 100t34.5 102.5t22.5 109.5t10 120q2 61 -3.5 113.5t-16.5 100.5t-28 94t-37 95h143q18 -36 34 -78t27.5 -92t17 -108t3.5 -125z" />
    <glyph glyph-name="uni3014" unicode="&#x3014;" horiz-adv-x="1000" 
d="M632 665l213 66l-12 -119l-87 -27l-52 -498l81 -27l-12 -119l-199 66l2 1h-2z" />
    <glyph glyph-name="uniFE5D" unicode="&#xfe5d;" horiz-adv-x="1000" 
d="M632 665l213 66l-12 -119l-87 -27l-52 -498l81 -27l-12 -119l-199 66l2 1h-2z" />
    <glyph glyph-name="uni3015" unicode="&#x3015;" horiz-adv-x="1000" 
d="M305 585l-80 27l12 119l199 -66l-2 -1h2l-68 -657l-213 -66l12 119l86 27z" />
    <glyph glyph-name="uniFE5E" unicode="&#xfe5e;" horiz-adv-x="1000" 
d="M305 585l-80 27l12 119l199 -66l-2 -1h2l-68 -657l-213 -66l12 119l86 27z" />
    <glyph glyph-name="uni300E" unicode="&#x300e;" horiz-adv-x="1000" 
d="M745 678v-678h-145v783h267v-105h-122zM703 709h122v44h-182l1 -722h59v678z" />
    <glyph glyph-name="uni300F" unicode="&#x300f;" horiz-adv-x="1000" 
d="M256 22v678h145v-783h-267v105h122zM298 -9h-122v-44h182l-1 722h-59v-678z" />
    <glyph glyph-name="uni3016" unicode="&#x3016;" horiz-adv-x="1000" 
d="M839 783q13 0 19 -5.5t-5 -17.5q0 -2 -4.5 -8t-6.5 -11q-42 -85 -69.5 -182.5t-27.5 -200.5q0 -49 5.5 -101t17 -103.5t30 -99.5t44.5 -89q1 -3 6.5 -9.5t4.5 -10.5q8 -11 3 -19.5t-20 -8.5h-226v866h229zM801 -55q-24 41 -42.5 91t-30.5 104.5t-18 111.5t-7 111
q0 49 7.5 100t20.5 101.5t31 99t38 92.5h-145v-811h146z" />
    <glyph glyph-name="uni3017" unicode="&#x3017;" horiz-adv-x="1000" 
d="M164 -83q-15 0 -20 8.5t3 19.5q-1 4 4.5 10.5t6.5 9.5q26 41 44.5 89t30 99.5t17 103.5t5.5 101q0 103 -27.5 200.5t-69.5 182.5q-2 5 -6.5 11t-4.5 8q-11 12 -5 17.5t19 5.5h229v-866h-226zM200 756q20 -44 38 -92.5t31 -99t20.5 -101.5t7.5 -100q-1 -54 -7 -111
t-18 -111.5t-30.5 -104.5t-42.5 -91h146v811h-145z" />
    <glyph glyph-name="uniFE3F" unicode="&#xfe3f;" horiz-adv-x="1000" 
d="M838 -4l-340 97l-353 -103l11 149l353 100l339 -94z" />
    <glyph glyph-name="uniFE40" unicode="&#xfe40;" horiz-adv-x="1000" 
d="M845 477l-354 -100l-339 94l11 149l338 -97l354 103z" />
    <glyph glyph-name="uniFE3B" unicode="&#xfe3b;" horiz-adv-x="1000" 
d="M933 40q-94 53 -196.5 83t-228.5 30q-132 0 -243 -28.5t-198 -84.5v206h866v-206v0z" />
    <glyph glyph-name="uniFE3C" unicode="&#xfe3c;" horiz-adv-x="1000" 
d="M67 660q87 -56 198 -84.5t243 -28.5q126 0 228.5 30t196.5 83v-206h-866v206z" />
    <glyph glyph-name="uniFE37" unicode="&#xfe37;" horiz-adv-x="1000" 
d="M786 40q1 12 -9 18.5t-27 6.5h-175q-28 0 -51 10t-35 34q-16 -24 -46.5 -34t-59.5 -10h-148q-37 0 -40 -25l-3 -35h-122l4 55q1 23 9 43t23 34.5t38 23t55 8.5h187q31 0 43 14t14 26l1 12h106l1 -10q2 -16 9.5 -29t36.5 -13h206q56 0 83 -27.5t23 -81.5l-4 -55h-122l3 35
v0z" />
    <glyph glyph-name="uniFE38" unicode="&#xfe38;" horiz-adv-x="1000" 
d="M201 463q-1 -12 9.5 -18.5t27.5 -6.5h175q28 0 50.5 -10t35.5 -34q15 24 46 34t60 10h148q38 0 39 25l3 35h122l-4 -55q-3 -46 -32 -77.5t-93 -31.5h-187q-31 0 -42.5 -14t-13.5 -26l-2 -12l-105 -1l-2 11q-2 16 -9.5 29t-36.5 13h-206q-56 0 -83 27.5t-23 81.5l4 55h122
l-3 -35v0z" />
    <glyph glyph-name="uniFF3B" unicode="&#xff3b;" horiz-adv-x="1000" 
d="M827 576h-86l-86 -617h86l-15 -109h-206l117 835h206z" />
    <glyph glyph-name="uniFF3D" unicode="&#xff3d;" horiz-adv-x="1000" 
d="M344 576h-86l15 109h206l-117 -835h-206l16 109h86z" />
    <glyph glyph-name="uniFE41" unicode="&#xfe41;" horiz-adv-x="1000" 
d="M814 233q43 0 60 -22t15 -60l-11 -159l-137 1l7 106h-463l9 134h520v0z" />
    <glyph glyph-name="uniFE42" unicode="&#xfe42;" horiz-adv-x="1000" 
d="M187 388q-43 0 -60 22t-15 60l12 159l134 -2l-7 -106l465 1l-9 -134h-520v0z" />
    <glyph glyph-name="uniFE3D" unicode="&#xfe3d;" horiz-adv-x="1000" 
d="M517 427l337 -106l-9 -138l-338 109l-353 -92l10 138zM502 218l338 -106l-10 -138l-337 109l-354 -92l10 138z" />
    <glyph glyph-name="uniFE3E" unicode="&#xfe3e;" horiz-adv-x="1000" 
d="M852 487l-355 -100l-338 94l10 138l338 -97l354 103zM837 278l-354 -100l-339 94l10 138l338 -97l355 103z" />
    <glyph glyph-name="uniFF08" unicode="&#xff08;" horiz-adv-x="1000" 
d="M592 282q2 67 12 125t25 108t34 92t39 78h143q-23 -49 -43 -95t-34.5 -94t-24 -100.5t-11.5 -113.5q-2 -63 2 -120t14.5 -109.5t27.5 -102.5t40 -100h-144q-42 91 -63.5 195.5t-16.5 236.5z" />
    <glyph glyph-name="uniFF09" unicode="&#xff09;" horiz-adv-x="1000" 
d="M409 282q-5 -132 -32 -236.5t-75 -195.5h-147q27 50 47 100t34.5 102.5t22.5 109.5t10 120q2 61 -3.5 113.5t-16.5 100.5t-28 94t-37 95h143q18 -36 34 -78t27.5 -92t17 -108t3.5 -125z" />
    <glyph glyph-name="uniFE39" unicode="&#xfe39;" horiz-adv-x="1000" 
d="M834 199l52 -206h-119l-21 84h-498l-33 -84h-119l80 205l1 -1v2h657z" />
    <glyph glyph-name="uniFE3A" unicode="&#xfe3a;" horiz-adv-x="1000" 
d="M750 544l32 83h119l-80 -206l-1 2v-2l-657 -1l-52 207h119l22 -83h498z" />
    <glyph glyph-name="uniFE35" unicode="&#xfe35;" horiz-adv-x="1000" 
d="M536 248q67 0 124.5 -8t106.5 -21.5t89.5 -30.5t75.5 -36l-9 -143q-47 21 -92 39.5t-92.5 31.5t-99.5 20.5t-113 7.5q-63 0 -120 -6.5t-110.5 -19t-105 -31t-103.5 -42.5l11 144q94 45 200 70t238 25z" />
    <glyph glyph-name="uniFE36" unicode="&#xfe36;" horiz-adv-x="1000" 
d="M496 249q-132 0 -235 23.5t-191 68.5l11 147q48 -25 97 -43.5t100.5 -31t108 -18.5t119.5 -6q61 0 114 7t102 20t96.5 31.5t97.5 40.5l-10 -143q-75 -39 -175 -67.5t-235 -28.5z" />
    <glyph glyph-name="uniFE43" unicode="&#xfe43;" horiz-adv-x="1000" 
d="M828 105h-678v145h783v-267h-105v122zM859 147v-122h44v182l-722 -1v-59h678z" />
    <glyph glyph-name="uniFE44" unicode="&#xfe44;" horiz-adv-x="1000" 
d="M172 595h678v-145h-783v267h105v-122zM141 553v122h-44v-182l722 1v59h-678z" />
    <glyph glyph-name="uniFE17" unicode="&#xfe17;" horiz-adv-x="1000" 
d="M933 22q0 -13 -5.5 -19t-17.5 5q-2 0 -8 4.5t-11 6.5q-85 42 -182.5 69t-200.5 27q-49 0 -101 -5.5t-103.5 -17t-99.5 -30t-89 -44.5q-3 -1 -9.5 -6.5t-10.5 -4.5q-11 -8 -19.5 -3t-8.5 20v226h866v-228zM95 59q41 24 91 42.5t104.5 30.5t111.5 18t111 7q49 0 100 -7.5
t101.5 -20.5t99 -31t92.5 -38v145h-811v-146z" />
    <glyph glyph-name="uniFE18" unicode="&#xfe18;" horiz-adv-x="1000" 
d="M67 676q0 15 8.5 20t19.5 -3q4 1 10.5 -4.5t9.5 -6.5q41 -26 89 -44.5t99.5 -30t103.5 -17t101 -5.5q103 0 200.5 27t182.5 69q5 2 11 6.5t8 4.5q12 11 17.5 5t5.5 -19v-228h-866v226zM906 640q-44 -20 -92.5 -38t-99 -31t-101.5 -20.5t-100 -7.5q-54 1 -111 7t-111.5 18
t-104.5 30.5t-91 42.5v-146h811v145z" />
    <glyph glyph-name="uni00AD" unicode="&#xad;" horiz-adv-x="600" 
d="M383 242h-341l16 102h342z" />
    <glyph glyph-name="uni2015" unicode="&#x2015;" horiz-adv-x="1000" 
d="M982 254h-981l16 102h982z" />
    <glyph glyph-name="uniFE63" unicode="&#xfe63;" horiz-adv-x="1000" 
d="M658 242h-341l16 102h342z" />
    <glyph glyph-name="uni2010" unicode="&#x2010;" horiz-adv-x="1000" 
d="M711 254h-439l16 102h440z" />
    <glyph glyph-name="uniFE31" unicode="&#xfe31;" horiz-adv-x="1000" 
d="M639 685l-137 -835h-142l137 835h142z" />
    <glyph glyph-name="uniFF0D" unicode="&#xff0d;" horiz-adv-x="1000" 
d="M663 242h-341l16 102h342z" />
    <glyph glyph-name="guillemotleft" unicode="&#xab;" horiz-adv-x="424" 
d="M130 61l-85 210l85 211h102l-64 -211l64 -210h-102zM293 61l-85 210l85 211h101l-65 -211l65 -210h-101z" />
    <glyph glyph-name="guillemotright" unicode="&#xbb;" horiz-adv-x="424" 
d="M131 61h-101l65 210l-65 211h101l85 -211zM294 61h-102l64 210l-64 211h102l85 -211z" />
    <glyph glyph-name="uni2034" unicode="&#x2034;" horiz-adv-x="600" 
d="M45 482l70 203h113l-89 -203h-94z" />
    <glyph glyph-name="uni3001" unicode="&#x3001;" horiz-adv-x="1000" 
d="M336 -4h-132l-49 179h133z" />
    <glyph glyph-name="uniFE11" unicode="&#xfe11;" horiz-adv-x="1000" 
d="M845 447h-132l-49 179h133z" />
    <glyph glyph-name="uniFE51" unicode="&#xfe51;" horiz-adv-x="1000" 
d="M336 -4h-132l-49 179h133z" />
    <glyph glyph-name="uni3002" unicode="&#x3002;" horiz-adv-x="1000" 
d="M417 174l-16 -127q-3 -23 -21 -38.5t-41 -15.5h-184l24 182h238v-1zM257 127l-10 -86h68l9 86h-67z" />
    <glyph glyph-name="uniFE12" unicode="&#xfe12;" horiz-adv-x="1000" 
d="M845 626l-16 -127q-3 -23 -21 -38.5t-41 -15.5h-184l24 182h238v-1zM685 579l-10 -86h68l9 86h-67z" />
    <glyph glyph-name="uni3000" unicode="&#x3000;" horiz-adv-x="300" 
 />
    <glyph glyph-name="uniFE69" unicode="&#xfe69;" horiz-adv-x="1000" 
d="M591 516l-16 -114h208l-30 -217q-4 -29 -26.5 -48.5t-51.5 -19.5h-140l-8 -57h-152l8 57h-209l19 133l32 -38h171l14 95h-209l42 304h209l4 28l-24 28h180l-8 -56h209l-19 -133h-152l5 38h-56zM365 402h58l16 114h-57zM605 212l13 95h-56l-14 -95h57z" />
    <glyph glyph-name="Euro" unicode="&#x20ac;" horiz-adv-x="633" 
d="M617 68q-16 -20 -37 -38t-47.5 -31.5t-58.5 -22t-70 -8.5q-64 0 -118.5 20.5t-97 57.5t-71 89t-41.5 114h-76l20 30h50q-2 17 -3 33.5t-1 33.5t1 32.5t3 31.5h-70l20 30h56q13 60 42 110.5t72 87t99 57t123 20.5q28 0 51 -2.5t46 -7t48 -11t58 -15.5l-6 -145h-25l-39 94
q-32 24 -66.5 38t-76.5 14q-52 0 -91 -20.5t-67 -54t-45.5 -76.5t-26.5 -89h251l-20 -30h-235q-3 -18 -4 -36t-1 -35q0 -15 1 -30.5t3 -29.5h256l-20 -30h-230q11 -47 33 -86.5t54 -68t73 -45t91 -16.5q30 0 54 3t45 10t41 18t41 26l12 -22v0z" />
    <glyph glyph-name="uniFFE0" unicode="&#xffe0;" horiz-adv-x="1000" 
d="M683 162q-9 -15 -26 -29.5t-39.5 -26t-48 -18t-50.5 -6.5q-28 0 -53 4t-48 12l-59 -144h-51l67 164q-52 32 -80 87t-28 129q0 57 16.5 107t48 86.5t78 57.5t107.5 21q28 0 55 -3l54 131h51l-57 -139q14 -3 28.5 -6t28.5 -7l-6 -113h-25l-39 66q-2 3 -8 9l-153 -376
q20 -12 44 -19t53 -7q33 0 67 10.5t63 36.5zM359 354q0 -44 12 -84t38 -69l149 367q-17 5 -29 5q-44 0 -76 -20.5t-53 -53t-31 -71t-10 -74.5z" />
    <glyph glyph-name="uniFF04" unicode="&#xff04;" horiz-adv-x="1000" 
d="M597 516l-16 -114h208l-30 -217q-4 -29 -26.5 -48.5t-51.5 -19.5h-140l-8 -57h-152l8 57h-209l19 133l32 -38h171l14 95h-209l42 304h209l4 28l-24 28h180l-8 -56h209l-19 -133h-152l5 38h-56zM371 402h58l16 114h-57zM611 212l13 95h-56l-14 -95h57z" />
    <glyph glyph-name="uniFFE1" unicode="&#xffe1;" horiz-adv-x="1000" 
d="M264 10q16 16 33.5 39.5t32 51t23.5 57t9 58.5q0 28 -6.5 56.5t-15.5 57.5h-113v30h103q-14 39 -25 79.5t-11 82.5q0 49 15 85.5t42.5 60.5t65.5 35.5t84 11.5q54 0 100 -13.5t95 -34.5l-6 -113h-25l-39 72q-22 26 -49 42.5t-69 16.5q-33 0 -56 -14.5t-37.5 -38
t-21.5 -53.5t-7 -60q0 -45 8 -83t17 -76h219v-30h-212q5 -22 8 -44t4 -46q1 -29 -10 -59.5t-27.5 -59t-35.5 -52.5t-35 -39h316l39 120h25l6 -170h-444v30v0z" />
    <glyph glyph-name="uniFFE5" unicode="&#xffe5;" horiz-adv-x="1000" 
d="M426 602l-20 24h199l-227 -285h139l-13 -95h-152l-26 -186h-152l26 186h-151l13 95h139l-134 259l-22 26h171l87 -193z" />
    <glyph glyph-name="uniFE66" unicode="&#xfe66;" horiz-adv-x="1000" 
d="M686 353h-401l13 93h402zM654 190h-401l13 93h402z" />
    <glyph glyph-name="uniFE65" unicode="&#xfe65;" horiz-adv-x="1000" 
d="M157 87l20 157l261 103l-231 103l20 148l377 -191l-18 -129z" />
    <glyph glyph-name="uniFE64" unicode="&#xfe64;" horiz-adv-x="1000" 
d="M792 235l-22 -148l-376 191l18 129l430 191l-22 -157l-260 -103z" />
    <glyph glyph-name="uniFE62" unicode="&#xfe62;" horiz-adv-x="1000" 
d="M512 60h-152l27 190h-171l13 95h171l24 171h152l-24 -171h171l-14 -95h-170z" />
    <glyph glyph-name="uniFF5E" unicode="&#xff5e;" horiz-adv-x="1000" 
d="M614 293l158 48l-17 -124l-158 -45l-213 72l-163 -46l17 124l159 47z" />
    <glyph glyph-name="uniFF5C" unicode="&#xff5c;" horiz-adv-x="1000" 
d="M591 685l-114 -835h-125l114 835h125z" />
    <glyph glyph-name="uniFF1D" unicode="&#xff1d;" horiz-adv-x="1000" 
d="M706 353h-401l13 93h402zM674 190h-401l13 93h402z" />
    <glyph glyph-name="uniFF1E" unicode="&#xff1e;" horiz-adv-x="1000" 
d="M277 87l20 157l261 103l-231 103l20 148l377 -191l-18 -129z" />
    <glyph glyph-name="uniFF1C" unicode="&#xff1c;" horiz-adv-x="1000" 
d="M667 235l-22 -148l-376 191l18 129l430 191l-22 -157l-260 -103z" />
    <glyph glyph-name="uniFFE2" unicode="&#xffe2;" horiz-adv-x="1000" 
d="M664 173h-62v145h-329v62h391v-207z" />
    <glyph glyph-name="uniFF0B" unicode="&#xff0b;" horiz-adv-x="1000" 
d="M542 60h-152l27 190h-171l13 95h171l24 171h152l-24 -171h171l-14 -95h-170z" />
    <glyph glyph-name="uni3013" unicode="&#x3013;" horiz-adv-x="1000" 
d="M157 445v248h686v-248h-686zM157 7v248h686v-248h-686z" />
    <glyph glyph-name="uni3012" unicode="&#x3012;" horiz-adv-x="1000" 
d="M200 642v63h600v-63h-600zM543 403v-423h-86v423h-257v62h600v-62h-257z" />
    <glyph glyph-name="uni2121" unicode="&#x2121;" horiz-adv-x="1000" 
d="M109 653h-12l-3 70h308l-3 -70h-13l-20 49h-92v-315l42 -15v-10h-137v10l42 15v315h-92zM465 387v311l-42 15v10h244l-3 -70h-12l-20 49h-124v-141h102l15 33h12v-86h-12l-15 32h-102v-157h135l19 60h13l3 -81h-255v10zM714 723h127v-10l-42 -15v-315h134l25 71h10l3 -92
h-257v10l42 15v311l-42 15v10z" />
    <glyph glyph-name="uniFFE4" unicode="&#xffe4;" horiz-adv-x="1000" 
d="M541 297h-72v426h72v-426zM541 -253h-72v426h72v-426z" />
    <glyph glyph-name="uniFF3E" unicode="&#xff3e;" horiz-adv-x="1000" 
d="M676 460h-119l-49 84l-62 -84h-117l132 166h105z" />
    <glyph glyph-name="uniFF40" unicode="&#xff40;" horiz-adv-x="1000" 
d="M354 549l-178 174h112l135 -174h-69z" />
    <glyph glyph-name="uniFFE3" unicode="&#xffe3;" horiz-adv-x="1000" 
d="M596 614h-243v54h243v-54z" />
    <glyph glyph-name="uni32A3" unicode="&#x32a3;" horiz-adv-x="1000" 
d="M500 843q68 0 130.5 -17.5t117.5 -49.5t100 -77.5t77 -100t49.5 -117.5t17.5 -131q0 -102 -39 -191.5t-105.5 -156t-156 -105.5t-191.5 -39t-191.5 39t-156.5 105.5t-105.5 156t-38.5 191.5t38.5 192t105.5 156.5t156.5 105.5t191.5 39zM500 809q-94 0 -176.5 -36.5
t-144 -99t-97 -146t-35.5 -177.5q0 -78 24.5 -148.5t69.5 -129.5h135v374l-16 16v17h76v-407h141v551h-293l-6 23h529l39 46q17 -10 39.5 -27t36.5 -30l-8 -12h-277v-232h125l38 47q8 -5 19 -12t21.5 -15t20 -16t15.5 -14l-8 -13h-231v-296h201l42 49q16 -10 38.5 -25.5
t36.5 -29.5q47 59 73 131t26 153q0 94 -36 177.5t-97.5 146t-144 99t-176.5 36.5zM500 -109q103 0 190.5 43t150.5 115h-682q63 -72 150.5 -115t190.5 -43z" />
    <glyph glyph-name="uni3231" unicode="&#x3231;" horiz-adv-x="1000" 
d="M216 783q-37 -42 -62.5 -94t-41.5 -109t-23.5 -117t-7.5 -118t8.5 -118t26 -117t42.5 -109t58 -94h-30q-41 46 -72 95t-52 102t-31.5 112.5t-10.5 128.5q0 72 10.5 133.5t31.5 114.5t52 99.5t72 90.5h30zM814 783q41 -44 72 -90.5t52 -99.5t31.5 -114.5t10.5 -133.5
q0 -69 -10.5 -128.5t-31.5 -112.5t-52 -102t-72 -95h-30q35 42 60.5 94t42 109t24.5 117t8 118t-7.5 118t-23.5 117t-41.5 109t-62.5 94h30zM368 303q-14 29 -26.5 51.5t-26.5 41.5v-396h-54v355q-19 -49 -46 -93t-72 -87l-10 7q45 74 70.5 155t42.5 170h-97l-6 19h118v145
l-16 16v17h70v-178h24l32 41q14 -9 33.5 -24.5t30.5 -27.5l-6 -8h-114v-79q23 -10 41.5 -20.5t30 -24t14.5 -30.5t-6 -40zM819 71q-33 19 -62.5 48t-53.5 64.5t-42.5 75t-28.5 78.5v-343h-57v292q-38 -74 -93.5 -133t-134.5 -99l-7 9q40 36 70 68.5t52.5 65.5t40.5 69t35 80
h-123l-5 20h165v145h-85q-17 -33 -37.5 -61.5t-49.5 -52.5l-10 6q35 60 51.5 116.5t23.5 95.5l-12 19l6 15l77 -11q-9 -29 -19 -56t-21 -52h76v139l-17 18v16h74v-173h71l36 44q15 -9 37.5 -25.5t34.5 -29.5l-7 -8h-172v-145h119l38 45q16 -10 38.5 -26.5t34.5 -29.5l-7 -9
h-211q34 -78 92 -131.5t134 -85.5v-10q-28 -14 -37 -24.5t-14 -23.5z" />
    <glyph glyph-name="uni02C9" unicode="&#x2c9;" horiz-adv-x="624" 
d="M433 614h-243v54h243v-54z" />
    <glyph glyph-name="uni02CB" unicode="&#x2cb;" horiz-adv-x="624" 
d="M366 550l-160 134l66 58l120 -170z" />
    <glyph glyph-name="uni02CA" unicode="&#x2ca;" horiz-adv-x="624" 
d="M232 572l120 170l66 -58l-160 -134z" />
    <glyph glyph-name="uni0308" unicode="&#x308;" horiz-adv-x="0" 
d="M-446 638q0 24 17.5 41.5t41.5 17.5q23 0 40.5 -17.5t17.5 -41.5q0 -23 -17.5 -40.5t-40.5 -17.5q-24 0 -41.5 17.5t-17.5 40.5zM-246 638q0 24 17.5 41.5t41.5 17.5q23 0 40.5 -17.5t17.5 -41.5q0 -23 -17.5 -40.5t-40.5 -17.5q-24 0 -41.5 17.5t-17.5 40.5z" />
    <glyph glyph-name="uni0302" unicode="&#x302;" horiz-adv-x="0" 
d="M-181 550l-107 100l-107 -100l-26 22l120 170h26l120 -170z" />
    <glyph glyph-name="uni030C" unicode="&#x30c;" horiz-adv-x="0" 
d="M-395 742l107 -100l107 100l26 -22l-120 -170h-26l-120 170z" />
    <glyph glyph-name="uni0304" unicode="&#x304;" horiz-adv-x="0" 
d="M-261 614h-243v54h243v-54z" />
    <glyph glyph-name="NULL" horiz-adv-x="0" 
 />
    <glyph glyph-name="NULL" horiz-adv-x="0" 
 />
    <glyph glyph-name="uni0002" horiz-adv-x="0" 
 />
    <glyph glyph-name="uni0009" unicode="&#x9;" horiz-adv-x="0" 
 />
    <glyph glyph-name="uni000A" unicode="&#xa;" horiz-adv-x="0" 
 />
    <glyph glyph-name="nonmarkingreturn" unicode="&#xd;" horiz-adv-x="0" 
 />
    <glyph glyph-name="uni4E07" unicode="&#x4e07;" 
d="M595 83l37 267h-262l-168 -359h-190l283 606h-198l13 95h798l-13 -95h-410l-71 -152h422l-55 -386q-4 -29 -27 -48.5t-52 -19.5h-196z" />
    <glyph glyph-name="uni4E08" unicode="&#x4e08;" 
d="M534 599l11 75l-26 37h232l-16 -112h175l-14 -99h-175l-15 -103l-163 -137l300 -267h-247l-176 163l-193 -163h-218l306 262l-185 173h225l79 -71l76 65l11 78h-417l14 99h416z" />
    <glyph glyph-name="uni4E09" unicode="&#x4e09;" 
d="M895 684l-14 -102h-737l14 102h737zM826 420l-14 -102h-683l14 102h683zM840 116l-14 -102h-801l14 102h801z" />
    <glyph glyph-name="uni4E0A" unicode="&#x4e0a;" 
d="M319 103l80 571l-33 37h228l-37 -266h323l-13 -95h-324l-34 -247h342l-13 -95h-798l13 95h266z" />
    <glyph glyph-name="uni4E0B" unicode="&#x4e0b;" 
d="M807 141h-190l-131 283l-61 -433h-190l85 606h-266l13 95h798l-13 -95h-342l-10 -76h132z" />
    <glyph glyph-name="uni4E0C" unicode="&#x4e0c;" 
d="M900 682l-13 -96h-113l-83 -593h-186l83 593h-178l-205 -593h-185l205 593h-134l13 96h796z" />
    <glyph glyph-name="uni4E0D" unicode="&#x4e0d;" 
d="M846 103h-190l-99 247l-50 -359h-190l50 359l-167 -247h-190l334 494h-246l13 95h798l-13 -95h-362l-39 -57h177z" />
    <glyph glyph-name="uni4E0E" unicode="&#x4e0e;" 
d="M138 331l101 347l-29 33h228l-28 -95h490l-13 -95h-505l-27 -95h480l-49 -350q-4 -29 -26 -48.5t-51 -19.5h-367l87 92v3h171l32 228h-494zM547 265l-14 -95h-513l14 95h513z" />
    <glyph glyph-name="uni4E10" unicode="&#x4e10;" 
d="M38 255l68 255l-26 33h194l-51 -193h109l35 252h-294l13 92h796l-13 -92h-309l-10 -72h273l-14 -96h-273l-11 -84h308l-40 -285q-5 -29 -27 -47.5t-51 -18.5h-321l89 93h120l23 163h-588z" />
    <glyph glyph-name="uni4E11" unicode="&#x4e11;" 
d="M188 108l60 216h-125l13 96h138l50 178h-182l13 95h742l-13 -95l-99 -490h84l-14 -96h-832l14 96h151zM378 108h217l43 216h-200zM514 598l-50 -178h193l35 178h-178z" />
    <glyph glyph-name="uni4E13" unicode="&#x4e13;" 
d="M384 160l31 -22l126 80h-415l102 160h-193l13 95h241l43 67h-208l14 95h255l33 51l-22 25h228l-49 -76h257l-14 -95h-303l-43 -67h404l-13 -95h-452l-42 -66h408l-13 -94v-1l-248 -152l86 -57h-228l-226 152h228z" />
    <glyph glyph-name="uni4E14" unicode="&#x4e14;" 
d="M143 103l78 551l-33 38h684l-83 -589h95l-13 -95h-836l13 95h95zM361 299h266l14 102h-266zM333 103h266l14 101h-266zM389 496h266l14 101h-266z" />
    <glyph glyph-name="uni4E15" unicode="&#x4e15;" 
d="M902 695l-13 -96h-388l-45 -69h134l-60 -425h302l-13 -96h-802l13 96h314l45 323l-149 -228h-207l262 399h-174l13 96h768zM860 224h-165l-90 296h161z" />
    <glyph glyph-name="uni4E16" unicode="&#x4e16;" 
d="M34 8l60 427h-57l13 95h57l18 126l-33 38h228l-23 -164h66l19 133l-24 29h218l-23 -162h67l19 134l-25 28h219l-23 -162h76l-13 -95h-76l-36 -256h-447l36 256h-66l-44 -313h532l43 38l-21 -152h-760zM584 274l22 161h-67l-22 -161h67z" />
    <glyph glyph-name="uni4E18" unicode="&#x4e18;" 
d="M122 108l75 532l-30 33l738 27l-14 -99l-523 -16l-18 -130h533l-14 -96h-116l-35 -251h146l-13 -96h-836l13 96h94zM301 108h240l35 251h-240z" />
    <glyph glyph-name="uni4E19" unicode="&#x4e19;" 
d="M369 530l25 66h-336l14 96h836l-14 -96h-337l-24 -66h331l-65 -460q-4 -28 -26.5 -49t-51.5 -21h-157l68 78l50 353h-184l-17 -46h79l56 -242h-146l-42 145l-107 -145h-125l-19 -141h-165l74 528h283zM331 431h-94l-34 -237l91 138z" />
    <glyph glyph-name="uni4E1A" unicode="&#x4e1a;" 
d="M205 103l78 551l-33 38h228l-83 -589h76l78 551l-33 38h228l-83 -589h190l-13 -95h-836l13 95h190zM696 217l89 361h133l-89 -361h-133zM69 217l13 361h133l-13 -361h-133z" />
    <glyph glyph-name="uni4E1B" unicode="&#x4e1b;" 
d="M791 710l-66 -163l161 -390h-166l-79 182l-72 -180h-166l25 61l-86 178l-97 -241h-165l210 522l-26 30h203l-47 -116l87 -177l106 264l-26 30h204zM880 105l-13 -96h-834l13 96h834z" />
    <glyph glyph-name="uni4E1C" unicode="&#x4e1c;" 
d="M129 426l89 133h-109l14 95h159l22 32l-21 25h228l-39 -57h430l-14 -95h-480l-89 -133h75l11 76h190l-11 -76h248l-14 -95h-247l-38 -274q-5 -29 -27 -47.5t-51 -18.5h-198l90 93l34 247h-266zM853 36h-170l-61 248h170zM187 36h-170l131 248h170z" />
    <glyph glyph-name="uni4E1D" unicode="&#x4e1d;" 
d="M849 106l-14 -96h-795l14 96h795zM125 475l136 203l-21 25h209l-147 -198h175l-197 -230h170l-15 -104h-348l13 91l102 118h-91zM526 471l137 203l-21 29h209l-147 -198h175l-198 -231h167l-14 -105h-350l12 89l108 118h-91z" />
    <glyph glyph-name="uni4E1E" unicode="&#x4e1e;" 
d="M426 522l-198 -378h-175l165 283h-103l13 95h298zM884 102l-13 -96h-835l13 96h835zM424 490l230 110h-480l13 92h683l-18 -129l-252 -132l-35 -243q-4 -27 -26 -46.5t-49 -19.5h-191l86 92zM648 427l218 97l-18 -125l-73 -39l67 -217h-144l-61 204z" />
    <glyph glyph-name="uni4E22" unicode="&#x4e22;" 
d="M384 519l10 75l-275 -7l13 94l752 19l-14 -94l-282 -7l-11 -80h256l-14 -99h-256l-11 -78h295l-13 -95h-427l-131 -145l321 10l-42 104h174l90 -222h-174l-12 29l-565 -16l14 100l136 140h-183l13 95h311l11 78h-253l14 99h253z" />
    <glyph glyph-name="uni4E24" unicode="&#x4e24;" 
d="M564 8l89 94l3 20h-95l-16 93l-42 -93h-170l-16 93l-42 -93h-95l-16 -114h-142l76 542h190l7 47h-208l13 95h798l-13 -95h-210l-7 -47h190l-67 -474q-4 -28 -26 -48t-51 -20h-150zM431 215l68 150l12 90h-95l-11 -85zM644 455l-11 -85l31 -187l39 272h-59zM188 183
l84 185l12 87h-57zM430 550h96l7 47h-96z" />
    <glyph glyph-name="uni4E25" unicode="&#x4e25;" 
d="M280 341l-91 -333h-181l117 428h219l23 161h-228l13 95h760l-13 -95h-219l-23 -161h219l-13 -95h-583zM842 464h-152l34 105h152zM320 464h-152l-5 105h152zM477 436h48l23 161h-48z" />
    <glyph glyph-name="uni4E27" unicode="&#x4e27;" 
d="M359 398l24 167h-290l13 95h290l2 11l-33 38h231l-7 -49h290l-13 -95h-290l-24 -167h302l-14 -95h-549l-27 -194l170 9l-15 -108l-361 -17l43 310h-60l14 95h304zM353 275h206l27 -31l249 36l-14 -100l-154 -24l149 -162h-224zM612 433l42 104h186l-42 -104h-186z
M136 432l-20 105h175l20 -105h-175z" />
    <glyph glyph-name="uni4E28" unicode="&#x4e28;" 
d="M409 671l-33 38h230l-100 -716h-192z" />
    <glyph glyph-name="uni4E2A" unicode="&#x4e2a;" 
d="M660 388l-96 228h-144l-159 -228h-219l209 299l-20 24h512l135 -323h-218zM569 483l-70 -492h-190l70 492h190z" />
    <glyph glyph-name="uni4E2B" unicode="&#x4e2b;" 
d="M517 497l-74 -503h-187l74 503h187zM695 520h-214l178 171h212zM153 520l-104 171h212l105 -171h-213z" />
    <glyph glyph-name="uni4E2C" unicode="&#x4e2c;" 
d="M414 194l-163 -40l19 133l162 40l17 121l-152 27l18 131l153 -27l13 94l-32 36h219l-100 -717h-182z" />
    <glyph glyph-name="uni4E2D" unicode="&#x4e2d;" 
d="M342 246h-304l46 322h303l15 105l-32 38h228l-21 -143h305l-46 -322h-304l-36 -255h-190zM564 473l-19 -132h115l18 132h-114zM355 341l19 132h-114l-18 -132h113z" />
    <glyph glyph-name="uni4E30" unicode="&#x4e30;" 
d="M382 436l13 93h-288l14 98h288l7 48l-33 35h243l-12 -83h268l-14 -98h-268l-13 -93h251l-13 -95h-252l-14 -97h307l-13 -96h-307l-22 -156h-205l22 156h-304l13 96h304l14 97h-250l13 95h251z" />
    <glyph glyph-name="uni4E32" unicode="&#x4e32;" 
d="M424 655l3 19l-33 36h219l-8 -55h279l-34 -242h-279l-7 -49h305l-36 -258h-304l-16 -113h-181l16 113h-312l36 258h311l7 49h-277l34 242h277zM361 200l9 70h-141l-10 -70h142zM551 270l-9 -70h134l10 70h-135zM593 569l-10 -70h105l10 70h-105zM402 499l10 70h-103
l-10 -70h103z" />
    <glyph glyph-name="uni4E34" unicode="&#x4e34;" 
d="M885 390l-54 -381h-481l54 381h481zM275 684l-24 26h168l-102 -718h-140zM97 617l-24 28h165l-86 -616h-137zM653 709l-23 -56h275l-14 -95h-298l-48 -121h-152l100 272h160zM784 523l20 -107h-159l-20 107h159zM543 95l29 209h-39l-29 -209h39zM691 304l-29 -209h39
l29 209h-39z" />
    <glyph glyph-name="uni4E36" unicode="&#x4e36;" 
d="M547 527l49 -345h-225l-48 345h224z" />
    <glyph glyph-name="uni4E38" unicode="&#x4e38;" 
d="M325 612l33 70l-26 28h228l-45 -98h321l-71 -502h71l43 38l-21 -154h-301l72 517h-161l-72 -156l162 -62l-22 -154l-201 82l-105 -228h-190l135 293l-69 28l20 145l109 -42l44 94h-162l15 101h193z" />
    <glyph glyph-name="uni4E39" unicode="&#x4e39;" 
d="M584 79l30 217h-314l-67 -302h-190l66 302h-44l13 95h52l56 256l-27 43h701l-42 -299h58l-13 -95h-59l-33 -240q-4 -29 -21 -45.5t-37 -16.5h-190zM321 391h307l29 208h-290zM572 569l17 -141h-159l-17 141h159z" />
    <glyph glyph-name="uni4E3A" unicode="&#x4e3a;" 
d="M545 540h343l-68 -483q-5 -29 -27 -47.5t-51 -18.5h-197l88 92l51 362h-195l-40 -67h131l31 -209h-179l-22 142l-189 -320h-190l267 454h-222l14 95h264l86 145l-22 26h228zM327 673l15 -95h-181l-15 95h181z" />
    <glyph glyph-name="uni4E3B" unicode="&#x4e3b;" 
d="M419 654l3 21l-33 36h228l-8 -57h285l-14 -105h-286l-23 -161h267l-15 -105h-266l-24 -170h304l-14 -105h-798l14 105h304l24 170h-266l15 105h265l23 161h-284l14 105h285z" />
    <glyph glyph-name="uni4E3D" unicode="&#x4e3d;" 
d="M898 691l-13 -95h-798l13 95h798zM462 553l-67 -477q-5 -29 -27.5 -48.5t-50.5 -19.5h-127l67 71l56 398h-87l-66 -468h-139l77 544h364zM279 409l-11 -216h-61l12 216h60zM874 553l-67 -477q-5 -29 -27.5 -48.5t-50.5 -19.5h-128l67 71l56 398h-96l-66 -468h-139l77 544
h374zM684 409l-11 -216h-61l12 216h60z" />
    <glyph glyph-name="uni4E3E" unicode="&#x4e3e;" 
d="M875 710l-85 -155h100l-13 -91h-100l88 -203h-162l-30 69l-11 -77h-119l-8 -56h305l-13 -95h-305l-15 -108h-193l15 108h-299l13 95h299l8 56h-120l10 73l-45 -64h-160l142 202h-99l13 91h509l85 155h190zM555 344h112l-52 120h-277l-85 -120h109l11 74h193zM343 710
l12 -121h-190l-12 121h190zM589 710l11 -119h-189l-11 119h189z" />
    <glyph glyph-name="uni4E3F" unicode="&#x4e3f;" 
d="M439 -8h-190l221 668l-28 32h228z" />
    <glyph glyph-name="uni4E43" unicode="&#x4e43;" 
d="M738 445h150l-47 -339q-6 -40 -27 -67.5t-44 -27.5h-295l50 94h149l37 261h-150l6 44l113 186h-222l-236 -586h-190l236 586h-137l14 96h701l-13 -90z" />
    <glyph glyph-name="uni4E45" unicode="&#x4e45;" 
d="M306 686l-21 24h216l-47 -77h340l-14 -96l-193 -205h70l213 -339h-195l-164 258l-241 -257h-220l521 542h-176l-102 -168h-186z" />
    <glyph glyph-name="uni4E47" unicode="&#x4e47;" 
d="M843 326l-325 -12l-28 -202h286l43 38l-20 -142h-512l41 300l-287 -10l16 109l286 10l23 162l-269 -17l15 101l766 48l-14 -101l-307 -19l-23 -168l325 12z" />
    <glyph glyph-name="uni4E48" unicode="&#x4e48;" 
d="M688 -9l-4 51l-499 -51l20 110l351 496h190l-333 -473l262 26l-15 181h171l28 -340h-171zM251 255h-190l312 432l-20 24h228z" />
    <glyph glyph-name="uni4E49" unicode="&#x4e49;" 
d="M357 263l-233 239l16 114l-32 38h219l-16 -110l174 -179l225 179l10 72l-32 38h218l-22 -152l-300 -239l266 -272h-227l-167 171l-215 -171h-227zM443 673l-32 38h209l-24 -171h-171z" />
    <glyph glyph-name="uni4E4B" unicode="&#x4e4b;" 
d="M408 635l3 21l-31 36h245l-8 -57h286l-16 -114l-459 -386l47 -13h394l-16 -114h-427l-113 30l-36 -30h-260l605 513h-514l16 114h284z" />
    <glyph glyph-name="uni4E4C" unicode="&#x4e4c;" 
d="M645 478l13 79h-371l-25 -172h623l-46 -325q-4 -29 -29.5 -48.5t-54.5 -19.5h-326l86 77h139l33 217h-612l49 362h257l17 26l-31 36h243l-41 -62h282l-24 -160q-5 -29 -28 -49.5t-52 -20.5h-165zM614 220l-13 -95h-567l13 95h567z" />
    <glyph glyph-name="uni4E4D" unicode="&#x4e4d;" 
d="M179 686l-20 24h211l-42 -91h552l-14 -95h-363l-14 -94h329l-14 -97h-328l-12 -87h346l-13 -97h-347l-21 -155h-185l74 530h-33v3l-58 -126h-187z" />
    <glyph glyph-name="uni4E4E" unicode="&#x4e4e;" 
d="M370 353l34 244l-290 -7l13 94l761 19l-13 -94l-276 -7l-35 -249h311l-14 -97h-310l-26 -186q-2 -14 -9 -28t-18 -24.5t-24.5 -17t-27.5 -6.5h-206l94 101l22 161h-324l14 97h324zM624 384l66 173h181l-66 -173h-181zM149 385l-21 171h172l21 -171h-172z" />
    <glyph glyph-name="uni4E4F" unicode="&#x4e4f;" 
d="M420 485l6 41l-31 36h200l-11 -77h284l-13 -94l-421 -267l46 -12h393l-15 -103h-426l-117 33l-52 -33h-240l587 382h-494l13 94h291zM882 606l-734 -24l13 97l735 24z" />
    <glyph glyph-name="uni4E50" unicode="&#x4e50;" 
d="M610 418h261l-14 -95h-261l-36 -261q-5 -29 -27 -47.5t-51 -18.5h-198l89 93l33 234h-326l14 95l84 235l-23 37h738l-14 -95h-551l-56 -177h147l19 129h190zM854 20h-170l-57 257h170zM196 20h-170l127 256h171z" />
    <glyph glyph-name="uni4E52" unicode="&#x4e52;" 
d="M137 294l50 357l-23 28l68 2l33 2l630 26l-13 -93l-513 -26l-11 -74h511l-13 -96h-80l-18 -126h120l-13 -96h-801l13 96h60zM235 -8h-211l155 176h210zM327 294h246l18 126h-246z" />
    <glyph glyph-name="uni4E53" unicode="&#x4e53;" 
d="M129 296l52 365l-21 18l46 2l34 2l631 26l-13 -93l-498 -26l-11 -76h516l-14 -96h-103l-17 -122h122l-13 -96h-791l13 96h67zM792 -7h-229l-110 171h229zM318 296h231l17 122h-231z" />
    <glyph glyph-name="uni4E54" unicode="&#x4e54;" 
d="M290 526l67 71l-215 -2l14 99l717 8l-14 -100l-285 -3l-69 -73h383l-13 -96h-147l133 -178h-124l-36 -259h-180l44 312h66l-88 125h-129l-118 -125h73l-144 -312h-193l123 280h-104l148 157h-118l13 96h196z" />
    <glyph glyph-name="uni4E56" unicode="&#x4e56;" 
d="M404 548l7 49l-298 -9l14 96l759 24l-13 -96l-282 -9l-8 -55h306l-13 -94h-306l-64 -460h-179l64 460h-311l13 94h311zM821 73h-257l50 355h154l-10 -73l106 33l-15 -106l-106 -32l-12 -87h51l57 41zM149 122l-118 -20l12 88l119 20l12 84h-116l12 86h116l7 50h148
l-52 -368h-148z" />
    <glyph glyph-name="uni4E58" unicode="&#x4e58;" 
d="M421 578l4 33l-280 -9l12 85l733 24l-11 -85l-278 -9l-5 -39h307l-13 -88h-307l-69 -496h-175l69 496h-311l13 88h311zM855 234h-277l35 244h152l-6 -40l128 33l-14 -96l-128 -33l-3 -24h73l58 43zM191 248l-130 -16l12 86l130 16l5 37h-127l10 72h127l4 25h152l-33 -236
h-152zM755 207l88 -196l-184 1l-86 195h182zM335 206l-138 -197l-180 -1l140 198h178z" />
    <glyph glyph-name="uni4E59" unicode="&#x4e59;" 
d="M877 696l-16 -115l-593 -469h487l65 57l-22 -160h-756l17 125l586 462h-502l14 100h720z" />
    <glyph glyph-name="uni4E5C" unicode="&#x4e5c;" 
d="M651 489l-300 -35l-46 -331h486l43 39l-21 -152h-728l59 419l-89 -10l14 99l89 13l20 140l-33 38h242l-21 -146l498 76l-48 -346q-5 -29 -27 -48.5t-51 -19.5h-162l43 38z" />
    <glyph glyph-name="uni4E5D" unicode="&#x4e5d;" 
d="M557 711l-71 -152h354l-61 -437h57l43 38l-21 -152l-285 1l64 455h-195l-211 -456h-190l212 456h-129l13 95h160l57 123l-25 29h228z" />
    <glyph glyph-name="uni4E5E" unicode="&#x4e5e;" 
d="M747 476l-15 -105l-445 -263h461l66 57l-22 -157h-737l13 97l443 266h-424l15 105h645zM383 708l-37 -58h519l-14 -97h-567l-35 -56h-189l110 191l-14 20h227z" />
    <glyph glyph-name="uni4E5F" unicode="&#x4e5f;" 
d="M403 417l-98 -26l-37 -269h532l43 38l-21 -152h-760l46 332l-79 -20l14 95l79 20l25 181l-33 38h228l-24 -168l99 26l24 171l-25 28h210l-21 -151l286 75l-47 -331q-4 -29 -26 -48.5t-51 -19.5h-160l43 38l30 215l-89 -23l-37 -268h-181z" />
    <glyph glyph-name="uni4E60" unicode="&#x4e60;" 
d="M615 103l70 494h-570l13 95h760l-87 -616q-4 -29 -26 -48.5t-51 -19.5h-198zM373 549l128 -171h-209l-128 171h209zM570 331l-330 -323h-209l330 323h209z" />
    <glyph glyph-name="uni4E61" unicode="&#x4e61;" 
d="M153 271l167 125h-162l12 82l234 233h194l-227 -227h64l128 123h212l-332 -309h160l84 175h185l-199 -467h-625l14 99h449l47 99h-414z" />
    <glyph glyph-name="uni4E66" unicode="&#x4e66;" 
d="M854 711l42 -152h-95l-23 -170h75l-41 -294q-4 -29 -26 -48.5t-51 -19.5h-198l89 95l24 171h-209l-43 -302h-190l42 302h-227l13 96h228l22 160h-189l13 95h190l4 29l-32 38h228l-10 -67h180l-18 67h202zM477 549l-23 -160h134l22 160h-133z" />
    <glyph glyph-name="uni4E69" unicode="&#x4e69;" 
d="M207 381l43 304l-24 24h200l-15 -107h177l-13 -93h-177l-18 -128h164l-52 -368h-452l52 368h115zM543 7l93 667l-33 36h203l-82 -589h112l43 39l-21 -153h-315zM354 104l26 186h-151l-26 -186h151z" />
    <glyph glyph-name="uni4E70" unicode="&#x4e70;" 
d="M408 309l36 251h201l-36 -251h232l-13 -95h-132l123 -221h-209l-118 211l-241 -212h-228l252 222h-242l13 95h362zM713 597h-622l13 96h792l-24 -170h-170zM420 462h-208l-62 99h212zM376 333h-207l-61 97h208z" />
    <glyph glyph-name="uni4E71" unicode="&#x4e71;" 
d="M216 322l12 88h-143l14 100h143l11 81l-134 -6l13 98l448 22l-13 -98l-137 -7l-12 -90h143l-14 -100h-143l-12 -88h131l-45 -320h-439l45 320h132zM527 1l94 671l-20 33h194l-82 -584h107l61 37l-22 -157h-332zM348 90l20 144h-155l-20 -144h155z" />
    <glyph glyph-name="uni4E73" unicode="&#x4e73;" 
d="M218 257l4 29l127 66h-260l14 95h453l-15 -105l-162 -63l-2 -11l158 11l-13 -95l-158 -11l-16 -116q-2 -14 -12 -26t-24 -20.5t-30 -13.5t-30 -5h-147l86 75l13 95l-161 -11l13 95zM531 10l93 662l-18 38h187l-86 -605h107l62 37l-19 -132h-326zM575 616l-460 -21l14 94
l460 21zM244 578l13 -98h-125l-13 98h125zM574 580l-30 -100h-120l31 100h119zM386 579l23 -99h-120l-23 99h120z" />
    <glyph glyph-name="uni4E7E" unicode="&#x4e7e;" 
d="M203 543l4 33h-129l12 91h130l3 18l-27 25h190l-7 -43h131l-12 -91h-132l-4 -33h116l-45 -318h-108l-6 -40h123l-13 -90h-123l-14 -103h-175l14 103h-117l13 90h117l6 40h-103l45 318h111zM864 483l-15 -107l-229 -256h198l39 43l-22 -152h-391l16 115l248 265h-199
l13 92h342zM727 709l-25 -64h203l-13 -93h-227l-22 -57h-151l69 188l-28 26h194zM305 309l6 43h-106l-6 -43h106zM214 417h106l6 43h-106z" />
    <glyph glyph-name="uni4E86" unicode="&#x4e86;" 
d="M865 692l-13 -95l-328 -171l-52 -369q-4 -29 -26 -47.5t-51 -18.5h-198l89 93l51 361l290 152h-573l13 95h798z" />
    <glyph glyph-name="uni4E88" unicode="&#x4e88;" 
d="M482 448h3l153 150h-517l13 95h727l-13 -93l-167 -152h185l-13 -95l-50 -97h-183l46 94h-117l-41 -293q-4 -29 -26 -47.5t-51 -18.5h-204l89 93l37 266h-300l14 98h234l-37 102h181z" />
    <glyph glyph-name="uni4E89" unicode="&#x4e89;" 
d="M371 397l6 38h-266l13 95h477l24 48h-277l-9 -19h-190l63 124l-24 28h228l-20 -38h432l-13 -95l-24 -48h74l-19 -133h39l-14 -95h-38l-19 -133h-285l-15 -112q-5 -29 -27 -47.5t-51 -18.5h-198l90 93l12 85h-267l14 95h266l5 38h-323l14 95h322zM567 435l-6 -38h114l6 38
h-114zM657 264l5 38h-114l-5 -38h114z" />
    <glyph glyph-name="uni4E8B" unicode="&#x4e8b;" 
d="M383 568l4 29h-303l9 66h303l2 10l-32 38h228l-7 -48h304l-9 -66h-304l-4 -29h266l-24 -171h-266l-4 -28h275l-14 -95h29l-9 -67h-30l-13 -95h-275l-7 -55q-5 -29 -27 -47.5t-51 -18.5h-198l90 93l4 28h-276l10 67h275l4 28h-304l9 67h305l4 28h-276l10 67h275l4 28h-266
l24 171h265zM369 464l5 38h-95l-5 -38h95zM565 502l-6 -38h95l5 38h-94zM624 179l4 28h-105l-4 -28h105zM536 302l-4 -28h105l4 28h-105z" />
    <glyph glyph-name="uni4E8C" unicode="&#x4e8c;" 
d="M885 653l-14 -100h-737l14 100h737zM847 124l-15 -108h-797l15 108h797z" />
    <glyph glyph-name="uni4E8D" unicode="&#x4e8d;" 
d="M885 445l-14 -95h-293l-41 -293q-4 -29 -26 -47.5t-51 -18.5h-198l89 93l37 266h-353l14 95h836zM862 692l-13 -95h-722l13 95h722z" />
    <glyph glyph-name="uni4E8E" unicode="&#x4e8e;" 
d="M371 445l22 152h-266l13 95h722l-13 -95h-266l-22 -152h324l-14 -95h-323l-41 -293q-4 -29 -26 -47.5t-51 -18.5h-198l89 93l37 266h-323l14 95h322z" />
    <glyph glyph-name="uni4E8F" unicode="&#x4e8f;" 
d="M551 91l47 149h-494l84 170h-135l14 96h799l-14 -96h-484l-42 -81h474l-11 -79l-99 -256h-367l77 97h151zM853 693l-14 -98h-703l14 98h703z" />
    <glyph glyph-name="uni4E91" unicode="&#x4e91;" 
d="M735 296l60 -303h-177l-7 33l-570 -26l14 103l187 258h-208l13 96h838l-13 -96h-421l-176 -247l316 15l-33 167h177zM860 693l-14 -98h-705l14 98h705z" />
    <glyph glyph-name="uni4E92" unicode="&#x4e92;" 
d="M525 108l20 81h-469l156 408h-100l14 96h759l-14 -96h-479l-28 -71h429l-93 -418h143l-14 -96h-835l14 96h497zM302 287h269l37 141h-254z" />
    <glyph glyph-name="uni4E93" unicode="&#x4e93;" 
d="M885 466l-13 -95h-125l-53 -379h-194l53 379h-179l-154 -379h-185l154 379h-115l13 95h798zM860 693l-13 -98h-703l13 98h703z" />
    <glyph glyph-name="uni4E94" unicode="&#x4e94;" 
d="M289 464l49 133h-199l13 95h740l-13 -95h-332l-49 -133h334l-51 -361h57l-13 -95h-798l13 95h118l97 266h-120l13 95h141zM464 369l-97 -266h224l38 266h-165z" />
    <glyph glyph-name="uni4E95" unicode="&#x4e95;" 
d="M157 346l39 154h-76l14 98h87l19 76l-31 36h227l-28 -112h193l16 111h191l-16 -111h99l-14 -98h-99l-21 -154h120l-14 -100h-120l-35 -252h-191l35 252h-232l-63 -252h-189l63 252h-102l14 100h114zM345 346h221l21 154h-204z" />
    <glyph glyph-name="uni4E98" unicode="&#x4e98;" 
d="M855 551l-57 -407h-714l57 407h714zM850 101l-13 -95h-833l13 95h833zM916 693l-13 -98h-795l13 98h795zM624 245l8 59h-337l-8 -59h337zM308 392h337l8 58h-337z" />
    <glyph glyph-name="uni4E9A" unicode="&#x4e9a;" 
d="M237 106l68 489h-180l14 98h756l-14 -98h-170l-68 -489h190l-14 -98h-795l14 98h199zM235 179h-143l3 349h143zM809 179h-132l80 349h132zM406 106h68l68 489h-68z" />
    <glyph glyph-name="uni4E9B" unicode="&#x4e9b;" 
d="M242 635l-41 -285l39 2l45 321l-32 38h209l-19 -133h76l-13 -95h-76l-17 -119l77 5l-14 -95l-441 -29l14 95l37 2l42 293h114zM907 502l-192 -18l-19 -134h152l43 38l-18 -133h-361l56 398l-33 38h209l-16 -112l193 18zM849 84l-14 -93h-836l14 93h836zM829 217l-13 -95
h-760l13 95h760z" />
    <glyph glyph-name="uni4E9F" unicode="&#x4e9f;" 
d="M738 152l-20 41l-31 -41h-143l116 159l-62 129h112l18 -35l20 27l4 30h-138l6 41l-40 -14l-44 -312q-3 -21 -20 -35t-38 -14h-168l67 69l47 336l179 63h-479l13 93h755l-13 -93l-182 -65h197l-17 -122l-89 -120l72 -137h-122zM390 533l-49 -351h-275l49 351h275zM835 104
l-14 -98h-795l14 98h795zM245 275l23 165h-57l-23 -165h57z" />
    <glyph glyph-name="uni4EA0" unicode="&#x4ea0;" 
d="M372 521l16 107l-35 31h238l-20 -138h314l-17 -121h-833l17 121h320z" />
    <glyph glyph-name="uni4EA1" unicode="&#x4ea1;" 
d="M117 504h-55l14 96h333l11 73l-33 37h242l-16 -110h259l-14 -96h-553l-55 -393h537l-14 -100h-725z" />
    <glyph glyph-name="uni4EA2" unicode="&#x4ea2;" 
d="M505 -8l55 386h-200l-156 -385h-177l173 477h572l-49 -348h79l40 38l-24 -168h-313zM426 633l6 39l-32 38h227l-12 -77h277l-16 -110h-779l16 110h313z" />
    <glyph glyph-name="uni4EA4" unicode="&#x4ea4;" 
d="M255 521h190l-105 -114h47l90 -82l114 82h40l-72 114h190l109 -171h-103l-170 -123l260 -236h-247l-151 137l-191 -137h-247l330 236l-134 123h-107zM426 654l3 19l-32 38h228l-8 -57h294l-14 -95h-779l14 95h294z" />
    <glyph glyph-name="uni4EA5" unicode="&#x4ea5;" 
d="M137 425l114 124h-157l13 97h318l4 27l-32 38h222l-9 -65h293l-13 -97h-424l-113 -121h107l103 93h180l-525 -493h-201l339 306l-232 -3zM854 371l-201 -191h22l152 -188h-183l-83 100l-104 -99h-194l401 378h190z" />
    <glyph glyph-name="uni4EA6" unicode="&#x4ea6;" 
d="M380 -8l90 98l62 446h-66l-155 -544h-162l155 544h-210l13 92h297l6 45l-32 38h222l-12 -83h313l-13 -92h-193l-66 -470q-2 -14 -9.5 -27t-18 -23.5t-24 -17t-27.5 -6.5h-170zM842 477v-355h-138v355h138zM257 475l-98 -320h-140l98 320h140z" />
    <glyph glyph-name="uni4EA7" unicode="&#x4ea7;" 
d="M727 416h135l-13 -95h-573l-91 -330h-181l117 425h115l-5 105h152l5 -105h187l36 105h152zM420 654l3 19l-32 38h228l-8 -57h304l-14 -95h-798l14 95h303z" />
    <glyph glyph-name="uni4EA8" unicode="&#x4ea8;" 
d="M802 551l-26 -189h-681l26 189h681zM803 331l-13 -98l-281 -84l-16 -110q-3 -22 -19.5 -34.5t-37.5 -12.5h-217l65 67l19 131l240 61h-487l11 80h736zM373 660l2 12l-33 37h243l-7 -49h286l-12 -79h-778l12 79h287zM599 429l8 56h-308l-8 -56h308z" />
    <glyph glyph-name="uni4EA9" unicode="&#x4ea9;" 
d="M87 501h775l-69 -492h-775zM388 640l5 33l-33 37h241l-10 -70h311l-13 -93h-836l13 93h322zM248 297h104l14 104h-103zM554 401l-14 -104h103l15 104h-104zM326 109l13 94h-104l-13 -94h104zM617 109l13 94h-103l-13 -94h103z" />
    <glyph glyph-name="uni4EAB" unicode="&#x4eab;" 
d="M322 64l10 72h-306l12 86h335l109 42h-360l12 89h664l-14 -90l-132 -41h183l-12 -86h-287l-13 -93q-3 -22 -24.5 -36.5t-50.5 -14.5h-211zM826 558l-25 -179h-686l25 179h686zM402 665l1 7l-33 37h243l-6 -44h286l-11 -77h-778l11 77h287zM621 444l7 48h-308l-7 -48h308z
" />
    <glyph glyph-name="uni4EAC" unicode="&#x4eac;" 
d="M846 521l-36 -257h-266l-29 -207q-5 -29 -27 -47.5t-51 -18.5h-198l90 93l25 180h-266l36 257h722zM408 654l3 19l-32 38h228l-9 -57h305l-14 -95h-798l14 95h303zM739 236l76 -209h-162l-75 209h161zM312 236l-134 -209h-161l134 209h161zM642 359l10 67h-360l-10 -67
h360z" />
    <glyph glyph-name="uni4EAD" unicode="&#x4ead;" 
d="M335 81l12 83h-262l7 53h-62l22 152h798l-22 -152h-62l-7 -53h-237l-15 -107q-5 -29 -27 -47t-51 -18h-181zM820 564l-24 -168h-677l24 168h677zM414 665l1 7l-33 37h222l-6 -44h292l-10 -71h-792l10 71h316zM196 258h478l5 32h-478zM626 460l6 39h-320l-6 -39h320z" />
    <glyph glyph-name="uni4EAE" unicode="&#x4eae;" 
d="M476 -7l24 174h-169l-135 -175h-173l160 213h-143l21 154h792l-21 -154h-150l11 79h-492l-10 -69l31 41h448l-22 -154h148l26 23l-18 -132h-328zM824 560l-25 -172h-656l25 172h656zM399 666l1 6l-33 37h243l-6 -43h293l-11 -78h-796l11 78h298zM625 456l5 36h-288
l-5 -36h288z" />
    <glyph glyph-name="uni4EB2" unicode="&#x4eb2;" 
d="M368 302l7 48h-313l13 95h149l-5 85h152l5 -85h195l28 85h152l-28 -85h168l-13 -95h-313l-7 -48h275l-13 -95h-275l-21 -150q-5 -29 -27 -47.5t-51 -18.5h-198l89 91l17 125h-274l13 95h275zM417 654l3 19l-32 38h228l-8 -57h285l-14 -95h-760l14 95h284zM756 179
l68 -152h-157l-69 152h158zM293 179l-109 -152h-158l110 152h157z" />
    <glyph glyph-name="uni4EB3" unicode="&#x4eb3;" 
d="M335 -7q-23 5 -37 23t-10 44l6 41l-269 -12l11 79l269 12l5 34l-106 -4l10 72l470 20l-10 -72l-172 -8l-5 -34l340 16l-11 -79l-340 -16l-6 -40h300l41 22l-14 -98h-472zM842 578l-23 -161h-691l23 161h691zM864 249h-170l10 71h-492l-10 -71h-170l20 143h832zM404 670
l1 5l-32 37h243l-6 -42h285l-10 -68h-778l10 68h287zM636 479l5 37h-308l-5 -37h308z" />
    <glyph glyph-name="uni4EB5" unicode="&#x4eb5;" 
d="M191 540l5 34h160l-5 -34h67l-11 -76h-66l-4 -24l68 7l-10 -74l-68 -7l-8 -57q-3 -22 -17 -39h133l-104 -87l-14 -102l170 9l-11 -77l-337 -17l11 77h-141l200 167h-125l76 73l5 37l-99 -9l10 74l99 9l6 40h-105l11 76h104zM443 436l42 -8l14 37h-55l11 76h73l5 12l6 20
h141l-12 -32h176l-25 -173h27l44 38l-17 -122h-196l25 181h-63l-22 -59l48 -8l-11 -79l-66 12l-17 -47h-141l27 70l-25 5zM401 668l1 5l-33 37h243l-6 -42h305l-11 -77h-797l11 77h287zM613 249l30 -39l188 32l-14 -94l-110 -19l109 -136h-189l-202 256h188z" />
    <glyph glyph-name="uni4EBA" unicode="&#x4eba;" 
d="M695 711l-99 -154l282 -566h-190l-198 402l-258 -402h-190l446 695l-21 25h228z" />
    <glyph glyph-name="uni4EBB" unicode="&#x4ebb;" 
d="M587 581l-82 -588h-188l77 550l-74 -14l16 114l267 51z" />
    <glyph glyph-name="uni4EBF" unicode="&#x4ebf;" 
d="M877 682l-14 -99l-358 -463h291l46 47l-22 -156h-508l16 112l321 460h-278l14 99h492zM314 588l-83 -596h-189l78 561l-38 -7l17 121l232 42z" />
    <glyph glyph-name="uni4EC0" unicode="&#x4ec0;" 
d="M879 374h-182l-53 -381h-187l53 381h-182l14 95h182l29 206l-33 35h225l-34 -241h182zM282 588l-84 -596h-171l79 561l-39 -7l17 121l215 42z" />
    <glyph glyph-name="uni4EC1" unicode="&#x4ec1;" 
d="M316 588l-83 -596h-187l78 559l-58 -11l17 121l250 48zM808 30h-529l13 95h529zM861 542h-493l13 95h493z" />
    <glyph glyph-name="uni4EC2" unicode="&#x4ec2;" 
d="M435 486h-90l13 93h109l33 96l-23 35h207l-45 -131h236l-73 -521q-4 -28 -26.5 -47t-51.5 -19h-166l89 92l56 402h-95l-167 -493h-175zM300 588l-84 -596h-171l79 559l-70 -14l17 121l246 51z" />
    <glyph glyph-name="uni4EC3" unicode="&#x4ec3;" 
d="M885 681l-14 -96h-160l-74 -528q-4 -28 -27 -47t-51 -19h-210l99 95l70 499h-159l14 96h512zM289 588l-84 -596h-171l78 557l-62 -13l17 121l239 52z" />
    <glyph glyph-name="uni4EC4" unicode="&#x4ec4;" 
d="M916 692l-13 -95h-597l-118 -605h-185l129 664l-31 36h815zM699 557l-66 -129l208 -436h-193l-111 249l-127 -248h-186l286 564h189z" />
    <glyph glyph-name="uni4EC5" unicode="&#x4ec5;" 
d="M482 268l-143 264l4 32h162l89 -166l89 104l13 89h-349l13 96h517l-30 -218l-183 -202l148 -275h-180l-82 149l-135 -149h-170zM297 588l-83 -596h-171l78 561l-66 -13l17 121l242 48z" />
    <glyph glyph-name="uni4EC6" unicode="&#x4ec6;" 
d="M498 671l-32 38h221l-29 -206h144l45 -361h-143l-46 359l-71 -509h-184zM358 588l-83 -596h-181l78 562l-100 -18l17 121l286 52z" />
    <glyph glyph-name="uni4EC7" unicode="&#x4ec7;" 
d="M592 -8l69 492h-81l-140 -492h-179l137 492h-58l13 97h72l28 100l-25 28h217l-37 -128h236l-68 -489h36l46 38l-19 -138h-247zM316 588l-83 -596h-171l78 561l-60 -12l17 121l236 47z" />
    <glyph glyph-name="uni4EC9" unicode="&#x4ec9;" 
d="M590 -9l85 598h-115l-118 -597h-174l136 698h455l-82 -585h36l44 38l-22 -152h-245zM316 588l-84 -596h-171l79 559l-63 -13l18 122l238 49z" />
    <glyph glyph-name="uni4ECA" unicode="&#x4eca;" 
d="M692 711l186 -295h-190l-126 200h-148l-182 -200h-190l245 268l-22 27h427zM806 369l-15 -105l-277 -273h-218l276 273h-456l15 105h675zM582 397h-171l-39 133h171z" />
    <glyph glyph-name="uni4ECB" unicode="&#x4ecb;" 
d="M749 386l-56 -393h-189l60 419h95l-103 204h-130l-158 -208h122l-154 -415h-192l146 394h-136l240 300l-20 24h423l178 -325h-126z" />
    <glyph glyph-name="uni4ECD" unicode="&#x4ecd;" 
d="M768 447h95l-57 -406q-3 -21 -19.5 -35t-37.5 -14h-166l73 72l43 305h-95l12 87l81 141h-122l-173 -604h-155l173 604h-66l13 93h501l-12 -85zM306 588l-83 -596h-171l78 565l-69 -12l17 121l245 43z" />
    <glyph glyph-name="uni4ECE" unicode="&#x4ece;" 
d="M809 711l-64 -167l133 -553h-171l-66 276l-105 -276h-171l43 113l-88 171l-107 -284h-171l261 689l-26 31h209l-90 -236l88 -170l142 375l-26 31h209z" />
    <glyph glyph-name="uni4ED1" unicode="&#x4ed1;" 
d="M764 11h-690l53 380h200l-10 -68l442 56l-18 -125l-441 -56l-10 -75h452l43 38zM668 408l-119 208h-130l-172 -209h-198l238 280l-21 24h423l182 -303h-203z" />
    <glyph glyph-name="uni4ED3" unicode="&#x4ed3;" 
d="M783 408l-26 -190q-5 -29 -16 -38.5t-39 -9.5h-187l37 68l17 123h-246l-35 -249h474l42 45l-20 -145h-702l55 395h-88l238 280l-21 24h423l182 -303h-88zM285 453h357l-93 163h-130z" />
    <glyph glyph-name="uni4ED4" unicode="&#x4ed4;" 
d="M502 297h-216l13 96h217l7 52l153 152h-327l13 95h509l-13 -93l-162 -168l-5 -38h158l-13 -96h-159l-33 -240q-5 -29 -27 -47t-51 -18h-182l89 92zM302 588l-83 -596h-171l78 559l-70 -15l17 121l246 52z" />
    <glyph glyph-name="uni4ED5" unicode="&#x4ed5;" 
d="M786 8h-514l13 97h160l41 297h-191l14 96h191l25 177l-33 35h224l-30 -212h190l-14 -96h-190l-41 -297h168zM298 588l-84 -596h-171l79 562l-56 -11l17 121l232 45z" />
    <glyph glyph-name="uni4ED6" unicode="&#x4ed6;" 
d="M527 444l-39 -9l-44 -313h361l43 38l-21 -152h-570l54 388l-39 -8l14 95l39 8l16 115l-25 29h200l-15 -105l39 8l19 135l-32 38h190l-20 -138l196 43l-5 -37l-41 -294q-5 -29 -27 -48.5t-51 -19.5h-113l33 29l34 241l-39 -9l-42 -299h-152zM281 588l-84 -597h-171l79 562
l-39 -7l16 114l215 42z" />
    <glyph glyph-name="uni4ED7" unicode="&#x4ed7;" 
d="M631 598l11 74l-27 37h204l-16 -111h76l-14 -99h-76l-14 -104l-128 -153l168 -249h-214l-70 111l-93 -112h-201l211 244l-139 223h192l61 -91l45 52l11 79h-302l14 99h301zM294 588l-83 -596h-171l78 560l-59 -12l17 121l235 48z" />
    <glyph glyph-name="uni4ED8" unicode="&#x4ed8;" 
d="M463 -8l90 92l55 395h-288l13 95h289l15 109l-25 27h217l-19 -136h73l-13 -95h-74l-59 -422q-5 -29 -27.5 -47t-50.5 -18h-196zM303 588l-84 -596h-183l79 563l-50 -9l17 121l238 42zM500 183h-133l-4 240h133z" />
    <glyph glyph-name="uni4ED9" unicode="&#x4ed9;" 
d="M415 106h54l81 568l-28 19h189l-83 -587h56l64 455h140l-77 -548h-549l77 547h140zM297 588l-83 -596h-183l78 561l-38 -7l17 121l226 42z" />
    <glyph glyph-name="uni4EDD" unicode="&#x4edd;" 
d="M820 11h-794l13 95h306l26 184h-268l13 95h720l-13 -95h-269l-26 -184h305zM688 408l-109 208h-130l-177 -209h-206l259 280l-21 23h408l181 -302h-205z" />
    <glyph glyph-name="uni4EDE" unicode="&#x4ede;" 
d="M656 88l70 499h-48l-203 -595h-165l203 595h-166l14 95h531l-88 -622q-4 -29 -27 -48t-52 -19h-158zM289 588l-83 -596h-179l78 562l-44 -8l17 121l228 42zM468 523l-84 -266h-103l83 266h104z" />
    <glyph glyph-name="uni4EDF" unicode="&#x4edf;" 
d="M872 590l-164 -7l-25 -177h182l-15 -109h-182l-43 -303h-186l43 303h-183l15 109h183l24 170l-146 -5l15 103l496 19zM299 588l-83 -596h-183l78 561l-58 -10l17 121l246 45z" />
    <glyph glyph-name="uni4EE1" unicode="&#x4ee1;" 
d="M827 468l-14 -97l-305 -260h275l34 30l-19 -134h-507l15 110l295 255h-279l14 96h491zM299 588l-84 -596h-183l79 561l-49 -9l17 121l237 44zM409 689l-21 21h211l-39 -75h328l-13 -95h-364l-20 -39h-187z" />
    <glyph glyph-name="uni4EE3" unicode="&#x4ee3;" 
d="M865 445l-199 -21l31 -302h104l43 38l-21 -152h-304l-42 397l-171 -17l14 95l148 15l-18 175l-32 38h219l19 -194l223 23zM308 597l-86 -606h-181l81 569l-59 -11l16 114l245 48zM845 568h-152l-5 105h152z" />
    <glyph glyph-name="uni4EE4" unicode="&#x4ee4;" 
d="M813 363l-14 -96l-279 -200l107 -75h-221l-282 206h211l69 -49l160 118h-498l14 96h733zM667 408l-119 208h-130l-171 -209h-198l237 280l-20 23h423l181 -302h-203zM576 393h-187l-23 127h187z" />
    <glyph glyph-name="uni4EE5" unicode="&#x4ee5;" 
d="M809 711l-81 -212h67l73 -508h-180l-43 291l-110 -291h-180l261 689l-26 31h219zM261 130l78 11l-16 -113l-272 -37l96 682l-32 38h228zM496 654l-15 -247h-133l15 247h133z" />
    <glyph glyph-name="uni4EE8" unicode="&#x4ee8;" 
d="M297 588l-83 -596h-183l78 561l-52 -10l17 121l240 45zM813 110l-13 -96h-550l13 96h550zM889 672l-13 -95h-528l13 95h528zM817 409l-13 -95h-477l13 95h477z" />
    <glyph glyph-name="uni4EEA" unicode="&#x4eea;" 
d="M216 -8l242 265l-133 225l25 182h143l-20 -140l103 -166l151 166l20 140h143l-25 -182l-200 -223l167 -267h-178l-101 159l-143 -159h-194zM296 588l-83 -596h-183l78 561l-38 -7l17 121l226 42zM551 653l-33 38h178l-21 -151h-140z" />
    <glyph glyph-name="uni4EEB" unicode="&#x4eeb;" 
d="M701 -7l-4 52l-375 -51l13 93l337 447h183l-320 -425l156 24l-10 143h139l20 -283h-139zM331 588l-83 -596h-183l78 562l-59 -10l17 121l247 44zM487 334h-174l246 348l-17 19h201z" />
    <glyph glyph-name="uni4EEC" unicode="&#x4eec;" 
d="M634 84l70 494h-161l13 95h332l-87 -616q-4 -29 -26 -47.5t-51 -18.5h-179zM297 588h-1l-84 -597h-180l79 560l-59 -11l16 114l245 48zM508 540l-77 -549h-171l77 549h171zM521 692v-133h-171v133h171z" />
    <glyph glyph-name="uni4EF0" unicode="&#x4ef0;" 
d="M753 574h-68l-81 -582h-132l95 677h332l-70 -495q-4 -29 -26 -48.5t-51 -19.5h-120l66 71zM277 588l-83 -596h-173l78 561l-53 -10l17 121l231 45zM526 587l-54 -11l-53 -376l56 15l-14 -103l-214 -57l86 614l209 29z" />
    <glyph glyph-name="uni4EF2" unicode="&#x4ef2;" 
d="M477 219h-200l53 380h200l10 72l-33 38h208l-15 -110h199l-53 -380h-200l-31 -227h-170zM286 588l-83 -596h-183l78 561l-38 -7l17 121l226 42zM686 503l-26 -189h53l27 189h-54zM490 314l26 189h-52l-27 -189h53z" />
    <glyph glyph-name="uni4EF3" unicode="&#x4ef3;" 
d="M298 588l-83 -596h-183l78 561l-38 -7l17 121l226 42zM516 509h102l-13 -95h-102l-40 -286l69 14l-16 -115l-232 -32l93 660l-31 38h196zM872 436l-101 -19l-42 -300h78l44 38l-21 -143h-266l91 645l-33 35h188l-24 -171l101 19z" />
    <glyph glyph-name="uni4EF5" unicode="&#x4ef5;" 
d="M552 368l24 171h-66l-40 -91h-157l112 241l-21 21h181l-34 -76h340l-14 -95h-129l-24 -171h151l-13 -95h-152l-39 -280h-172l39 280h-243l13 95h244zM295 588l-84 -596h-183l79 561l-39 -7l17 121l227 42z" />
    <glyph glyph-name="uni4EF6" unicode="&#x4ef6;" 
d="M372 629l-21 25h181l-25 -85h50l15 104l-32 38h228l-20 -142h133l-14 -95h-133l-19 -133h153l-14 -95h-152l-36 -255h-190l36 255h-228l14 95h227l19 133h-64l-24 -86h-152zM306 597h-1l-85 -606h-181l80 569l-58 -11l16 114l245 48z" />
    <glyph glyph-name="uni4EF7" unicode="&#x4ef7;" 
d="M302 588l-84 -596h-183l79 563l-51 -9l17 121l239 42zM710 460l-78 170h-21l-120 -170h-180l174 234l-16 16h283l132 -250h-174zM262 -7l122 432h171l-122 -432h-171zM803 426l-61 -433h-169l61 433h169z" />
    <glyph glyph-name="uni4EFB" unicode="&#x4efb;" 
d="M457 112l27 191h-200l15 104h199l22 151l-164 -18l16 114l502 57l-16 -114l-145 -17l-25 -173h191l-15 -104h-190l-27 -191h161l-14 -104h-513l14 104h162zM308 597h-1l-85 -606h-181l80 569l-58 -11l16 114l245 48z" />
    <glyph glyph-name="uni4EFD" unicode="&#x4efd;" 
d="M265 -6l135 341h-76l13 91h512l-53 -378q-4 -24 -23.5 -39t-43.5 -15h-179l77 78l37 263h-98l-122 -341h-179zM310 588l-83 -596h-183l78 561l-52 -9l17 121l240 44zM829 692l46 -232h-169l-47 232h170zM498 459h-165l97 215l-17 20h187z" />
    <glyph glyph-name="uni4EFF" unicode="&#x4eff;" 
d="M639 87l36 255h-131l-125 -348h-175l189 526h-92l14 99h193l8 58l-27 32h189l-12 -90h180l-14 -99h-264l-31 -85h281l-54 -387q-4 -23 -22.5 -38.5t-41.5 -15.5h-177zM299 588l-83 -596h-183l78 563l-52 -9l17 121l240 42z" />
    <glyph glyph-name="uni4F01" unicode="&#x4f01;" 
d="M605 502l-22 -150h228l-14 -97h-227l-21 -149h284l-13 -95h-798l13 95h82l38 265h166l-38 -265h89l56 396h177zM710 708l187 -295h-208l-127 199h-99l-182 -199h-216l244 267l-23 28h424z" />
    <glyph glyph-name="uni4F09" unicode="&#x4f09;" 
d="M588 -8l55 386h-113l-111 -386h-159l127 475h438l-51 -364h23l42 25l-20 -136h-231zM298 588l-84 -596h-182l79 562l-48 -8l17 121l235 42zM532 622l7 50l-32 38h216l-13 -88h177l-13 -95h-531l13 95h176z" />
    <glyph glyph-name="uni4F0A" unicode="&#x4f0a;" 
d="M411 510l13 89h-90l13 92h542l-26 -181h20l-13 -95h-20l-25 -178h-303l-108 -244h-187l115 244h-67l13 90h97l1 2l12 86h-109l13 95h109zM282 588l-83 -596h-168l78 564l-53 -10l17 121l226 42zM599 599l-13 -89h108l13 89h-108zM669 327l12 88h-108l-13 -88h109z" />
    <glyph glyph-name="uni4F0D" unicode="&#x4f0d;" 
d="M419 444l47 136h-122l14 95h532l-14 -95h-231l-47 -136h239l-47 -336h39l-14 -97h-589l14 97h61l85 243h-75l13 93h95zM284 588l-83 -596h-172l78 563l-49 -9l17 121l226 42zM566 351l-85 -243h140l34 243h-89z" />
    <glyph glyph-name="uni4F0E" unicode="&#x4f0e;" 
d="M452 331l114 -106l131 90l6 39h-392l12 90h179l11 80h-181l14 95h180l8 52l-33 38h219l-13 -90h182l-14 -95h-181l-11 -80h177l-24 -171l-188 -124l170 -157h-183l-94 85l-129 -85h-189l235 160l-154 141l5 38h143zM296 588l-83 -596h-183l78 562l-46 -8l17 121l234 42z
" />
    <glyph glyph-name="uni4F0F" unicode="&#x4f0f;" 
d="M718 708l-73 -188h239l-14 -96h-152l114 -431h-171l-90 338l-131 -338h-172l166 431h-114l14 96h137l61 157l-24 31h210zM302 588l-83 -596h-183l78 561l-38 -7l17 121l226 42zM751 674h126l5 -115h-129z" />
    <glyph glyph-name="uni4F10" unicode="&#x4f10;" 
d="M442 557l-25 113l-39 41h208l35 -154h254l-14 -96h-218l30 -135l164 78l-17 -124l-123 -59l27 -118h78l37 38l-21 -149h-247l-35 152l-244 -116l17 124l203 97l-48 212h-131l14 96h95zM312 588l-84 -596h-183l79 561l-39 -7l17 121l227 42zM691 584l-14 107h151l13 -107
h-150z" />
    <glyph glyph-name="uni4F11" unicode="&#x4f11;" 
d="M510 485h-183l13 95h183l13 92l-32 38h219l-18 -130h183l-13 -95h-184l-69 -492h-181zM298 588l-84 -596h-183l79 561l-39 -7l17 121l227 42zM836 465l-8 -454h-130v454h138zM493 465l-119 -452h-130l119 452h130z" />
    <glyph glyph-name="uni4F17" unicode="&#x4f17;" 
d="M763 417l-61 -105l165 -321h-180l-81 156l-90 -156h-181l39 67h-2l-86 94l-93 -161h-181l164 283l83 143h-187l245 267l-22 27h427l186 -294h-145zM270 426h175l-89 -153l87 -95l125 215l-28 33h172l-120 190h-148z" />
    <glyph glyph-name="uni4F18" unicode="&#x4f18;" 
d="M657 708l-51 -163h268l-13 -98h-285l-139 -453h-187l154 453h-72l13 98h92l43 126l-30 37h207zM312 588l-83 -596h-183l78 563l-61 -10l17 121l249 43zM816 -6h-285l60 424h173l-47 -331h74l43 38zM720 578l-14 112h143l13 -112h-142z" />
    <glyph glyph-name="uni4F19" unicode="&#x4f19;" 
d="M662 387l155 -394h-189l-60 207l-124 -207h-185l234 386l42 297l-26 30h198zM298 588l-83 -596h-179l78 561l-38 -7l17 121l222 42zM331 559l-16 19h148l-16 -243h-132zM696 335l54 224l-17 19h151l-60 -243h-128z" />
    <glyph glyph-name="uni4F1A" unicode="&#x4f1a;" 
d="M710 417l-5 -38h-494l5 38h-171l245 267l-22 27h427l186 -294h-171zM622 -9l-13 25l-529 -25l14 93l173 152h-228l13 95h798l-13 -95h-362l-160 -141l246 13l-36 71h171l97 -188h-171zM287 474h368l-90 142h-148z" />
    <glyph glyph-name="uni4F1B" unicode="&#x4f1b;" 
d="M258 10l96 680h536l-13 -93h-384l-70 -494h397l-13 -93h-549zM295 588l-83 -596h-183l78 561l-38 -7l17 121l226 42zM676 474l49 84h140l-126 -213l71 -202h-140l-28 69l-42 -69h-137l117 191l-71 224h141z" />
    <glyph glyph-name="uni4F1E" unicode="&#x4f1e;" 
d="M582 524l-40 -287h297l-13 -96h-298l-20 -148h-187l20 148h-310l13 96h311l40 287h187zM699 708l190 -272h-208l-129 176h-99l-183 -176h-216l244 244l-23 28h424zM147 258l-16 154h166l16 -154h-166zM583 257l51 155h164l-51 -155h-164z" />
    <glyph glyph-name="uni4F1F" unicode="&#x4f1f;" 
d="M481 484l8 57h-158l13 97h159l5 34l-29 38h214l-10 -72h191l-13 -97h-192l-8 -57h173l-14 -95h-172l-8 -55h228l-35 -248q-7 -21 -24.5 -30t-43.5 -9h-138l53 45l21 155h-73l-36 -255h-180l36 255h-166l13 87h165l8 55h-140l14 95h139zM312 597l-86 -605h-181l81 568
l-59 -11l16 114l245 48z" />
    <glyph glyph-name="uni4F20" unicode="&#x4f20;" 
d="M478 186l34 -27l109 77h-308l71 153h-84l14 94h113l27 57h-95l13 94h126l24 52l-32 24h234l-34 -76h175l-13 -94h-203l-25 -57h259l-14 -94h-287l-24 -56h266l-13 -115l-196 -140l107 -85h-199l-235 193h190zM304 597l-86 -605h-181l81 568l-59 -11l16 114l245 48z" />
    <glyph glyph-name="uni4F22" unicode="&#x4f22;" 
d="M849 342h-72l-40 -284q-4 -28 -26.5 -47t-51.5 -19h-187l91 93l36 257h-290l12 87l52 135h161l-50 -120h129l22 154h-291l13 95h541l-13 -95h-72l-22 -154h72zM288 597l-86 -605h-181l81 568l-59 -11l16 114l245 48zM575 311l-178 -319h-170l179 319h169z" />
    <glyph glyph-name="uni4F24" unicode="&#x4f24;" 
d="M402 686l-20 23h211l-34 -72h334l-13 -95h-365l-18 -39h157l-31 -73h241l-52 -370q-4 -28 -26 -47.5t-51 -19.5h-165l90 101l33 239h-112l-145 -340h-190l143 340h-105l14 97h132l23 55h-151zM293 597l-86 -605h-181l81 568l-59 -11l16 114l245 48z" />
    <glyph glyph-name="uni4F25" unicode="&#x4f25;" 
d="M346 351h-64l13 94h64l33 233l-28 32h210l-37 -265h22l157 263h158l-157 -263h163l-13 -94h-343l-34 -243l82 13l-14 -97l-262 -30zM307 597l-86 -605h-181l81 568l-59 -11l16 114l245 48zM732 326l88 -333h-177l-87 333h176z" />
    <glyph glyph-name="uni4F26" unicode="&#x4f26;" 
d="M832 256l-310 -31l-14 -99h266l43 34l-21 -149h-499l61 430h195l-15 -103l310 31zM304 597l-86 -605h-181l81 568l-59 -11l16 114l245 48zM433 681l-23 28h405l67 -246h-182l-43 151h-76l-83 -151h-183z" />
    <glyph glyph-name="uni4F27" unicode="&#x4f27;" 
d="M286 12l61 431h493l-29 -209q-5 -29 -15.5 -38.5t-39.5 -9.5h-152l36 68l16 113h-150l-34 -241h305l39 20l-19 -134h-511zM306 597l-86 -605h-181l81 568l-59 -11l16 114l245 48zM446 684l-22 26h358l99 -245h-188l-44 150h-60l-79 -150h-179z" />
    <glyph glyph-name="uni4F2A" unicode="&#x4f2a;" 
d="M633 540h253l-69 -489q-3 -20 -12.5 -38.5t-29.5 -18.5h-175l66 76l52 377h-124l-23 -56h87l-5 -211h-98l4 181l-151 -368h-157l184 454h-132l14 93h156l60 148l-16 20h185zM296 597l-86 -605h-177l81 568l-59 -11l16 114l241 48zM478 684l-5 -116h-127l5 116h127z" />
    <glyph glyph-name="uni4F2B" unicode="&#x4f2b;" 
d="M300 597l-86 -605h-177l81 568l-59 -11l16 114l241 48zM709 520h-226l-19 -130h-161l32 225h184l8 56l-33 38h218l-13 -94h184l-32 -226h-161zM813 121l-16 -108h-549l16 108h549z" />
    <glyph glyph-name="uni4F2F" unicode="&#x4f2f;" 
d="M471 617l44 69l-16 23h216l-59 -92h226l-85 -611h-531l85 611h120zM305 597l-86 -605h-181l81 568l-59 -11l16 114l245 48zM639 101l23 163h-189l-23 -163h189zM486 359h189l23 162h-189z" />
    <glyph glyph-name="uni4F30" unicode="&#x4f30;" 
d="M518 597l11 75l-28 38h211l-16 -113h195l-15 -104h-195l-17 -123h176l-51 -362h-529l51 362h175l18 123h-195l15 104h194zM296 597l-86 -605h-181l81 568l-59 -11l16 114l245 48zM643 104l24 170h-210l-24 -170h210z" />
    <glyph glyph-name="uni4F32" unicode="&#x4f32;" 
d="M888 692l-36 -256h-382l-86 -444h-154l126 664l-31 36h563zM287 597l-86 -605h-170l81 569l-59 -12l16 114l234 48zM823 235l-196 -45l-12 -86h169l44 38l-22 -150h-360l59 416h153l-15 -104l196 45zM719 602h-217l-13 -77h219z" />
    <glyph glyph-name="uni4F34" unicode="&#x4f34;" 
d="M456 199h-186l13 95h186l11 76h-166l13 94h166l30 211l-25 33h205l-34 -244h187l-13 -94h-187l-11 -76h206l-13 -95h-206l-29 -206h-176zM290 597l-86 -605h-171l81 569l-59 -12l16 114l235 48zM753 634l-19 20h153l-60 -159h-125zM472 495h-120l-19 160h122z" />
    <glyph glyph-name="uni4F36" unicode="&#x4f36;" 
d="M304 597l-86 -605h-171l81 569l-59 -12l16 114l235 48zM506 198l36 -34l105 96h-345l14 98h530l-14 -103l-194 -179l90 -83h-190l-222 205h190zM757 708l115 -299h-148l-74 209h-82l-122 -208h-157l164 271l-14 27h318zM695 385h-150l-34 124h148z" />
    <glyph glyph-name="uni4F38" unicode="&#x4f38;" 
d="M454 141h-205l70 493h204l6 38l-33 38h202l-11 -76h208l-70 -493h-207l-21 -149h-164zM277 597l-86 -605h-167l81 568l-55 -11l16 114l227 48zM687 235l15 110h-56l-15 -110h56zM674 540l-16 -110h56l16 110h-56zM441 430h54l15 110h-53zM467 235l16 110h-54l-15 -110h53
z" />
    <glyph glyph-name="uni4F3A" unicode="&#x4f3a;" 
d="M641 87l71 509h-397l14 95h567l-88 -628q-5 -29 -28.5 -49.5t-52.5 -20.5h-175zM290 597l-86 -605h-181l81 568l-59 -11l16 114l245 48zM650 409l-40 -288h-340l40 288h340zM689 552l-14 -99h-377l14 99h377zM499 217l14 96h-92l-14 -96h92z" />
    <glyph glyph-name="uni4F3C" unicode="&#x4f3c;" 
d="M840 691l-94 -318l124 -381h-141l-46 168l-49 -168h-144l203 699h147zM307 597l-86 -605h-171l81 569l-59 -12l16 114l235 48zM433 193l56 10l-25 -173l-206 -37l92 660l-27 38h180zM635 690l-7 -207h-116l7 207h116z" />
    <glyph glyph-name="uni4F3D" unicode="&#x4f3d;" 
d="M893 638l-88 -629h-273l88 629h273zM308 525h-44l13 91h52l18 75h127l-18 -75h129l-78 -555q-4 -29 -26.5 -48t-50.5 -19h-100l67 87l62 444h-25l-128 -532h-121zM248 597l-86 -605h-136l81 571l-59 -14l16 114l200 48zM703 113l59 421h-40l-59 -421h40z" />
    <glyph glyph-name="uni4F43" unicode="&#x4f43;" 
d="M887 676l-93 -661h-550l93 661h550zM289 597l-86 -605h-171l81 569l-59 -12l16 114l235 48zM456 107l28 202h-49l-28 -202h49zM657 107l28 202h-49l-28 -202h49zM674 583l-24 -177h49l25 177h-50zM449 406h49l24 177h-48z" />
    <glyph glyph-name="uni4F46" unicode="&#x4f46;" 
d="M353 654l-24 28h560l-72 -512h-532zM298 597h-1l-86 -606h-180l81 569l-59 -11l16 114l245 48zM829 122l-16 -114h-570l16 114h570zM649 265l16 114h-170l-16 -114h170zM524 587l-16 -113h170l16 113h-170z" />
    <glyph glyph-name="uni4F4D" unicode="&#x4f4d;" 
d="M741 107h81l-14 -95h-566l14 95h90l-8 358h156l8 -358h83l96 358h156zM305 597l-86 -605h-171l81 569l-59 -12l16 114l235 48zM514 597l11 73l-33 39h223l-16 -112h173l-14 -95h-529l14 95h171z" />
    <glyph glyph-name="uni4F4E" unicode="&#x4f4e;" 
d="M887 694l-13 -95l-110 -4l3 -149h85l-13 -96h-70l6 -243h29l37 36l-19 -133h-182l-15 340h-169l-23 -161l80 18l-22 -157l-244 -38l94 665zM289 597l-86 -605h-171l81 569l-59 -12l16 114l235 48zM469 446h152l-6 143l-126 -4zM610 139l13 -134h-97l-13 134h97z" />
    <glyph glyph-name="uni4F4F" unicode="&#x4f4f;" 
d="M510 599l11 75l-33 36h228l-16 -111h181l-14 -97h-181l-20 -147h166l-14 -97h-166l-20 -147h200l-14 -104h-585l14 104h195l20 147h-158l14 97h158l20 147h-179l14 97h179zM296 597l-86 -605h-171l81 569l-59 -12l16 114l235 48z" />
    <glyph glyph-name="uni4F50" unicode="&#x4f50;" 
d="M441 617l38 92h158l-37 -92h282l-13 -97h-309l-46 -114h321l-14 -97h-97l-28 -201h136l-14 -97h-570l14 97h263l28 201h-78l-67 -166h-159l153 377h-83l13 97h109zM295 597l-86 -605h-171l81 569l-59 -12l16 114l235 48z" />
    <glyph glyph-name="uni4F51" unicode="&#x4f51;" 
d="M454 617l45 92h161l-45 -92h277l-13 -97h-311l-55 -114h332l-56 -396h-487l23 161h-87l169 349h-96l13 97h130zM285 597l-86 -605h-171l81 569l-59 -12l16 114l235 48zM640 113l26 190h-159l-26 -190h159z" />
    <glyph glyph-name="uni4F53" unicode="&#x4f53;" 
d="M488 511l-67 -285h45l44 314h-180l13 95h180l6 38l-32 38h219l-11 -76h180l-13 -95h-180l-45 -314h46l13 285h124l-24 -503h-123l5 123h-54l-20 -140h-181l19 140h-53l-29 -123h-124l118 503h124zM303 616l-3 -21l-85 -604h-181l80 567l-58 -11l16 114l244 48z" />
    <glyph glyph-name="uni4F55" unicode="&#x4f55;" 
d="M897 690l-14 -95h-34l-77 -550q-3 -22 -20.5 -37t-40.5 -15h-163l71 74l75 530h-377l13 93h567zM646 532l-57 -406h-339l57 406h339zM279 597l-86 -605h-171l81 569l-59 -12l16 114l235 48zM491 452h-51l-34 -245h51z" />
    <glyph glyph-name="uni4F57" unicode="&#x4f57;" 
d="M802 257l-308 -33l-14 -100h301l43 20l-19 -133h-512l64 452h171l-17 -118l308 32zM283 597v-1l-86 -604h-171l80 568l-58 -12l16 114l235 48zM695 636h199l-21 -152h-170l9 63h-215l-9 -63h-170l21 152h204l5 36l-32 36h189z" />
    <glyph glyph-name="uni4F58" unicode="&#x4f58;" 
d="M679 408l-33 69l-9 -65h-319l8 57l-46 -61h-219l219 279l-20 23h497l138 -302h-216zM848 350l-13 -93h-279l-28 -200q-5 -29 -27 -47.5t-51 -18.5h-198l90 93l24 173h-287l13 93h756zM337 219l-141 -209h-172l141 209h172zM750 218l90 -207h-168l-89 207h167zM352 505
h281l-53 111h-144z" />
    <glyph glyph-name="uni4F59" unicode="&#x4f59;" 
d="M372 336l10 71h-74l7 49l-36 -48h-219l219 279l-21 23h497l139 -302h-216l-26 53l-7 -54h-73l-10 -71h283l-13 -90h-282l-26 -189q-5 -29 -26.5 -46.5t-50.5 -17.5h-198l88 91l23 162h-284l13 90h283zM318 219l-124 -207h-169l124 207h169zM750 217l69 -205h-170l-68 205
h169zM348 500h286l-55 116h-144z" />
    <glyph glyph-name="uni4F5A" unicode="&#x4f5a;" 
d="M764 710l-39 -113h146l-14 -98h-166l-39 -111h210l-13 -95h-89l52 -301h-181l-47 271l-129 -270h-180l142 300h-117l13 95h164l38 111h-41l-21 -72h-140l66 232l-12 33h163l-28 -95h46l29 85l-26 28h213zM306 597l-86 -605h-171l81 569l-59 -12l16 114l235 48z" />
    <glyph glyph-name="uni4F5B" unicode="&#x4f5b;" 
d="M755 709l-11 -76h142l-34 -242h-142l-10 -75h161l-32 -226q-3 -24 -22.5 -41.5t-44.5 -17.5h-87l35 55l21 152h-42l-34 -245h-136l34 245h-54l-96 -244h-132l97 244h-106l33 237h121l10 68h-122l13 90h122l6 42l-36 35h176l-11 -77h34l11 76h136zM276 597l-86 -605h-157
l81 569l-54 -12l16 114l216 48zM358 316h36l10 75h-35zM530 316h34l10 75h-34zM552 475h34l10 68h-35zM732 543l-10 -68h25l10 68h-25z" />
    <glyph glyph-name="uni4F5C" unicode="&#x4f5c;" 
d="M367 686l-21 25h180l-21 -76h390l-13 -95h-210l-15 -105h172l-13 -94h-172l-15 -105h191l-13 -95h-191l-21 -150h-181l77 549h-12l-31 -114h-152zM292 597l-86 -606h-181l81 569l-59 -11l16 114l245 48z" />
    <glyph glyph-name="uni4F5D" unicode="&#x4f5d;" 
d="M493 542l-29 -58h-159l96 189l-21 37h199l-35 -69h343l-83 -590q-5 -29 -27 -44t-51 -15h-294l77 90h138l65 460h-219zM293 597l-86 -605h-175l80 567l-50 -10l16 114l231 48zM669 466l-46 -326h-344l46 326h344zM492 223l22 160h-57l-22 -160h57z" />
    <glyph glyph-name="uni4F5E" unicode="&#x4f5e;" 
d="M803 426l-7 -46h72l-13 -95h-72l-12 -82l-128 -83l160 -127h-219l-62 48l-75 -48h-215l192 125l-90 71l13 96h-71l13 95h72l7 47h171l-7 -47h97l7 46h167zM290 597l-86 -605h-175l80 567l-50 -10l16 114l231 48zM890 544l-14 -97h-570l14 97h570zM885 695l-13 -95h-523
l13 95h523zM609 239l6 46h-97l-8 -60l35 -28z" />
    <glyph glyph-name="uni4F5F" unicode="&#x4f5f;" 
d="M647 282l-70 60l-116 -60h-170l13 90h98l83 49l-76 66h-106l136 191l-28 31h222l-37 -53h276l-25 -174l-163 -85l30 -25h138l-13 -90h-192zM302 597l-86 -605h-169l81 570l-65 -13l16 114l239 48zM760 -5l-482 35l12 88l482 -37zM738 126l-402 27l13 94l403 -27zM535 567
l-19 -28l69 -58l80 47l5 39h-135z" />
    <glyph glyph-name="uni4F60" unicode="&#x4f60;" 
d="M292 597l-86 -606h-181l81 569l-59 -11l16 114l245 48zM615 57q-5 -29 -27.5 -47.5t-51.5 -18.5h-188l90 93l58 418h181zM366 686l-20 25h180l-23 -76h392l-40 -152h-152l15 57h-243l-22 -76h-152zM828 426l-13 -362h-123l12 362h124zM448 426l-89 -361h-123l89 361h123z
" />
    <glyph glyph-name="uni4F63" unicode="&#x4f63;" 
d="M666 85l17 122h-61l-27 -197h-149l27 197h-64l-39 -215h-139l121 665l-31 36h563l-89 -635q-4 -28 -24 -47t-48 -19h-141zM283 596l-86 -604h-162l81 569l-65 -13l16 114l232 48zM677 595l-15 -104h60l15 104h-60zM636 302h60l14 100h-60zM426 302h61l14 100h-57z
M460 491h53l15 104h-49z" />
    <glyph glyph-name="uni4F64" unicode="&#x4f64;" 
d="M597 3l61 434h-154l-46 -331l116 9l-14 -98l-269 -17l83 594h-33l14 96h529l-14 -96h-344l-8 -61h306l-61 -430h32l31 38l-19 -138h-210zM295 596l-84 -603h-176l79 567l-64 -12l16 114l245 48zM605 373l13 -152h-96l-13 152h96z" />
    <glyph glyph-name="uni4F65" unicode="&#x4f65;" 
d="M714 417l-2 -18h-473l2 18h-177l265 293h375l183 -293h-173zM840 348l-114 -245h104l-13 -95h-785l13 95h504l114 245h177zM281 348l31 -205h-171l-31 205h171zM519 348l7 -205h-159l-5 205h157zM321 496h337l-65 111h-173z" />
    <glyph glyph-name="uni4F67" unicode="&#x4f67;" 
d="M452 447l33 230l-29 32h214l-13 -91h202l-13 -90h-201l-12 -81h238l-13 -93h-238l-50 -361h-181l50 361h-132l13 93h132zM308 596l-84 -603h-176l79 569l-73 -14l16 114l254 48zM806 83h-146l-32 221h146z" />
    <glyph glyph-name="uni4F69" unicode="&#x4f69;" 
d="M663 -6l85 605h-304l-101 -607h-133l118 699h546l-82 -585h23l35 38l-21 -150h-166zM664 117q-2 -20 -18 -34t-36 -14h-39l26 39l36 255h-25l-50 -363h-95l51 363h-24l-41 -294h-71l50 360h95l8 61h-86l9 67h274l-9 -67h-93l-9 -61h91zM272 595l-84 -603h-143l80 568
l-51 -12l16 114l198 47z" />
    <glyph glyph-name="uni4F6C" unicode="&#x4f6c;" 
d="M452 470l10 71h-131l13 93h130l7 46l-22 29h183l-11 -75h113l14 26h136l-102 -190h79l-13 -90h-371l-45 -65h99l-8 -57l259 70l-14 -101l-259 -71l-6 -41h247l24 15l-17 -119h-459l31 222h-84l100 147h-91l13 90h175zM275 595l-84 -603l-166 1l80 567l-57 -12l16 114
l227 47zM609 470h47l38 71h-75z" />
    <glyph glyph-name="uni4F6F" unicode="&#x4f6f;" 
d="M483 416l13 87h-163l13 96h61l-15 73l-32 36h174l17 -109h88l61 111h157l-58 -111h78l-13 -96h-184l-13 -87h150l-13 -92h-150l-12 -84h206l-13 -92h-206l-22 -157h-184l22 157h-179l13 92h179l12 84h-143l13 92h143zM305 596l-85 -603h-178l80 567l-63 -12l16 114
l246 48z" />
    <glyph glyph-name="uni4F70" unicode="&#x4f70;" 
d="M483 524l62 68h-226l14 98h567l-14 -98h-193l-62 -68h225l-72 -513h-529l72 513h156zM285 595l-84 -602l-181 1l79 564l-53 -10l16 114l239 47zM641 107l16 114h-214l-16 -114h214zM456 316h214l16 113h-214z" />
    <glyph glyph-name="uni4F73" unicode="&#x4f73;" 
d="M308 593l-84 -600l-184 1l79 563l-60 -11l16 114l249 47zM815 12h-566l14 99h203l11 78h-168l13 91h168l9 65h176l-9 -65h167l-13 -91h-167l-11 -78h187zM866 368h-567l14 96h195l10 77h-160l12 91h161l7 47l-34 31h214l-11 -78h158l-12 -91h-159l-11 -77h197z" />
    <glyph glyph-name="uni4F74" unicode="&#x4f74;" 
d="M814 102l-42 -3l-15 -108h-174l13 96l-355 -25l14 101l38 2l60 429h-19l14 96h547l-14 -96h-39l-56 -394l42 3zM288 596l-85 -603h-178l80 567l-62 -12l16 114l245 48zM493 349h140l11 75h-141zM517 519h140l11 75h-141zM468 178l142 10l10 66h-141z" />
    <glyph glyph-name="uni4F76" unicode="&#x4f76;" 
d="M831 325l-44 -316h-517l44 316h517zM519 634l6 38l-33 38h220l-11 -76h193l-14 -95h-192l-12 -82h172l-13 -95h-524l13 95h170l12 82h-192l14 95h191zM290 596l-84 -603h-180l79 566l-55 -11l16 114l240 48zM644 99l19 136h-205l-19 -136h205z" />
    <glyph glyph-name="uni4F7B" unicode="&#x4f7b;" 
d="M282 593l-84 -601l-169 1l79 565l-59 -12l16 114l233 47zM523 -5l100 714h152l-84 -601h80l52 30l-20 -143h-280zM405 -7h-158l133 249l60 426l-29 40h182l-65 -468zM230 181l55 219h101l-55 -219h-101zM735 181l17 220h94l-18 -220h-93zM292 444l12 194h100l-12 -194
h-100zM758 444l39 194h94l-39 -194h-94z" />
    <glyph glyph-name="uni4F7C" unicode="&#x4f7c;" 
d="M389 521h156l-76 -117h49l49 -80l75 80h52l-29 115h156l43 -167h-63l-146 -148l145 -210h-202l-61 90l-88 -89h-214l217 217l-94 140h-78zM287 596l-84 -603h-173l79 567l-62 -12l16 114l240 48zM530 636l6 40l-27 31h202l-10 -71h189l-13 -95h-549l13 95h189z" />
    <glyph glyph-name="uni4F7E" unicode="&#x4f7e;" 
d="M587 -7l47 57l12 89h-204l-21 -146h-152l66 471h-47l134 215l-25 30h201l-127 -205h233l-53 206h170l63 -246h-41l-56 -402q-4 -29 -27.5 -49t-51.5 -20h-121zM290 598l-86 -605h-168l81 568l-53 -11l16 114l226 48zM453 221h205l8 56h-205zM473 359h204l8 55h-204z" />
    <glyph glyph-name="uni4F7F" unicode="&#x4f7f;" 
d="M513 527l6 41h-194l13 92h194l3 19l-29 31h205l-7 -50h184l-13 -92h-184l-6 -41h188l-36 -253h-216l-82 -96l128 -77h166l-15 -108h-229l-126 96l-82 -96h-157l145 169l-110 84h182l24 28h-177l36 253h189zM290 596l-84 -603h-174l78 565l-47 -10l16 114l227 48zM489 357
l12 86h-52l-12 -86h52zM673 443l-12 -86h51l12 86h-51z" />
    <glyph glyph-name="uni4F83" unicode="&#x4f83;" 
d="M887 689l-44 -313h-532l44 313h532zM290 596l-84 -603h-174l78 563l-39 -8l16 114l219 48zM828 -7h-208l50 356h147l-35 -246h23l43 38zM449 -7l50 356h133l-50 -356h-133zM252 -7l87 355h133l-87 -355h-133zM703 466l19 133h-228l-19 -133h228z" />
    <glyph glyph-name="uni4F84" unicode="&#x4f84;" 
d="M711 352l-3 18l-40 -1l-13 -94h163l-13 -92h-163l-11 -79h201l-13 -95h-568l13 95h184l11 79h-151l13 92h151l12 89l-157 -5l13 90l100 146h-89l14 97h531l-14 -97h-257l-95 -140l167 5l-9 79h138l23 -187h-138zM297 596l-84 -603h-190l78 563l-39 -8l16 114l235 48z" />
    <glyph glyph-name="uni4F88" unicode="&#x4f88;" 
d="M307 596l-84 -603h-190l79 565l-54 -10l16 114l249 48zM598 183l7 -95h39l58 152h-220l-27 -58h-150l67 143l-23 30h188l-9 -18h310l-19 -135l-85 -208h-434l13 94h180l-7 95h112zM574 672h313l-19 -133l-77 -153h-442l13 95h173l-4 59h111l5 -59h72l51 96h-249l-38 -68
h-152l98 172l-24 28h190z" />
    <glyph glyph-name="uni4F89" unicode="&#x4f89;" 
d="M663 711l-40 -62h271l-14 -95h-67l56 -163h-141l-25 64l-9 -66h-209l9 60l-37 -56h-169l107 161h-63l14 95h112l22 33l-24 29h207zM293 596l-85 -603h-183l79 563l-39 -8l16 114l228 48zM600 69l37 76h-316l62 120h-94l12 89h551l-12 -89h-319l-21 -39h296l-11 -81
l-76 -152h-380l74 76h197zM508 472h189l-32 82h-104z" />
    <glyph glyph-name="uni4F8B" unicode="&#x4f8b;" 
d="M398 287l49 144h-53l-26 -62h-126l93 227h-40l13 95h304l-13 -95h-137l-29 -70h149l-16 -114l-150 -421h-216l13 89h114l31 92h-33l-75 151h131zM264 597l-86 -605h-156l81 570l-59 -13l16 114l220 48zM898 691l-89 -635q-5 -28 -27 -46t-50 -18h-137l87 91l82 581
l-24 27h158zM744 669l-74 -527h-114l74 527h114z" />
    <glyph glyph-name="uni4F8D" unicode="&#x4f8d;" 
d="M625 332l8 57h-324l14 97h184l9 65h-162l13 90h162l6 40l-34 28h222l-10 -68h164l-13 -90h-164l-9 -65h184l-14 -97h-58l-8 -57h59l-12 -87h-59l-26 -185q-4 -29 -26 -47.5t-51 -18.5h-178l89 93l22 158h-321l12 87h321zM303 596l-84 -603h-177l79 568l-69 -13l16 114
l251 48zM532 79h-169l-48 137h169z" />
    <glyph glyph-name="uni4F8F" unicode="&#x4f8f;" 
d="M380 654l-17 22h148l-17 -62h24l8 58l-29 38h230l-14 -96h162l-14 -98h-162l-14 -103h181l-13 -94h-182l-46 -328h-195l46 328h-178l13 94h178l15 103h-38l-19 -69h-127zM304 596l-85 -603h-175l79 565l-51 -10l16 114l232 48zM803 289l22 -281h-141l-10 281h129z
M469 289l-91 -280h-142l108 280h125z" />
    <glyph glyph-name="uni4F91" unicode="&#x4f91;" 
d="M440 638l27 50l-19 22h206l-36 -72h277l-13 -96h-312l-24 -49h312l-61 -435q-4 -29 -27 -47.5t-51 -18.5h-163l79 81l7 55h-163l-19 -136h-164l51 360h-59l101 190h-74l13 96h112zM289 595l-85 -603h-179l80 566l-54 -11l16 114l238 48zM491 216h164l7 53h-163zM511 357
h163l8 53h-163z" />
    <glyph glyph-name="uni4F94" unicode="&#x4f94;" 
d="M696 448l-9 -63h151l-13 -89h-151l-11 -75h171l-13 -92h-171l-19 -138h-171l19 138h-227l13 92h227l11 75h-63l-10 -33h-144l56 175h145l-18 -53h47l9 63h171zM300 595l-84 -603h-174l79 566l-54 -11l16 114l233 48zM841 673l36 -206h-143l-4 18l-410 -30l15 109l124 146
h192l-129 -152l193 15l-18 100h144z" />
    <glyph glyph-name="uni4F97" unicode="&#x4f97;" 
d="M898 693l-90 -642q-4 -24 -23.5 -40.5t-43.5 -16.5h-153l77 81l74 522h-294l-85 -603h-146l93 661l-17 38h608zM262 595l-84 -603h-157l79 567l-54 -12l16 114l216 48zM689 406l-38 -266h-244l38 266h244zM719 547l-13 -91h-266l13 91h266zM564 209l18 129h-50l-18 -129
h50z" />
    <glyph glyph-name="uni4F9B" unicode="&#x4f9b;" 
d="M359 341l22 155h-60l14 94h59l12 81l-33 38h208l-17 -119h87l12 83l-31 37h207l-17 -120h60l-14 -94h-60l-22 -155h81l-14 -94h-588l14 94h80zM295 595l-85 -603h-173l80 566l-54 -11l16 114l232 48zM411 -7h-179l118 224h170zM800 -7h-167l-53 224h168zM529 341h87
l22 155h-87z" />
    <glyph glyph-name="uni4F9D" unicode="&#x4f9d;" 
d="M524 622l8 54l-27 32h206l-12 -86h185l-13 -97h-274l-31 -61h137l21 -83l138 70l-18 -127l-92 -48l69 -264h-165l-101 432l-47 -93h24l-31 -224l91 12l-16 -115l-269 -29l29 211h-93l164 319h-102l13 97h206zM284 595l-84 -603h-165l79 566l-51 -11l16 114l221 48z" />
    <glyph glyph-name="uni4FA0" unicode="&#x4fa0;" 
d="M526 639l6 41l-30 29h219l-10 -70h164l-14 -98h-164l-24 -176l-2 -2h185l-14 -96h-125l105 -275h-172l-86 201l-126 -200h-190l174 274h-130l14 96h176l7 10l23 168h-164l14 98h164zM301 595l-84 -603h-174l79 566l-54 -11l16 114l233 48zM691 388l51 132h134l-49 -132
h-136zM462 520l16 -130h-126l-19 130h129z" />
    <glyph glyph-name="uni4FA3" unicode="&#x4fa3;" 
d="M856 342l-46 -329h-551l46 329h551zM370 646l-33 47h549l-42 -298h-510zM299 595l-84 -603h-181l78 563l-39 -8l16 114l226 48zM659 106l20 143h-222l-20 -143h222zM702 598h-168l-15 -108h168z" />
    <glyph glyph-name="uni4FA5" unicode="&#x4fa5;" 
d="M833 318l-13 -95h-83l-17 -119h82l42 24l-19 -135h-279l32 230h-41l-114 -230h-180l113 230h-86l13 95h550zM619 343l-34 63l-274 -62l13 95l217 49l-48 88h-148l13 95h84l-7 13l-22 26h168l22 -39h279l-13 -95h-212l31 -55l175 40l-14 -95l-115 -26l7 -11h115l31 18
l-15 -104h-253zM289 595l-85 -603h-172l79 564l-41 -9l16 114l219 48z" />
    <glyph glyph-name="uni4FA6" unicode="&#x4fa6;" 
d="M321 529h181l23 162l-16 18h202l-5 -33h183l-14 -95h-182l-7 -52h181l-52 -374h-83l-64 77l29 203h-232l-29 -204l-69 -77h-99zM290 593l-84 -601h-176l79 563l-52 -10l16 114l233 48zM647 402l-28 -188l189 -221h-186l-82 102l-108 -103h-194l241 222l28 188h140z" />
    <glyph glyph-name="uni4FA7" unicode="&#x4fa7;" 
d="M475 223l52 376h-149l-52 -366l-33 -47h-78l69 505h358l-68 -512h-70zM242 597l-84 -603h-139l79 567l-51 -12l16 114l195 48zM501 578l-51 -361l129 -223h-162l-35 82l-47 -82h-163l179 233l48 351h102zM901 697l-89 -636q-4 -28 -26 -47.5t-50 -19.5h-131l87 94l82 581
l-25 28h152zM751 674l-72 -511h-89l72 511h89z" />
    <glyph glyph-name="uni4FA8" unicode="&#x4fa8;" 
d="M469 520l46 76l-149 -3l14 94l503 14l-13 -96l-180 -5l-48 -80h234l-13 -96h-71l61 -189h-80l-35 -243h-163l39 272h66l-45 160h-50l-96 -160h53l-102 -271h-187l105 243h-58l112 188h-95l13 96h139zM301 593l-84 -601h-181l79 565l-65 -12l16 114l251 48z" />
    <glyph glyph-name="uni4FA9" unicode="&#x4fa9;" 
d="M454 684l-21 26h364l82 -285h-72l-7 -48h-424l7 50h-80zM774 201l43 -207h-155l-5 20l-380 -15l14 94l83 132h-90l14 94h549l-14 -94h-291l-73 -122l169 6l-19 92h155zM306 593l-85 -601h-180l80 564l-59 -11l16 114l244 48zM482 468h223l-38 147h-96z" />
    <glyph glyph-name="uni4FAA" unicode="&#x4faa;" 
d="M522 651l3 20l-33 38h217l-8 -58h183l-13 -95h-56l-11 -83l-111 -71l127 -83h-219l-33 22l-50 -23h-224l173 84l-99 71l11 83h-54l13 95h184zM293 593l-84 -601h-174l79 565l-59 -12l16 114l238 48zM539 295l-96 -302h-185l110 302h171zM794 294l-42 -302h-167l42 302
h167zM701 537l2 19h-214l-2 -19l103 -75z" />
    <glyph glyph-name="uni4FAC" unicode="&#x4fac;" 
d="M502 554h-44l-12 -79h-139l24 165h193l22 46l-22 24h218l-43 -70h188l-24 -168h-139l12 82h-89l-64 -106h127l18 -77l40 55h112l-124 -172l63 -261h-162l-91 428l-57 -94h31l-30 -211l88 12l-15 -108l-268 -26l26 187h-81zM290 593l-85 -601h-173l79 563l-48 -10l16 114
l227 48z" />
    <glyph glyph-name="uni4FAE" unicode="&#x4fae;" 
d="M580 54h75l5 29h-396l26 190h-24l11 80h24l27 186h527l-27 -187h37l-10 -75h-38l-31 -220q-4 -28 -25.5 -46t-50.5 -18h-196zM285 593l-84 -601h-171l78 563l-48 -10l16 114l225 48zM389 687l-21 21h192l-20 -37h350l-13 -91h-387l-12 -23h-168zM440 275l-16 -114h56
l-10 88h138l10 -88h34l16 114h-228zM452 360h54l-10 75h138l10 -75h35l15 101h-227z" />
    <glyph glyph-name="uni4FAF" unicode="&#x4faf;" 
d="M504 463l-17 -37h354l-11 -79h-167l-10 -70h187l-12 -84h-137l128 -200h-172l-85 131l-124 -131h-191l188 200h-165l12 84h196l9 70h-37l-15 -33h-151l70 149h150zM294 593l-84 -601h-169l79 564l-56 -11l16 114l230 48zM859 693l-18 -130h38l-12 -87h-550l12 87h352
l5 33h-296l13 97h456z" />
    <glyph glyph-name="uni4FB5" unicode="&#x4fb5;" 
d="M281 593l-84 -601h-165l79 565l-56 -12l16 114l226 48zM706 595l4 23h-360l10 73h527l-36 -260h-528l10 76h361l3 24h-343l9 64h343zM457 203l79 -49l117 62h-376l10 69h543l-14 -97l-182 -93l168 -102h-208l-73 44l-86 -44h-206l196 103l-121 75l4 32h149zM851 305h-130
l3 26h-317l-3 -23h-128l14 98h575z" />
    <glyph glyph-name="uni4FBF" unicode="&#x4fbf;" 
d="M519 566l5 34h-207l13 91h569l-13 -91h-218l-5 -34h199l-45 -322h-165l-103 -103l60 -37h208l-16 -110h-257l-80 63l-64 -64h-182l145 144l-102 82h166l11 -7l32 32h-201l45 322h205zM273 593l-84 -601h-168l79 564l-53 -11l16 114l226 48zM441 441h61l6 44h-61zM486 326
l6 44h-61l-6 -44h61zM652 485l-6 -44h55l6 44h-55zM685 326l6 44h-55l-6 -44h55z" />
    <glyph glyph-name="uni4FC3" unicode="&#x4fc3;" 
d="M365 655l-33 38h557l-42 -302h-153l-12 -82h151l-13 -96h-152l-14 -103h171l-14 -100h-372l-40 39l-14 -57h-154l97 358h143l-38 -158l54 -51l36 250h-195zM293 593l-84 -601h-178l79 564l-56 -11l17 115l238 48zM721 603h-206l-17 -121h206z" />
    <glyph glyph-name="uni4FC4" unicode="&#x4fc4;" 
d="M569 257l-92 -21l-25 -182q-4 -29 -25 -45.5t-50 -16.5h-153l88 88l17 121l-89 -20l15 107l89 20l14 103h-83l13 93h83l12 82l-81 -7l13 94l284 24l-13 -94l-57 -5l-14 -94h112l10 163l-25 25h152l-13 -188h120l-13 -93h-114l-8 -118l132 80l-18 -132l-123 -74l-6 -97h69
l42 38l-16 -116h-222l6 98l-118 -71l18 132l108 65l13 195h-119l-10 -69l92 21zM275 593l-84 -601h-162l79 563l-47 -10l17 115l213 48zM887 538h-109l3 144h109z" />
    <glyph glyph-name="uni4FC5" unicode="&#x4fc5;" 
d="M378 -7l79 90l60 427h-196l13 93h196l10 70l-28 37h192l-15 -107h195l-13 -93h-195l-64 -454q-5 -29 -24 -46t-45 -17h-165zM296 593l-85 -601h-175l79 564l-52 -11l16 115l233 48zM693 42l-33 236h129l33 -236h-129zM255 43l78 235h129l-78 -235h-129zM335 318l-13 152
h129l13 -152h-129zM665 319l56 151h129l-56 -151h-129zM731 629l-8 72h141l8 -72h-141z" />
    <glyph glyph-name="uni4FCA" unicode="&#x4fca;" 
d="M660 -7l-105 75l-152 -77h-166l14 94h71l124 62l-62 45h-128l94 178h-69l85 105h162l-76 -91h68l-25 -45h340l-19 -139l-140 -71l64 -42h73l-13 -94h-140zM293 593l-84 -601h-169l79 564l-56 -11l17 115l229 48zM842 668l38 -168h-159l-6 27l-385 -32l13 93l115 122h175
l-112 -118l178 12l-13 64h156zM829 477l39 -107h-164l-39 107h164zM472 263l101 -73l113 73h-214z" />
    <glyph glyph-name="uni4FCE" unicode="&#x4fce;" 
d="M391 98l84 592h440l-84 -592h19l-13 -86h-476l13 86h17zM278 367l-34 -90h83l23 -273h-126l-15 176l-65 -176h-140l134 363h140zM327 711l-19 -46h48l24 -273h-125l-10 114l-46 -115h-140l115 290l-21 30h174zM602 491h130l15 108h-130zM546 98h130l15 108h-130zM574 295
h130l15 108h-130z" />
    <glyph glyph-name="uni4FCF" unicode="&#x4fcf;" 
d="M602 -7l46 57l13 92h-226l-21 -149h-156l74 527h204l22 161l-33 30h186l-27 -191h186l-65 -459q-4 -28 -24.5 -48t-49.5 -20h-129zM290 593l-85 -601h-175l79 564l-52 -11l16 115l233 48zM761 660l-16 19h144l-56 -135h-120zM508 548h-121l-27 131h119zM466 367h226l9 61
h-226zM446 224h226l9 61h-226z" />
    <glyph glyph-name="uni4FD0" unicode="&#x4fd0;" 
d="M603 599l-95 -2l-12 -89h98l-13 -91h-98l-60 -424h-134l60 424h-99l13 91h99l12 86l-86 -2l13 95l315 7zM248 597l-85 -603h-143l80 568l-56 -13l16 114l204 48zM900 709l-89 -637q-2 -14 -9 -28.5t-17.5 -25.5t-23.5 -18t-27 -7h-135l92 106l81 579l-25 31h153zM739 628
l-69 -493h-101l69 493h101zM192 31l64 356h76l-64 -356h-76zM466 30l36 360h75l-36 -360h-75z" />
    <glyph glyph-name="uni4FD1" unicode="&#x4fd1;" 
d="M570 514h44l96 84h-352l13 95h512l-16 -114l-67 -65h76l-63 -447q-4 -29 -26.5 -51.5t-51.5 -22.5h-122l47 52l15 107h-50l-20 -142h-149l20 142h-54l-22 -159h-150l73 521h76l-22 61h171zM289 593l-84 -601h-168l78 563l-46 -10l17 115l219 48zM452 369h55l8 59h-54z
M433 232h54l8 57h-54zM664 428l-8 -59h49l9 59h-50zM636 232h50l8 57h-50z" />
    <glyph glyph-name="uni4FD7" unicode="&#x4fd7;" 
d="M840 314l-45 -321h-538l45 321h538zM286 593l-84 -601h-162l79 564l-51 -11l17 115l217 48zM811 495l63 -161h-187l-39 95h-122l-58 -95h-193l104 161h432zM578 695l-84 -170h-176l73 135l-33 35h220zM835 695l44 -172h-174l-38 172h168zM637 89l18 127h-197l-18 -127
h197z" />
    <glyph glyph-name="uni4FD8" unicode="&#x4fd8;" 
d="M835 437l-12 -89l-163 -84h171l-13 -90h-176l-16 -115q-2 -14 -11 -26t-22.5 -21t-29 -14t-30.5 -5h-175l91 94l12 87h-209l13 90h208l2 10l125 70h-290l13 93h512zM288 593l-84 -601h-178l79 565l-66 -12l17 115l248 48zM882 619l-545 -20l13 89l544 21zM667 577
l12 -109h-152l-12 109h152zM877 578l-34 -109h-139l34 109h139zM470 575l4 -108h-136l-3 108h135z" />
    <glyph glyph-name="uni4FDA" unicode="&#x4fda;" 
d="M489 250l6 45h-199l56 397h531l-56 -397h-193l-6 -45h192l-13 -95h-193l-7 -51h213l-13 -95h-570l13 95h218l7 51h-190l13 95h191zM286 593l-84 -601h-165l79 566l-66 -13l17 115l235 48zM468 541h62l8 57h-62zM508 389l8 57h-61l-8 -57h61zM705 389l8 57h-58l-8 -57h58z
M677 598l-8 -57h57l8 57h-57z" />
    <glyph glyph-name="uni4FDC" unicode="&#x4fdc;" 
d="M549 664l1 2l-32 43h178l-7 -45h202l-42 -297h-549l42 297h207zM289 593l-84 -601h-177l79 566l-66 -13l17 115l247 48zM846 341l-13 -90h-310l-16 -32h301l-9 -64l-61 -162h-283l58 78h119l30 73h-368l50 107h-81l13 90h570zM518 439l6 39h-71l-5 -39h70zM464 553h70
l5 38h-70zM724 439l5 39h-65l-6 -39h66zM679 591l-5 -38h66l5 38h-66z" />
    <glyph glyph-name="uni4FDD" unicode="&#x4fdd;" 
d="M477 351l8 57h-163l40 283h522l-40 -283h-174l-8 -57h196l-13 -95h-196l-37 -265h-185l37 265h-196l13 95h196zM295 593l-84 -601h-176l79 565l-59 -12l16 115l240 48zM224 -8l88 246h133l-88 -246h-133zM673 -8l-10 245h133l10 -245h-133zM699 498l14 103h-206l-14 -103
h206z" />
    <glyph glyph-name="uni4FDE" unicode="&#x4fde;" 
d="M254 -7l27 38l11 80h-89l-16 -117h-151l61 434h391l-54 -382q-4 -25 -19 -39t-33 -14h-128zM267 686l-21 26h529l108 -242h-162l-67 157h-241l-158 -156h-181zM563 -8l81 64l53 371h158l-53 -372q-4 -27 -25.5 -45t-48.5 -18h-165zM656 411l-44 -318h-132l44 318h132z
M669 547l-10 -76h-330l10 76h330zM231 307h89l6 42h-89zM214 188h89l6 42h-89z" />
    <glyph glyph-name="uni4FDF" unicode="&#x4fdf;" 
d="M297 292l72 184h143l-14 -34h356l-14 -97h-139l-10 -68h179l-13 -87h-170l142 -198h-177l-76 105l-114 -105h-193l221 198h-205l13 87h224l10 68h-72l-20 -53h-143zM306 593l-85 -601h-178l79 563l-47 -10l16 115l231 48zM851 674l25 -185h-142l-3 21l-373 -20l13 96
l108 124h161l-106 -124l186 8l-10 80h141z" />
    <glyph glyph-name="uni4FE1" unicode="&#x4fe1;" 
d="M824 265l-36 -257h-532l36 257h532zM292 597l-86 -606h-181l81 569l-59 -11l16 114l245 48zM514 635l6 38l-32 38h228l-11 -76h190l-13 -95h-570l13 95h189zM841 388l-13 -95h-532l13 95h532zM840 511l-14 -94h-494l14 94h494zM620 103l10 67h-170l-10 -67h170z" />
    <glyph glyph-name="uni4FE3" unicode="&#x4fe3;" 
d="M843 419l-12 -87h-150l-40 -54h205l-12 -88h-123l96 -196h-182l-77 157l-116 -158h-187l144 197h-115l12 88h168l40 54h-170l12 87h507zM297 593l-84 -601h-175l78 563l-47 -10l17 115l227 48zM368 655l-19 37h533l-33 -237h-509zM713 608h-195l-9 -69h195z" />
    <glyph glyph-name="uni4FE6" unicode="&#x4fe6;" 
d="M491 660l12 30l-24 20h190l-21 -50h239l-12 -87h-262l-12 -29h247l-12 -87h-271l-13 -30h322l-12 -87h-58l-7 -47h56l-12 -87h-56l-21 -146q-4 -29 -25 -47.5t-50 -18.5h-167l89 93l17 119h-166l-8 -19h110l22 -109h-120l-19 92l-65 -158h-152l132 328h-77l12 87h100
l12 30h-66l12 87h89l11 29h-111l12 87h135zM293 593l-85 -601h-176l80 564l-54 -11l16 115l235 48zM497 293h143l7 47h-130z" />
    <glyph glyph-name="uni4FE8" unicode="&#x4fe8;" 
d="M442 336l-75 -344h-166l100 437h132l24 170h-134l13 91h566l-13 -91h-134l-24 -170h134l-13 -93h-410zM270 593l-84 -601h-168l78 563l-46 -10l17 115l219 48zM436 468h-114l-7 110h114zM850 468h-110l35 110h109zM562 429h38l24 170h-38z" />
    <glyph glyph-name="uni4FE9" unicode="&#x4fe9;" 
d="M616 -7l67 72l8 61h-74l-3 128l-39 -127h-107l-3 128l-39 -128h-62l-19 -134h-132l75 529h166l10 75h-157l13 96h580l-13 -96h-174l-10 -75h170l-67 -475q-3 -21 -20 -37.5t-38 -16.5h-132zM256 596l-84 -602h-152l79 566l-51 -12l16 115l209 48zM688 430l-9 -63l18 -200
l37 263h-46zM581 367l9 63h-51l-9 -62l10 -110zM377 222l55 146l9 62h-34zM552 522h51l10 75h-51z" />
    <glyph glyph-name="uni4FEA" unicode="&#x4fea;" 
d="M423 411l-10 -186l35 249h-71l-67 -482h-105l78 558h281l-70 -498q-4 -26 -23.5 -43t-44.5 -17h-91l55 63l22 159h-53l11 197h53zM875 552l-70 -500q-4 -26 -25.5 -43t-49.5 -17h-75l49 63l58 419h-77l-9 -63h54l-7 -197h-54l7 194l-58 -416h-102l78 560h281zM254 593
l-84 -601h-146l79 567l-61 -14l17 115l211 48zM895 693l-13 -96h-586l13 96h586z" />
    <glyph glyph-name="uni4FED" unicode="&#x4fed;" 
d="M760 709l119 -300h-152l-18 49l-8 -61h-244l9 65l-34 -52h-160l178 271l-15 28h325zM285 593l-84 -601h-160l79 564l-53 -11l17 115l217 48zM844 348l-86 -246h78l-13 -92h-584l13 92h360l87 246h145zM618 348l-11 -231h-136l12 231h135zM435 348l-2 -230h-134l2 230h134
zM481 485h218l-48 133h-84z" />
    <glyph glyph-name="uni4FEE" unicode="&#x4fee;" 
d="M735 349l-90 70l-125 -70h-116l11 80h51l100 52l-26 21h-121l86 183l-31 25h202l-21 -43h230l-17 -123l-117 -66l70 -49h66l-11 -80h-141zM261 595l-84 -601h-144l78 563l-38 -10l17 115l187 48zM411 603l-72 -516h-122l72 516h122zM842 249l-438 -35l11 83l438 35z
M826 141l-438 -35l12 83l438 35zM811 34l-437 -34l11 82l438 35zM614 582l-2 -6l58 -41l88 47h-144z" />
    <glyph glyph-name="uni4FEF" unicode="&#x4fef;" 
d="M432 561l-92 -569h-148l118 662h214l3 17l-33 38h210l-8 -55h200l-13 -93h-451zM262 593l-84 -601h-154l79 565l-55 -12l17 115l213 48zM548 -7l89 94l40 285h-102l13 95h102l8 57h143l-8 -57h35l-13 -95h-36l-43 -312q-4 -29 -25.5 -48t-50.5 -19h-152zM572 428l-11 -3
l-60 -433h-119l55 398l-14 -4l14 97l149 42zM637 146h-76l4 180h76z" />
    <glyph glyph-name="uni4FF1" unicode="&#x4ff1;" 
d="M307 248l59 413l-27 30h548l-63 -443h22l-14 -97h-570l14 97h31zM288 593l-84 -601h-172l79 564l-55 -11l17 115l231 48zM795 -8h-172l-52 142h173zM394 -8h-168l93 143h168zM501 572h221l6 41h-221zM471 358h221l6 41h-221zM486 468h221l6 41h-221zM455 248h221l6 41
h-221z" />
    <glyph glyph-name="uni4FF3" unicode="&#x4ff3;" 
d="M816 710l-13 -92h84l-14 -95h-84l-15 -107h75l-13 -95h-75l-15 -101h101l-14 -95h-100l-19 -133h-171l102 718h171zM397 416l15 107h-96l14 95h95l8 52l-26 40h193l-102 -718h-161l19 133h-104l14 95h103l15 101h-90l13 95h90zM287 593l-85 -601h-169l79 563l-48 -10
l16 115l223 48z" />
    <glyph glyph-name="uni4FF8" unicode="&#x4ff8;" 
d="M444 555l16 22h-115l12 87h166l17 24l-32 21h194l-30 -45h204l-12 -87h-251l-15 -22h254l-12 -87h-282l-15 -22h329l-12 -87h-38l31 -64h-135l-30 64h-207l-45 -64h-154l46 64h-49l12 87h100l16 22h-66l12 87h91zM295 593l-84 -601h-168l79 563l-49 -10l17 115l221 48z
M662 332l-8 -56h191l-12 -83h-190l-4 -29h213l-12 -82h-213l-12 -90h-160l12 90h-203l12 82h203l4 29h-177l12 83h176l8 56h160z" />
    <glyph glyph-name="uni4FFA" unicode="&#x4ffa;" 
d="M438 5l16 120h-192l43 306h192l9 62h154l-9 -62h186l-43 -306h-186l-4 -32h194l35 29l-16 -117h-379zM281 593l-84 -601h-165l79 564l-51 -11l17 115l220 48zM453 652l26 36l-20 21h202l-42 -57h269l-13 -96h-73l44 -96h-151l-43 96h-103l-70 -97h-164l69 97h-79l13 96
h135zM466 206l4 34h-63l-4 -34h63zM418 316h63l5 34h-63zM677 206l4 34h-57l-4 -34h57zM640 350l-5 -34h57l5 34h-57z" />
    <glyph glyph-name="uni4FFE" unicode="&#x4ffe;" 
d="M526 660l2 13l-27 37h197l-7 -50h188l-50 -359h-303l-72 -74h-137l75 74h-96l50 359h180zM290 593l-85 -601h-165l80 564l-51 -11l16 115l221 48zM724 279l-10 -71h138l-12 -85h-139l-18 -131h-166l18 131h-283l12 85h284l10 71h166zM662 517h60l8 52h-60zM464 517h60
l8 52h-60zM507 392l7 51h-60l-7 -51h60zM705 392l7 51h-60l-7 -51h60z" />
    <glyph glyph-name="uni500C" unicode="&#x500c;" 
d="M262 10h-1l70 499h-44l21 146h206l2 16l-33 38h216l-8 -54h206l-21 -146h-57l-31 -220h-319l-5 -37h354l-34 -243h-522v1zM282 593l-84 -601h-176l79 563l-51 -10l17 115l231 48zM639 96l10 68h-197l-10 -68h197zM450 517h265l7 43h-265zM649 370l9 67h-168l-9 -67h168z
" />
    <glyph glyph-name="uni500D" unicode="&#x500d;" 
d="M833 295l-40 -289h-529l40 289h529zM301 593l-85 -601h-179l80 565l-62 -12l16 115l246 48zM836 540l-41 -113h75l-14 -95h-569l14 95h74l-8 112h160l8 -112h105l41 113h155zM530 651l3 21l-27 38h213l-9 -59h172l-13 -92h-529l13 92h177zM644 97l16 108h-207l-16 -108
h207z" />
    <glyph glyph-name="uni500F" unicode="&#x500f;" 
d="M758 348l-95 72l-146 -73h-123l14 100h66l97 44l-24 19l-3 -5h-154l104 180l-30 25h199l-26 -44h249l-20 -143l-113 -57l25 -19h102l-12 -99h-110zM683 337l-32 -51h60l-7 51h99l6 -51h51l-12 -82h-120l105 -211h-163l-89 179l-112 -180h-158l134 212h-72l12 82h112
l32 51h154zM266 595l-84 -601h-149l79 564l-47 -11l16 115l202 48zM401 603l-72 -516h-109l72 516h109zM602 581l61 -47l102 47h-163z" />
    <glyph glyph-name="uni5012" unicode="&#x5012;" 
d="M258 595l-84 -601h-153l79 565l-55 -12l17 115l212 48zM601 -6l85 79l84 598l-21 22h149l-91 -646q-3 -23 -21 -38t-41 -15h-144zM470 369l1 12l-210 -13l13 88l77 141h-70l13 94h339l-14 -95h-134l-73 -131l66 4l8 83h113l-17 -183h-112zM337 308l7 48h141l-7 -48h89
l-12 -86h-89l-15 -101l101 9l-14 -98l-344 -31l14 98l100 9l17 114h-82l12 86h82zM742 629l-68 -484h-98l68 484h98z" />
    <glyph glyph-name="uni5014" unicode="&#x5014;" 
d="M448 471l-91 -478h-154l132 699h558l-31 -221h-414zM462 429h97l-13 -97h36l16 115h128l-16 -115h35l13 97h97l-24 -174h-132l-23 -162h34l17 119h102l-29 -203h-399l29 204h102l-17 -120h33l23 162h-133zM266 593l-84 -601h-156l79 566l-62 -13l17 115l222 48zM747 607
h-279l-7 -51h279z" />
    <glyph glyph-name="uni5018" unicode="&#x5018;" 
d="M514 520l22 152l-32 38h185l-28 -190h219l-64 -457q-5 -28 -27 -49t-51 -21h-128l68 78l49 353h-291l-60 -431h-139l74 527h203zM286 593l-85 -601h-169l80 565l-57 -12l16 115l231 48zM696 387l-42 -302h-239l42 302h239zM750 675h137l-67 -129h-127zM488 545h-126
l-26 130h123zM573 156l22 160h-57l-22 -160h57z" />
    <glyph glyph-name="uni5019" unicode="&#x5019;" 
d="M544 435l-6 -19h307l-14 -95h-133l-6 -38h163l-13 -95h-159l133 -180h-152l-68 92l-84 -92h-152l163 180h-137l13 95h141l6 38h-35l-5 -19h-94l36 133h96zM278 711l-16 -114l-84 -597h-151l79 566l-49 -9l16 114zM855 692l-20 -143h57l-13 -95h-456l13 95h247l7 48h-209
l13 95h361zM432 654l-83 -589h-133l83 589h133z" />
    <glyph glyph-name="uni501A" unicode="&#x501a;" 
d="M294 593l-85 -601h-170l80 566l-66 -13l16 115l241 48zM868 431l-12 -89h-32l-43 -308q-3 -21 -19.5 -31t-37.5 -10h-177l85 85l37 264h-384l12 89h571zM525 657l2 15l-19 38h182l-8 -53h198l-13 -91h-93l80 -112h-157l-78 112h-14l-135 -112h-153l135 112h-112l13 91
h172zM624 311l-31 -224h-315l31 224h315zM486 247h-57l-13 -96h57z" />
    <glyph glyph-name="uni501C" unicode="&#x501c;" 
d="M900 692l-89 -635q-4 -29 -27 -46.5t-52 -17.5h-148l90 90l72 516h-290l-100 -606h-143l114 663l-31 36h604zM260 593l-84 -601h-157l79 564l-50 -11l17 115l211 48zM681 314l-32 -226h-242l32 226h242zM511 424l6 44h-56l10 74h57l5 36h126l-5 -36h55l-10 -74h-56
l-6 -44h75l-10 -74h-277l10 74h76zM572 160l12 82h-69l-12 -82h69z" />
    <glyph glyph-name="uni501F" unicode="&#x501f;" 
d="M847 369l-51 -358h-532l51 358h532zM411 653l4 26l-23 29h202l-8 -55h79l4 27l-22 30h191l-8 -57h56l-13 -92h-57l-10 -73h78l-12 -91h-576l12 91h80l10 73h-55l13 92h55zM292 593l-85 -601h-174l80 564l-54 -11l16 115l233 48zM663 229l8 55h-203l-8 -55h203zM644 96
l8 55h-203l-8 -55h203zM563 488h79l10 73h-79z" />
    <glyph glyph-name="uni5021" unicode="&#x5021;" 
d="M292 350h571l-48 -343h-571zM372 647l-33 45h550l-44 -311h-511zM288 593l-84 -601h-174l79 564l-52 -11l17 115l230 48zM662 93l6 46h-242l-6 -46h242zM437 218h242l7 45h-242zM700 464l4 33h-197l-4 -33h197zM518 576h197l5 33h-197z" />
    <glyph glyph-name="uni5025" unicode="&#x5025;" 
d="M283 593l-84 -601h-169l79 563l-49 -10l17 115l222 48zM439 103l17 122h-157l14 95h493l-14 -95h-156l-17 -122h195l-13 -95h-570l13 95h195zM725 559h-266l-8 -63h-152l21 150h203l4 25l-33 38h206l-9 -63h199l-21 -150h-152zM299 343l88 131h169l-88 -131h-169z
M805 474l38 -135h-154l-43 135h159z" />
    <glyph glyph-name="uni5026" unicode="&#x5026;" 
d="M628 581h81l35 83l-15 26h148l-45 -109h51l-12 -91h-299l-22 -37h335l-12 -91h-59l43 -142h-48l-5 -41q-4 -28 -15 -38t-40 -10h-139l37 68l5 41h-175l-19 -140h319l41 26l-16 -117h-517l29 210h-49l85 143h-70l12 91h113l22 37h-119l12 91h56l-8 111h123l7 -83l48 79
l-18 23h180zM289 593l-85 -601h-169l79 563l-48 -10l16 115l223 48zM472 325h219l-10 37h-187z" />
    <glyph glyph-name="uni5028" unicode="&#x5028;" 
d="M567 275l7 50h-133l-65 -333h-162l132 700h545l-32 -227h-115l-8 -57h117l-11 -83h-118l-7 -50h118l-38 -266h-385l38 266h117zM281 593l-84 -601h-169l79 563l-49 -10l17 115l222 48zM747 603h-260l-7 -49h260zM683 97l12 91h-132l-12 -91h132zM457 408h129l8 57h-126z
" />
    <glyph glyph-name="uni5029" unicode="&#x5029;" 
d="M586 -9l46 55l8 56h-198l-16 -111h-159l54 377h516l-44 -311q-4 -29 -19 -47.5t-44 -18.5h-144zM526 569l4 29h-172l11 76h168l-28 35h204l-5 -35h173l-11 -76h-173l-4 -29h156l-11 -76h-156l-4 -29h210l-11 -77h-568l11 77h192l4 29h-157l11 76h156zM299 593l-84 -601
h-183l78 562l-43 -9l17 115l231 48zM451 169h198l4 27h-198zM465 263h198l4 27h-198z" />
    <glyph glyph-name="uni502A" unicode="&#x502a;" 
d="M726 527l11 72h-107l13 91h248l-57 -401h-90l-25 -180h71l44 38l-22 -155h-260l41 297h-45l-121 -297h-174l121 297h-90l11 85l1 2l30 212l1 10l12 86l267 20l-14 -96l-116 -9l-11 -73h118l-12 -81h-117l-10 -71h261l10 72h-104l11 81h104zM278 593l-84 -601h-166l79 564
l-51 -11l17 115l221 48z" />
    <glyph glyph-name="uni502C" unicode="&#x502c;" 
d="M316 549h174l18 132l-33 29h207l-6 -39h221l-12 -87h-221l-5 -35h203l-45 -320h-204l-5 -37h224l-12 -86h-224l-15 -113h-169l15 113h-193l12 86h193l5 37h-173zM281 593l-85 -601h-174l80 564l-53 -11l16 115l232 48zM690 464h-226l-5 -37h226zM674 351h-226l-5 -37h226
z" />
    <glyph glyph-name="uni502D" unicode="&#x502d;" 
d="M864 618l-172 -5l-6 -45h207l-12 -85h-74l48 -131h-120l-47 131h-14l-19 -134h-162l19 134h-27l-79 -135h-139l79 135h-53l12 85h219l6 41l-180 -5l12 85l514 14zM788 333l-5 -32h74l-13 -91h-74l-6 -47l-117 -70l163 -102h-269l-30 20l-34 -20h-241l163 98l-108 75l6 46
h-59l13 91h59l5 31h190l-5 -31h90l5 32h193zM277 593l-84 -601h-167l78 563l-44 -10l16 115l217 48zM575 196l2 14h-90l-2 -15l43 -27z" />
    <glyph glyph-name="uni502E" unicode="&#x502e;" 
d="M439 -7l31 222h-207l13 90h206l7 45h-183l44 314l-22 28h555l-48 -342h-183l-7 -45h205l-13 -90h-204l-31 -222h-163zM285 593l-84 -601h-165l78 563l-45 -10l17 115l215 48zM227 4l96 190h133l-95 -190h-134zM693 4l-47 190h133l46 -190h-132zM457 556h61l7 54h-60z
M724 432l7 54h-60l-8 -54h61zM688 610l-7 -54h60l8 54h-61zM500 432l8 54h-61l-7 -54h60z" />
    <glyph glyph-name="uni503A" unicode="&#x503a;" 
d="M507 559l3 26h-171l11 76h170l3 22l-24 27h196l-7 -49h180l-11 -76h-178l-4 -26h160l-10 -76h-159l-3 -25h215l-11 -76h-577l11 76h194l3 25h-154l10 76h153zM289 593l-75 -601h-172l70 564l-55 -11l16 115l232 48zM311 359h531l-25 -248h-69l-71 62l13 113h-251
l-10 -118l-77 -56h-73zM645 256l-10 -80l209 -183h-199l-93 85l-114 -85h-201l233 173l11 90h164z" />
    <glyph glyph-name="uni503C" unicode="&#x503c;" 
d="M535 667l3 16l-24 27h184l-6 -43h195l-12 -87h-196l-4 -33h181l-64 -450h35l-12 -86h-587l12 86h35l64 450h180l4 33h-196l12 87h196zM285 593l-85 -601h-168l80 564l-55 -11l16 115l228 48zM474 431h213l6 41h-213zM427 97h213l6 41h-213zM458 320h213l6 40h-213z
M443 209h213l5 40h-213z" />
    <glyph glyph-name="uni503E" unicode="&#x503e;" 
d="M898 692l-13 -95h-130l-19 -48h124l-52 -373h-82l-17 19l39 272h-170l-39 -272l-21 -19h-82l52 373h101l19 48h-138l13 95h415zM245 593l-84 -601h-140l79 566l-55 -13l17 115l199 48zM409 510h51l-14 -95h-50l-43 -305l66 18l-14 -98l-200 -36l98 700h132zM716 432
l-33 -235l124 -204h-149l-40 122l-82 -122h-141l173 204l33 235h115z" />
    <glyph glyph-name="uni5043" unicode="&#x5043;" 
d="M218 8l96 685h139l1 -1h447l-11 -76h-448l-72 -518h447l-13 -90h-586zM257 593l-84 -601h-154l79 564l-51 -11l17 115l209 48zM867 590l-33 -235h-396l33 235h396zM786 341l-2 -12h46l-10 -70h-46l-6 -46l-74 -31l99 -70h-141l-56 28l-67 -28h-148l131 70l-61 31l6 46
h-47l10 70h47l2 12h97l-2 -12h121l2 12h99zM560 497h192l5 37h-192zM740 411l5 36h-192l-5 -36h192zM675 255v4h-121v-4l57 -30z" />
    <glyph glyph-name="uni5047" unicode="&#x5047;" 
d="M412 378h123l-12 -85h-123l-8 -55h123l-12 -87h-123l-22 -157h-141l98 699h298l-36 -259h-157zM257 593l-84 -601h-154l79 564l-51 -11l17 115l209 48zM652 297l7 -20l27 -55l17 19l11 82h-132l12 85h264l-24 -170l-98 -113l67 -132h-117l-24 47l-41 -47h-136l128 145
l-60 120l6 39h93zM738 529l11 78h-125l12 86h264l-35 -250h-264l12 86h125zM498 527l10 73h-68l-10 -73h68z" />
    <glyph glyph-name="uni5048" unicode="&#x5048;" 
d="M881 691l-38 -273h-516l38 273h516zM297 593l-84 -601h-175l79 564l-53 -11l17 115l232 48zM493 375h381l-45 -318q-4 -29 -26.5 -47t-50.5 -18h-143l68 64l33 235h-266l1 8l-18 -28h-163l88 133h160zM273 43l30 213h131l7 -1l-19 -131h223l-11 -81h-361zM562 195
l-26 -47h-93l73 132h93l-20 -36h42l41 -94h-90zM715 488l5 39h-242l-5 -39h242zM486 583h242l6 38h-242z" />
    <glyph glyph-name="uni504C" unicode="&#x504c;" 
d="M421 460l29 46h174l-29 -46h286l-13 -97h-334l-38 -60h342l-41 -294h-499l21 153h-86l127 201h-79l13 97h127zM284 593l-84 -601h-169l79 564l-51 -11l17 115l224 48zM821 651h68l-13 -93h-68l-5 -38h-151l5 38h-115l-5 -38h-148l5 38h-68l13 93h68l4 29l-22 29h174
l-8 -58h115l4 29l-22 29h177zM651 99l16 114h-180l-16 -114h180z" />
    <glyph glyph-name="uni504E" unicode="&#x504e;" 
d="M891 690l-45 -321h-547l41 294l-23 27h574zM273 593l-84 -601h-161l79 564l-51 -11l17 115l216 48zM862 347l-13 -88h-404l-22 -162l121 9l-14 -95l-276 -17l37 265h-49l13 88h607zM651 239l24 -37l153 42l-13 -95l-89 -24l87 -132h-164l-161 246h163zM464 564h75l5 30
h-76zM525 465l4 30h-75l-4 -30h75zM721 465l4 30h-74l-4 -30h74zM666 594l-5 -30h74l4 30h-73z" />
    <glyph glyph-name="uni504F" unicode="&#x504f;" 
d="M499 160h-30l-23 -167h-106l47 335l-68 -335h-117l128 667h207l2 13l-32 38h198l-8 -51h183l-31 -224h-440l-6 -30h478l-51 -360q-3 -20 -19.5 -36.5t-37.5 -16.5h-113l24 26h-84l20 141h-31l-20 -141h-90zM274 593l-85 -601h-151l80 565l-51 -12l17 116l206 48zM745 573
h-315l-7 -51h315zM727 65l13 95h-30l-19 -134zM601 249h31l11 73h-31zM733 322l-11 -73h31l10 73h-30zM482 249h29l11 73h-30z" />
    <glyph glyph-name="uni5055" unicode="&#x5055;" 
d="M610 378l-33 -31h269l-48 -342h-533l48 342h144l33 31h120zM291 593l-84 -601h-177l79 563l-51 -10l17 116l232 48zM876 575l-118 -19l-11 -82h112l25 18l-15 -104h-288l39 296l-14 24h174l-8 -58l117 18zM496 636h102l-12 -87h-102l-10 -70l104 10l-11 -76l-262 -39
l42 310l-15 24h174zM435 213h249l7 46h-249zM668 94l6 45h-249l-6 -45h249z" />
    <glyph glyph-name="uni505A" unicode="&#x505a;" 
d="M349 587l13 94l-24 28h189l-17 -122h59l-13 -97h-60l-12 -91h62l-52 -370h-285l52 370h62l12 91h-58l13 97h59zM779 710l-36 -98h153l-12 -81h-17l-20 -146l-103 -179l72 -213h-142l-17 60l-34 -60h-146l135 225l-57 209h116l23 -71l21 34l19 141h-21l-24 -65h-133
l73 209l-21 35h171zM264 593l-85 -601h-155l80 564l-51 -11l17 116l210 48zM393 119l27 190h-60l-27 -190h60z" />
    <glyph glyph-name="uni505C" unicode="&#x505c;" 
d="M447 74l13 91h-156l7 53h-54l22 152h577l-22 -152h-55l-7 -53h-137l-16 -114q-5 -29 -26 -43.5t-50 -14.5h-182zM279 593l-84 -601h-172l79 564l-56 -11l17 116l232 48zM847 561l-23 -160h-506l23 160h506zM531 664l1 6l-33 37h187l-6 -43h217l-10 -72h-569l10 72h203z
M389 259h324l5 32h-324zM686 460l6 41h-215l-6 -41h215z" />
    <glyph glyph-name="uni5065" unicode="&#x5065;" 
d="M365 8l-31 36l-14 -34h-111l50 123l-42 50l18 129l68 -73l46 113l1 8h-100l114 239h-79l10 74h207l-10 -74l-84 -166h64l-12 -81l-80 -195l50 -53h103l7 51h-84l10 76h84l5 35h-70l11 76h70l5 40h-79l11 76h79l4 30h-103l11 76h103l4 30h-91l11 77h90l-32 38h179l-6 -38
h133l-15 -107h23l-11 -76h-23l-15 -106h-132l-6 -40h118l-11 -76h-117l-5 -35h134l-10 -76h-135l-7 -51h155l-13 -96h-450zM258 593l-84 -601h-148l79 564l-49 -11l17 116l201 48zM741 594l-4 -30h31l4 30h-31zM753 458l4 30h-31l-4 -30h31z" />
    <glyph glyph-name="uni506C" unicode="&#x506c;" 
d="M526 710l-22 -50h376l-42 -299q-4 -29 -23.5 -48t-48.5 -19h-113l60 94l25 175l-49 -106l19 -5l-16 -85l-40 10l-31 -68h-101l43 91l-34 9l-47 -100h-110l65 124l-7 2l15 84l32 -8l31 59h-44l-69 -159h-124l113 279l-18 20h160zM288 593l-85 -601h-164l80 564l-50 -11
l17 116l218 48zM363 10l10 69l27 190h141l-22 -153h146l36 32l-20 -138h-318zM726 248h97l-14 -239h-97zM316 9h-96l56 238h97zM567 276h110l-2 -132h-110zM600 479l42 91h-36l-39 -82z" />
    <glyph glyph-name="uni5076" unicode="&#x5076;" 
d="M682 224l-2 -133h-66v8l-221 -15l11 79l84 5l12 86h-93l-37 -262h-146l48 342h239l5 34h-202l40 286l-33 38h571l-45 -324h-202l-5 -34h221l-39 -276q-4 -29 -26.5 -47.5t-51.5 -18.5h-133l65 64l28 198h-85l-11 -78l13 1l2 47h59zM276 591l-84 -598h-164l79 561l-50 -11
l17 116l218 48zM482 564h61l6 43h-61zM528 453l6 43h-61l-6 -43h61zM718 453l6 43h-61l-6 -43h61zM678 607l-6 -43h61l6 43h-61z" />
    <glyph glyph-name="uni5077" unicode="&#x5077;" 
d="M392 -8l28 39l13 91h-64l-18 -130h-121l63 447h305l-55 -392q-4 -27 -19.5 -41t-35.5 -14h-96zM281 591l-84 -597h-164l79 560l-50 -11l16 116l219 48zM423 683l-23 27h373l113 -245h-141l-73 155h-150l-88 -157h-144zM613 -8l83 92l51 363h117l-55 -390
q-4 -28 -26.5 -46.5t-51.5 -18.5h-118zM715 426l-48 -341h-89l48 341h89zM705 544l-11 -80h-224l11 80h224zM379 191h64l7 51h-63zM397 311h63l7 51h-63z" />
    <glyph glyph-name="uni507B" unicode="&#x507b;" 
d="M808 335l-4 -24h59l-15 -95h-57l-7 -55l-140 -69l173 -101h-219l-77 42l-86 -42h-222l199 102l-108 60l9 63h-67l16 95h64l4 24h171l-4 -24h133l4 24h174zM365 483h-65l13 94h205l15 104l-24 28h189l-19 -132h204l-13 -94h-68l40 -120h-137l-40 119l-17 -123h-161l17 121
l-83 -117h-141zM284 591l-84 -597h-166l79 560l-51 -11l16 116l222 48zM491 599h-142l-28 93h139zM758 690h128l-53 -92h-132zM614 196l3 20h-133l-4 -27l56 -33z" />
    <glyph glyph-name="uni507E" unicode="&#x507e;" 
d="M279 591l-84 -597h-165l79 560l-50 -11l16 116l220 48zM298 370h549l-37 -263h-93l-55 48l18 131h-239l-17 -121l-69 -57h-94zM832 516h57l-13 -94h-57l-5 -35h-138l5 35h-205l-5 -34h-139l5 34h-57l13 94h57l6 40h139l-6 -40h205l6 40h138zM643 257l-14 -100l188 -165
h-180l-102 93l-100 -93h-183l207 178l12 87h172zM520 584h-181l12 90h183l1 8l-24 28h187l-6 -36h182l-12 -90h-183l-4 -32h-159z" />
    <glyph glyph-name="uni507F" unicode="&#x507f;" 
d="M680 573h207l-25 -178h-64l-7 -50h-450l7 51h-54l25 177h207l16 113l-25 23h182zM660 -7l-6 26l-397 -19l10 71l106 140h-109l12 86h575l-12 -86h-316l-82 -118l194 11l-16 76h148l40 -187h-147zM283 591l-84 -597h-167l79 561l-61 -12l16 117l233 48zM430 427h304l9 57
h-304zM717 591l37 65l-22 34h154l-43 -99h-126zM353 690h125l17 -99h-122z" />
    <glyph glyph-name="uni5080" unicode="&#x5080;" 
d="M506 -7l25 177l-145 -177h-169l249 296h-178l52 368h130l4 26l-35 27h229l-7 -53h228l-52 -368h-209l-33 -40h62l-25 -178h159l43 36l-16 -114h-312zM280 591l-84 -597h-166l78 559l-48 -10l16 117l220 48zM831 224l-5 -107h-61v12l-111 -10l9 61l34 83h66l-30 -67l36 3
l1 25h61zM724 378l6 49h-76l-7 -49h77zM673 568l-7 -49h77l7 49h-77zM445 519h71l7 49h-71zM497 378l7 49h-72l-6 -49h71z" />
    <glyph glyph-name="uni5085" unicode="&#x5085;" 
d="M519 558l4 29h-224l11 77h224l2 15l-30 31h178l-7 -46h53l-8 45h119l11 -45h46l-11 -77h-221l-4 -29h203l-40 -283h-132l5 33h-71l-6 -46h-143l6 46h-70l-5 -36h-132l40 286h202zM270 591l-84 -597h-164l79 560l-51 -11l16 117l220 48zM777 261l-4 -25h68l-11 -81h-68
l-13 -98q-4 -26 -31 -45.5t-62 -19.5h-169l113 73l12 90h-368l11 81h368l4 25h150zM473 32h-158l-6 103h158zM653 490l-4 -29h70l5 29h-71zM423 376h71l4 29h-71zM637 376h70l4 29h-70zM435 461h71l4 29h-70z" />
    <glyph glyph-name="uni5088" unicode="&#x5088;" 
d="M849 340h-564l32 228h153l5 35h-160l13 88h554l-13 -88h-138l-5 -35h155zM480 182l3 18h-226l12 83h226l5 37h158l-5 -37h211l-12 -83h-211l-3 -19h127l58 -178h-147l-44 133l-20 -142h-158l23 166l-120 -157h-138l137 179h124zM285 591l-84 -597h-164l79 560l-51 -11
l16 117l220 48zM558 405h34l14 99h-34zM717 504l-14 -99h34l14 99h-34zM447 405l14 99h-32l-14 -99h32zM581 568h34l5 35h-34z" />
    <glyph glyph-name="uni508D" unicode="&#x508d;" 
d="M645 55l13 90h-173l-102 -153h-157l176 264h-117l13 94h204l8 53h141l-8 -53h213l-13 -94h-284l-19 -29h281l-27 -191q-3 -20 -19 -32t-35 -12h-140zM294 591l-84 -597h-168l79 560l-51 -11l16 117l224 48zM529 505h138l19 56h124l-18 -56h85l-19 -133h-134l8 56h-288
l-8 -56h-134l19 133h83l-3 56h125zM536 659l2 13l-32 38h222l-8 -51h147l-11 -82h-499l11 82h168z" />
    <glyph glyph-name="uni50A3" unicode="&#x50a3;" 
d="M439 555l14 23h-107l12 87h148l14 23l-20 22h196l-28 -45h208l-12 -87h-250l-14 -23h249l-12 -86h-291l-13 -22h344l-13 -88h-43l21 -113h-126l-20 113h-218l-69 -112h-157l68 112h-32l13 88h72l14 22h-54l12 86h94zM290 591l-84 -597h-164l79 561l-55 -12l17 117l223 48
zM392 -9l57 65l38 275h161l-38 -274q-4 -28 -26.5 -47t-51.5 -19h-140zM673 15l-38 107h144l38 -107h-144zM240 15l74 107h138l-74 -107h-138zM640 138l61 90h139l-61 -90h-139zM317 140l-52 89h140l52 -89h-140z" />
    <glyph glyph-name="uni50A5" unicode="&#x50a5;" 
d="M820 456l-32 -230h-63l-17 -121h95l27 29l-21 -142h-273l33 234h-47l-133 -234h-165l133 234h-48l32 230h479zM271 591l-84 -598h-159l79 562l-55 -12l16 117l219 48zM494 603h29l11 72l-25 35h184l-16 -107h23l39 68l-18 21h162l-50 -89h59l-18 -132h-129l8 58h-334
l-8 -58h-129l18 132h62l-18 66l-18 23h144zM462 304h193l11 75h-193z" />
    <glyph glyph-name="uni50A7" unicode="&#x50a7;" 
d="M294 240l36 261l496 25l-12 -80l-337 -20l-5 -38h357l-12 -83h-81l-9 -65h119l-12 -88h-595l12 88h43zM275 591l-84 -598h-159l79 562l-55 -12l16 117l219 48zM756 572h-330l-7 -49h-118l19 134h210l2 14l-33 38h197l-8 -52h199l-16 -116h-119zM384 -7h-164l120 141h167z
M563 134h163l69 -141h-162zM452 240h126l9 65h-127z" />
    <glyph glyph-name="uni50A8" unicode="&#x50a8;" 
d="M547 493l9 65h-72l12 87h72l4 27l-33 38h187l-9 -65h67l12 27h112l-76 -179h51l-13 -91h-274l-19 -46h248l-49 -346h-353l28 201h-51l78 191h-43l13 91h99zM245 593l-84 -601h-149l78 561l-33 -8l17 116l187 48zM206 -9l57 399h-20l12 91h157l-50 -361l54 14l-13 -88z
M409 677l5 -159h-122l-4 159h121zM561 227h136l7 47h-136zM679 92l6 46h-136l-6 -46h136zM695 493h25l27 65h-43z" />
    <glyph glyph-name="uni50A9" unicode="&#x50a9;" 
d="M662 622l-2 -1l-2 -12h59l9 63l-21 38h148l-14 -101h54l-11 -84h-55l-11 -79h54l-11 -84h-55l-12 -80h53l-11 -83h-54l-11 -80h65l-12 -90h-246l-4 -33h-133l83 592l-19 -4l12 88l160 38zM364 539l-8 -63l5 -27l18 44l12 86h-126l11 77h215l-29 -206l-71 -175l47 -267
h-114l-12 70l-28 -70h-105l103 250l-29 175l14 106h97zM250 593l-85 -601h-139l80 564l-44 -11l17 116l187 48zM612 282h59l11 80h-59zM589 119h59l11 80h-59zM635 446h59l11 79h-59z" />
    <glyph glyph-name="uni50AC" unicode="&#x50ac;" 
d="M489 465h106l4 28h137l-4 -28h129l-12 -90h-130l-5 -34h112l-12 -87h-112l-4 -33h111l-12 -88h-112l-5 -34h150l-13 -90h-418l-1 -9h-143l45 322l-25 -8l19 134l201 60zM274 591l-84 -598h-164l78 560l-46 -10l17 117l215 48zM463 599h72l11 78l-26 31h171l-15 -109h72
l13 94h133l-24 -174h-551l24 173h133zM412 99h131l5 34h-132zM445 341h132l5 34h-123l-9 -3zM429 221h132l4 33h-132z" />
    <glyph glyph-name="uni50B2" unicode="&#x50b2;" 
d="M348 537l5 37h-78l14 95h77l2 11l-30 31h176l-6 -42h82l-14 -95h-82l-5 -37h77l-12 -86h-77l-5 -37h91l-12 -82h-148l-9 -34h152l-37 -258q-3 -22 -19 -35.5t-37 -13.5h-120l51 47l25 177h-38l-59 -222h-131l93 339h-46l12 82h91l5 37h-78l12 86h78zM789 710l-30 -93h148
l-12 -86h-24l-20 -146l-100 -172l70 -222h-123l-27 85l-50 -85h-109l120 207l-62 198h124l18 -60l41 70l17 125h-39l-33 -105h-126l88 284h129zM244 593l-85 -601h-147l79 560l-29 -7l17 116l181 48z" />
    <glyph glyph-name="uni50BA" unicode="&#x50ba;" 
d="M470 666h109l-16 43h136l12 -42h179l-90 -208l49 -146h-137l-102 271l-133 -269h-216l10 70h101l18 35h-83l7 52h103l20 38h-62l-18 -29h-101l-68 -488h-159l79 561l-52 -11l17 117l215 48l-16 -117l-10 -68l116 186h119zM840 285l-11 -82h-188l-22 -150
q-4 -30 -28 -46.5t-54 -16.5h-169l85 72l26 141h-224l11 82h574zM439 181l-98 -170h-128l100 170h126zM780 180l30 -169h-128l-27 169h125zM679 399l-7 -67h-158l11 67h154zM713 602l25 -72l31 72h-56zM421 586l-16 -26h58l14 26h-56z" />
    <glyph glyph-name="uni50BB" unicode="&#x50bb;" 
d="M649 673h242l-42 -302h-551l42 302h152l7 12l-22 25h194zM575 -7l-58 54l-88 -54h-182l10 76h111l77 46l-40 37h-114l158 181h132l-29 -33h134l-26 56h141l48 -107h-101l-9 -68l-119 -72l52 -40h143l-10 -76h-230zM276 591l-84 -598h-164l79 560l-49 -10l16 117l218 48z
M449 355l-84 -102h-126l83 102h127zM463 581h99l38 -27l46 25h95l3 21h-278zM722 444l2 17h-97l-40 27l-47 -27h-94l-2 -17h278zM725 467l15 109l-94 -54zM448 470l92 51l-78 54zM487 221l54 -57l70 57h-124z" />
    <glyph glyph-name="uni50CF" unicode="&#x50cf;" 
d="M332 563h295l32 43h-136l-15 -20h-176l82 100l-17 24h207l-25 -32h268l-9 -66l-42 -49h90l-27 -189h-231l38 -68l172 48l-11 -84l-42 -11l49 -231h-122l-38 191l-23 -164q-4 -28 -25.5 -45t-50.5 -17h-154l78 69l7 49l-139 -92h-153l304 191l2 -1l2 20l-140 -84h-153
l265 151l-4 15l-81 -43h-145l189 106h-148zM283 591l-84 -598h-165l78 559l-41 -9l17 118l211 48zM748 496h-98l-8 -54h99zM443 442h97l7 54h-97z" />
    <glyph glyph-name="uni50D6" unicode="&#x50d6;" 
d="M287 591l-84 -598h-175l78 560l-48 -10l17 118l228 48zM862 490l-25 -176h-535l25 176h535zM819 164l-23 -159h-543l23 159h543zM532 673l-31 36h198l-5 -36h197l-10 -73h-197l-5 -32h179l-9 -60h-516l9 60h177l5 32h-197l10 73h195zM479 266h158l12 25h117l-12 -25h98
l-10 -73h-588l10 73h98l-4 25h117zM702 380l6 43h-247l-6 -43h247zM657 63l6 43h-246l-6 -43h246z" />
    <glyph glyph-name="uni50DA" unicode="&#x50da;" 
d="M842 445l25 -40h-31l-29 -214h-175l-20 -139q-4 -26 -25 -43.5t-47 -17.5h-149l84 86l16 114h-201l30 215h-36l64 79l-25 59h73l24 30h-111l13 87h169l40 49h151l-42 -49h251l-13 -87h-113l18 -30h91l-45 -77l10 -16h4zM275 591l-84 -598h-162l79 561l-49 -11l17 117
l215 48zM415 165l-67 -162h-124l67 162h124zM787 163l21 -160h-123l-21 160h123zM464 451h243l-68 123h-72zM454 349h232l5 35h-232zM673 258l5 35h-232l-5 -35h232z" />
    <glyph glyph-name="uni50E6" unicode="&#x50e6;" 
d="M574 526l-35 -250h-83l-30 -218q-4 -29 -23 -47.5t-51 -18.5h-99l44 54l32 230h-88l35 250h298zM247 593l-84 -601h-135l79 566l-53 -13l17 116l192 48zM789 709l-38 -170h135l-13 -92h-143l-102 -454h-104l107 454h-47l13 92h55l35 145l-22 25h124zM809 -8h-135l59 421
h99l-48 -340h15l25 27zM372 641l6 40l-25 28h165l-9 -68h90l-12 -84h-317l12 84h90zM541 235l-11 -180h-76l11 180h76zM310 234l-39 -179h-76l39 179h76zM790 558l8 132h93l-8 -132h-93zM439 356l12 90h-76l-12 -90h76z" />
    <glyph glyph-name="uni50E7" unicode="&#x50e7;" 
d="M393 637l-11 72h164l10 -72h99l23 57l-11 15h179l-32 -72h80l-43 -311h-569l43 311h68zM826 294l-40 -286h-531l40 286h531zM282 591l-84 -598h-172l79 562l-58 -12l16 117l235 48zM525 404l22 155h-111l-5 -32h84l13 -95h-86l-12 86l-15 -114h110zM755 527l5 32h-110
l-22 -155h111l14 105l-33 -77h-86l41 95h80zM649 82l5 37h-237l-5 -37h237zM427 185h237l5 36h-237z" />
    <glyph glyph-name="uni50EC" unicode="&#x50ec;" 
d="M507 648h116l4 24l-32 38h189l-9 -62h105l-12 -85h-105l-6 -42h86l-12 -85h-86l-6 -42h105l-12 -84h-105l-6 -42h143l-12 -85h-412l-2 -14h-145l55 390l-30 -8l16 111l182 48zM282 591l-84 -598h-158l79 561l-49 -11l16 117l212 48zM234 -8l51 161h130l-52 -161h-129z
M432 -8l-1 161h113l2 -161h-114zM582 -8l-1 161h112l2 -161h-113zM723 -8l-1 161h103l2 -161h-104zM452 268h118l6 42h-118zM470 394h118l6 42h-118zM488 521h118l6 42h-118z" />
    <glyph glyph-name="uni50ED" unicode="&#x50ed;" 
d="M827 310l-43 -308h-543l43 308h543zM260 591l-84 -598h-156l79 562l-53 -12l17 117l213 48zM244 341l88 143h-59l9 67l21 47h76l-17 -39h16l35 57h-121l11 76h295l-11 -76h-74l-31 -57h95l-10 -75h-35l-8 -57l36 3l-11 -78l-132 -12l17 128l-67 -127h-123zM562 341
l84 143h-55l9 67l21 48h76l-18 -40h12l33 57h-113l11 76h277l-11 -76h-64l-33 -57h91l-10 -75h-53l-12 -85h29l25 22l-12 -85h-144l13 95l-51 -90h-105zM414 189h250l6 43h-250zM649 80l6 42h-250l-6 -42h250z" />
    <glyph glyph-name="uni50EE" unicode="&#x50ee;" 
d="M486 172l4 24h-205l35 251h535l-35 -251h-202l-4 -24h201l-10 -66h-200l-3 -24h224l-10 -73h-581l10 73h229l3 24h-209l10 66h208zM287 591l-85 -598h-172l80 561l-54 -11l16 117l231 48zM549 537h89l25 34h154l-25 -34h97l-10 -69h-587l10 69h93l-15 35h154zM695 711
l-7 -43h197l-10 -78h-549l10 78h198l3 16l-34 27h192zM446 352h66l5 34h-66zM498 257l5 33h-66l-4 -33h65zM645 386l-5 -34h63l5 34h-63zM690 257l4 33h-63l-5 -33h64z" />
    <glyph glyph-name="uni50F3" unicode="&#x50f3;" 
d="M481 575l6 41h-175l11 78h567l-11 -78h-148l-6 -41h170l-31 -219h-583l31 219h169zM313 169h-71l11 82h67l-22 65h128l22 -65h31l13 91h150l-13 -91h27l37 64h128l-37 -64h64l-11 -82h-70l33 -160h-142l-16 160h-24l-25 -177h-150l25 177h-26l-88 -161h-143zM265 591
l-84 -598h-156l79 561l-49 -11l17 117l209 48zM460 425l11 82h-48l-11 -82h48zM716 507l-12 -82h48l11 82h-47zM560 425h45l12 82h-46zM581 575h45l6 41h-46z" />
    <glyph glyph-name="uni50F5" unicode="&#x50f5;" 
d="M274 591l-84 -598h-162l79 561l-51 -11l17 117l217 48zM287 295h549l-30 -213h-549zM351 610h512l-30 -208h-512zM821 68l-10 -74h-588l10 74h588zM867 386l-10 -71h-588l10 71h588zM891 696l-10 -67h-549l10 67h549zM441 449h84l5 36h-84zM732 485h-83l-5 -36h83z
M452 532h84l4 31h-83zM659 563l-4 -31h83l5 31h-84zM614 244l-4 -29h85l4 29h-85zM406 215h85l4 29h-85zM688 161h-86l-4 -28h86zM395 133h84l4 28h-84z" />
    </font>
</defs>
</svg>
